<svg xmlns="http://www.w3.org/2000/svg" xmlns:xlink="http://www.w3.org/1999/xlink" width="40" zoomAndPan="magnify" viewBox="0 0 30 30.000001" height="40" preserveAspectRatio="xMidYMid meet" version="1.0"><defs><clipPath id="id1"><path d="M 2.398438 2.183594 L 28.527344 2.183594 L 28.527344 28.3125 L 2.398438 28.3125 Z M 2.398438 2.183594 " clip-rule="nonzero"/></clipPath><clipPath id="id2"><path d="M 3 2 L 28.339844 2 L 28.339844 28 L 3 28 Z M 3 2 " clip-rule="nonzero"/></clipPath></defs><g clip-path="url(#id1)"><path fill="#ffffff" d="M 15.464844 28.3125 C 11.976562 28.3125 8.691406 26.957031 6.222656 24.488281 C 3.753906 22.019531 2.398438 18.742188 2.398438 15.253906 C 2.398438 11.765625 3.753906 8.480469 6.222656 6.011719 C 8.691406 3.542969 11.96875 2.183594 15.464844 2.183594 C 18.957031 2.183594 22.230469 3.542969 24.699219 6.011719 C 27.167969 8.480469 28.527344 11.757812 28.527344 15.253906 C 28.527344 18.746094 27.167969 22.019531 24.699219 24.488281 C 22.230469 26.957031 18.953125 28.3125 15.464844 28.3125 Z M 15.464844 2.964844 C 12.183594 2.964844 9.097656 4.242188 6.773438 6.5625 C 4.453125 8.886719 3.175781 11.96875 3.175781 15.253906 C 3.175781 18.539062 4.453125 21.621094 6.773438 23.941406 C 9.097656 26.261719 12.179688 27.539062 15.464844 27.539062 C 18.75 27.539062 21.832031 26.261719 24.152344 23.941406 C 26.476562 21.621094 27.75 18.539062 27.75 15.253906 C 27.75 11.96875 26.476562 8.886719 24.152344 6.5625 C 21.824219 4.242188 18.742188 2.964844 15.464844 2.964844 Z M 15.464844 2.964844 " fill-opacity="1" fill-rule="nonzero"/></g><path fill="#ffffff" d="M 15.203125 26.683594 L 15.171875 26.683594 C 15.058594 26.679688 14.96875 26.585938 14.972656 26.476562 C 14.980469 26.367188 15.066406 26.277344 15.175781 26.277344 C 15.175781 26.277344 15.183594 26.277344 15.183594 26.277344 L 15.207031 26.277344 C 15.324219 26.285156 15.410156 26.378906 15.40625 26.488281 C 15.40625 26.597656 15.316406 26.683594 15.203125 26.683594 Z M 16.234375 26.660156 C 16.125 26.660156 16.035156 26.574219 16.03125 26.464844 C 16.027344 26.351562 16.109375 26.257812 16.222656 26.246094 L 16.246094 26.246094 C 16.359375 26.238281 16.457031 26.324219 16.464844 26.433594 C 16.472656 26.550781 16.386719 26.648438 16.277344 26.652344 L 16.25 26.652344 C 16.238281 26.660156 16.234375 26.660156 16.234375 26.660156 Z M 14.15625 26.613281 C 14.152344 26.613281 14.140625 26.613281 14.132812 26.613281 L 14.105469 26.605469 C 13.992188 26.589844 13.914062 26.492188 13.929688 26.378906 C 13.945312 26.261719 14.042969 26.183594 14.15625 26.199219 L 14.183594 26.207031 C 14.296875 26.214844 14.375 26.320312 14.367188 26.433594 C 14.34375 26.535156 14.257812 26.613281 14.15625 26.613281 Z M 17.277344 26.539062 C 17.175781 26.539062 17.089844 26.464844 17.074219 26.367188 C 17.050781 26.257812 17.128906 26.148438 17.246094 26.132812 L 17.269531 26.128906 C 17.378906 26.113281 17.488281 26.183594 17.503906 26.300781 C 17.519531 26.414062 17.449219 26.519531 17.332031 26.535156 L 17.308594 26.539062 C 17.300781 26.539062 17.292969 26.539062 17.277344 26.539062 Z M 13.117188 26.441406 C 13.101562 26.441406 13.089844 26.441406 13.074219 26.433594 L 13.046875 26.429688 C 12.9375 26.402344 12.867188 26.292969 12.890625 26.183594 C 12.917969 26.074219 13.027344 26.003906 13.136719 26.027344 L 13.164062 26.035156 C 13.273438 26.058594 13.34375 26.164062 13.320312 26.277344 C 13.296875 26.378906 13.210938 26.441406 13.117188 26.441406 Z M 18.304688 26.324219 C 18.210938 26.324219 18.128906 26.261719 18.109375 26.167969 C 18.082031 26.058594 18.144531 25.945312 18.257812 25.917969 L 18.28125 25.914062 C 18.390625 25.882812 18.503906 25.949219 18.53125 26.058594 C 18.5625 26.167969 18.492188 26.285156 18.382812 26.308594 L 18.359375 26.316406 C 18.34375 26.320312 18.320312 26.324219 18.304688 26.324219 Z M 12.101562 26.175781 C 12.078125 26.175781 12.058594 26.167969 12.039062 26.164062 L 12.015625 26.160156 C 11.90625 26.121094 11.847656 26.007812 11.882812 25.898438 C 11.917969 25.789062 12.027344 25.730469 12.136719 25.761719 L 12.164062 25.769531 C 12.273438 25.800781 12.328125 25.917969 12.296875 26.023438 C 12.265625 26.117188 12.183594 26.175781 12.101562 26.175781 Z M 19.3125 26.007812 C 19.226562 26.007812 19.148438 25.957031 19.117188 25.871094 C 19.082031 25.769531 19.132812 25.648438 19.242188 25.613281 L 19.265625 25.601562 C 19.367188 25.566406 19.488281 25.617188 19.53125 25.722656 C 19.566406 25.824219 19.515625 25.945312 19.410156 25.988281 L 19.382812 25.996094 C 19.359375 26.007812 19.335938 26.007812 19.3125 26.007812 Z M 11.113281 25.816406 C 11.085938 25.816406 11.058594 25.808594 11.035156 25.800781 L 11.007812 25.789062 C 10.902344 25.742188 10.855469 25.621094 10.898438 25.519531 C 10.945312 25.414062 11.066406 25.367188 11.167969 25.410156 L 11.191406 25.417969 C 11.292969 25.460938 11.347656 25.582031 11.300781 25.691406 C 11.269531 25.761719 11.191406 25.816406 11.113281 25.816406 Z M 20.285156 25.601562 C 20.207031 25.601562 20.132812 25.558594 20.101562 25.488281 C 20.054688 25.382812 20.097656 25.261719 20.195312 25.210938 L 20.222656 25.199219 C 20.328125 25.152344 20.445312 25.195312 20.5 25.300781 C 20.546875 25.402344 20.503906 25.523438 20.398438 25.570312 L 20.378906 25.582031 C 20.34375 25.597656 20.3125 25.601562 20.285156 25.601562 Z M 10.160156 25.355469 C 10.128906 25.355469 10.089844 25.347656 10.058594 25.332031 L 10.039062 25.320312 C 9.941406 25.269531 9.902344 25.144531 9.957031 25.042969 C 10.007812 24.945312 10.132812 24.910156 10.230469 24.960938 L 10.253906 24.972656 C 10.351562 25.023438 10.386719 25.148438 10.335938 25.246094 C 10.304688 25.320312 10.230469 25.355469 10.160156 25.355469 Z M 21.210938 25.105469 C 21.144531 25.105469 21.074219 25.070312 21.035156 25.007812 C 20.976562 24.910156 21.007812 24.785156 21.101562 24.726562 L 21.121094 24.710938 C 21.222656 24.652344 21.347656 24.683594 21.402344 24.785156 C 21.460938 24.882812 21.429688 25.007812 21.332031 25.066406 L 21.308594 25.074219 C 21.285156 25.097656 21.246094 25.105469 21.210938 25.105469 Z M 9.253906 24.816406 C 9.214844 24.816406 9.175781 24.804688 9.136719 24.777344 L 9.117188 24.761719 C 9.023438 24.699219 8.996094 24.578125 9.058594 24.476562 C 9.121094 24.382812 9.246094 24.359375 9.347656 24.421875 L 9.367188 24.4375 C 9.460938 24.5 9.488281 24.621094 9.425781 24.722656 C 9.386719 24.785156 9.320312 24.816406 9.253906 24.816406 Z M 22.089844 24.523438 C 22.027344 24.523438 21.964844 24.492188 21.925781 24.441406 C 21.855469 24.351562 21.878906 24.222656 21.964844 24.15625 L 21.988281 24.140625 C 22.082031 24.070312 22.207031 24.09375 22.273438 24.179688 C 22.339844 24.273438 22.320312 24.398438 22.230469 24.46875 L 22.210938 24.484375 C 22.175781 24.515625 22.132812 24.523438 22.089844 24.523438 Z M 8.40625 24.195312 C 8.359375 24.195312 8.3125 24.179688 8.273438 24.148438 L 8.253906 24.132812 C 8.164062 24.0625 8.148438 23.9375 8.222656 23.847656 C 8.296875 23.757812 8.421875 23.742188 8.507812 23.816406 L 8.53125 23.832031 C 8.617188 23.90625 8.628906 24.035156 8.5625 24.117188 C 8.523438 24.171875 8.46875 24.195312 8.40625 24.195312 Z M 22.910156 23.863281 C 22.851562 23.863281 22.792969 23.84375 22.757812 23.796875 C 22.683594 23.710938 22.691406 23.582031 22.773438 23.507812 L 22.792969 23.492188 C 22.878906 23.414062 23.007812 23.425781 23.085938 23.507812 C 23.164062 23.59375 23.152344 23.722656 23.070312 23.800781 L 23.054688 23.816406 C 23.007812 23.847656 22.957031 23.863281 22.910156 23.863281 Z M 7.617188 23.492188 C 7.566406 23.492188 7.515625 23.472656 7.476562 23.4375 L 7.457031 23.414062 C 7.375 23.335938 7.375 23.207031 7.457031 23.125 C 7.535156 23.039062 7.664062 23.039062 7.75 23.125 L 7.765625 23.140625 C 7.847656 23.21875 7.847656 23.347656 7.769531 23.429688 C 7.726562 23.476562 7.671875 23.492188 7.617188 23.492188 Z M 23.664062 23.128906 C 23.609375 23.128906 23.566406 23.113281 23.523438 23.070312 C 23.441406 22.992188 23.433594 22.863281 23.511719 22.78125 L 23.527344 22.757812 C 23.605469 22.675781 23.734375 22.671875 23.820312 22.75 C 23.902344 22.828125 23.90625 22.957031 23.828125 23.039062 L 23.8125 23.054688 C 23.773438 23.109375 23.714844 23.128906 23.664062 23.128906 Z M 6.898438 22.726562 C 6.84375 22.726562 6.785156 22.703125 6.742188 22.65625 L 6.726562 22.632812 C 6.65625 22.546875 6.664062 22.421875 6.753906 22.34375 C 6.84375 22.269531 6.96875 22.28125 7.046875 22.367188 L 7.0625 22.390625 C 7.132812 22.476562 7.125 22.601562 7.035156 22.679688 C 6.992188 22.710938 6.945312 22.726562 6.898438 22.726562 Z M 24.34375 22.328125 C 24.304688 22.328125 24.257812 22.3125 24.21875 22.285156 C 24.132812 22.21875 24.109375 22.085938 24.183594 22 L 24.199219 21.976562 C 24.265625 21.890625 24.398438 21.875 24.484375 21.941406 C 24.574219 22.007812 24.589844 22.140625 24.523438 22.226562 L 24.507812 22.25 C 24.46875 22.300781 24.40625 22.328125 24.34375 22.328125 Z M 6.257812 21.894531 C 6.195312 21.894531 6.128906 21.863281 6.09375 21.804688 L 6.078125 21.785156 C 6.015625 21.691406 6.035156 21.566406 6.128906 21.5 C 6.222656 21.4375 6.347656 21.457031 6.414062 21.550781 L 6.429688 21.574219 C 6.492188 21.667969 6.472656 21.789062 6.378906 21.859375 C 6.335938 21.878906 6.296875 21.894531 6.257812 21.894531 Z M 24.949219 21.46875 C 24.914062 21.46875 24.875 21.457031 24.839844 21.4375 C 24.746094 21.375 24.714844 21.25 24.777344 21.15625 L 24.792969 21.136719 C 24.855469 21.042969 24.980469 21.011719 25.074219 21.074219 C 25.167969 21.136719 25.199219 21.261719 25.136719 21.355469 L 25.121094 21.375 C 25.085938 21.433594 25.015625 21.46875 24.949219 21.46875 Z M 5.691406 21.003906 C 5.621094 21.003906 5.550781 20.96875 5.515625 20.902344 L 5.503906 20.878906 C 5.449219 20.78125 5.484375 20.65625 5.582031 20.597656 C 5.683594 20.542969 5.808594 20.578125 5.863281 20.675781 L 5.875 20.699219 C 5.933594 20.796875 5.894531 20.921875 5.796875 20.980469 C 5.765625 20.996094 5.730469 21.003906 5.691406 21.003906 Z M 25.476562 20.550781 C 25.445312 20.550781 25.414062 20.546875 25.382812 20.53125 C 25.28125 20.480469 25.242188 20.355469 25.292969 20.253906 L 25.304688 20.234375 C 25.355469 20.136719 25.480469 20.09375 25.578125 20.144531 C 25.679688 20.199219 25.71875 20.324219 25.667969 20.421875 L 25.65625 20.441406 C 25.621094 20.511719 25.546875 20.550781 25.476562 20.550781 Z M 5.21875 20.066406 C 5.140625 20.066406 5.066406 20.019531 5.03125 19.949219 L 5.019531 19.925781 C 4.972656 19.824219 5.019531 19.703125 5.125 19.65625 C 5.230469 19.609375 5.347656 19.65625 5.394531 19.761719 L 5.40625 19.78125 C 5.453125 19.886719 5.40625 20.003906 5.300781 20.050781 C 5.277344 20.0625 5.246094 20.066406 5.21875 20.066406 Z M 25.90625 19.59375 C 25.882812 19.59375 25.855469 19.589844 25.835938 19.578125 C 25.730469 19.535156 25.679688 19.417969 25.71875 19.3125 L 25.730469 19.285156 C 25.773438 19.183594 25.890625 19.128906 25.996094 19.171875 C 26.101562 19.214844 26.152344 19.332031 26.109375 19.4375 L 26.101562 19.464844 C 26.0625 19.542969 25.992188 19.59375 25.90625 19.59375 Z M 4.828125 19.089844 C 4.746094 19.089844 4.660156 19.035156 4.636719 18.949219 L 4.625 18.921875 C 4.589844 18.8125 4.644531 18.699219 4.753906 18.664062 C 4.863281 18.625 4.980469 18.683594 5.015625 18.792969 L 5.027344 18.816406 C 5.0625 18.925781 5.003906 19.042969 4.902344 19.078125 C 4.875 19.082031 4.855469 19.089844 4.828125 19.089844 Z M 26.25 18.601562 C 26.230469 18.601562 26.214844 18.59375 26.195312 18.589844 C 26.085938 18.558594 26.023438 18.445312 26.054688 18.335938 L 26.058594 18.308594 C 26.089844 18.199219 26.203125 18.136719 26.3125 18.167969 C 26.421875 18.199219 26.484375 18.3125 26.453125 18.421875 L 26.449219 18.449219 C 26.417969 18.539062 26.339844 18.601562 26.25 18.601562 Z M 4.535156 18.074219 C 4.441406 18.074219 4.359375 18.011719 4.339844 17.917969 L 4.332031 17.890625 C 4.308594 17.78125 4.375 17.671875 4.484375 17.648438 C 4.59375 17.621094 4.703125 17.6875 4.730469 17.796875 L 4.734375 17.824219 C 4.761719 17.933594 4.691406 18.042969 4.582031 18.070312 C 4.566406 18.074219 4.550781 18.074219 4.535156 18.074219 Z M 26.496094 17.574219 C 26.484375 17.574219 26.46875 17.574219 26.453125 17.570312 C 26.34375 17.546875 26.273438 17.4375 26.292969 17.328125 L 26.296875 17.304688 C 26.320312 17.195312 26.429688 17.121094 26.535156 17.140625 C 26.644531 17.164062 26.71875 17.273438 26.699219 17.382812 L 26.691406 17.40625 C 26.675781 17.507812 26.589844 17.574219 26.496094 17.574219 Z M 4.339844 17.042969 C 4.238281 17.042969 4.152344 16.96875 4.136719 16.867188 L 4.128906 16.839844 C 4.113281 16.726562 4.191406 16.625 4.308594 16.609375 C 4.421875 16.59375 4.519531 16.671875 4.535156 16.789062 L 4.542969 16.8125 C 4.558594 16.929688 4.480469 17.027344 4.371094 17.046875 C 4.359375 17.042969 4.347656 17.042969 4.339844 17.042969 Z M 26.640625 16.53125 C 26.636719 16.53125 26.625 16.53125 26.621094 16.53125 C 26.507812 16.523438 26.421875 16.421875 26.4375 16.308594 L 26.4375 16.28125 C 26.449219 16.167969 26.546875 16.085938 26.660156 16.101562 C 26.777344 16.109375 26.859375 16.210938 26.84375 16.324219 L 26.84375 16.351562 C 26.839844 16.453125 26.746094 16.53125 26.640625 16.53125 Z M 4.246094 15.996094 C 4.136719 15.996094 4.046875 15.914062 4.042969 15.800781 L 4.042969 15.773438 C 4.035156 15.660156 4.125 15.566406 4.234375 15.558594 C 4.347656 15.554688 4.441406 15.644531 4.449219 15.753906 L 4.449219 15.777344 C 4.453125 15.890625 4.363281 15.984375 4.253906 15.992188 C 4.25 15.996094 4.246094 15.996094 4.246094 15.996094 Z M 26.691406 15.457031 C 26.578125 15.457031 26.480469 15.386719 26.480469 15.273438 L 26.480469 15.253906 C 26.480469 15.253906 26.480469 15.246094 26.480469 15.246094 L 26.480469 15.222656 C 26.480469 15.105469 26.574219 15.019531 26.6875 15.019531 C 26.800781 15.019531 26.894531 15.113281 26.894531 15.222656 L 26.894531 15.242188 C 26.894531 15.242188 26.894531 15.246094 26.894531 15.246094 L 26.894531 15.273438 C 26.894531 15.386719 26.808594 15.457031 26.691406 15.457031 Z M 4.238281 14.941406 C 4.234375 14.941406 4.234375 14.941406 4.230469 14.941406 C 4.113281 14.933594 4.027344 14.839844 4.03125 14.726562 L 4.03125 14.699219 C 4.035156 14.585938 4.136719 14.503906 4.246094 14.507812 C 4.359375 14.511719 4.449219 14.605469 4.4375 14.722656 L 4.4375 14.746094 C 4.441406 14.855469 4.347656 14.941406 4.238281 14.941406 Z M 26.644531 14.402344 C 26.542969 14.402344 26.453125 14.324219 26.445312 14.214844 L 26.445312 14.191406 C 26.433594 14.074219 26.515625 13.976562 26.625 13.964844 C 26.738281 13.957031 26.839844 14.039062 26.847656 14.148438 L 26.847656 14.175781 C 26.859375 14.289062 26.777344 14.386719 26.660156 14.398438 C 26.65625 14.402344 26.652344 14.402344 26.644531 14.402344 Z M 4.339844 13.894531 C 4.328125 13.894531 4.316406 13.894531 4.3125 13.894531 C 4.199219 13.878906 4.121094 13.773438 4.136719 13.664062 L 4.140625 13.636719 C 4.15625 13.523438 4.261719 13.445312 4.375 13.464844 C 4.488281 13.480469 4.566406 13.585938 4.546875 13.699219 L 4.542969 13.726562 C 4.527344 13.820312 4.4375 13.894531 4.339844 13.894531 Z M 26.5 13.363281 C 26.402344 13.363281 26.320312 13.292969 26.296875 13.195312 L 26.292969 13.167969 C 26.273438 13.058594 26.34375 12.949219 26.453125 12.929688 C 26.5625 12.910156 26.671875 12.980469 26.691406 13.089844 L 26.699219 13.117188 C 26.71875 13.226562 26.644531 13.335938 26.535156 13.355469 C 26.523438 13.363281 26.511719 13.363281 26.5 13.363281 Z M 4.53125 12.859375 C 4.515625 12.859375 4.5 12.859375 4.484375 12.851562 C 4.375 12.828125 4.308594 12.71875 4.332031 12.609375 L 4.339844 12.582031 C 4.363281 12.472656 4.472656 12.40625 4.582031 12.429688 C 4.691406 12.457031 4.761719 12.566406 4.734375 12.675781 L 4.730469 12.703125 C 4.707031 12.796875 4.625 12.859375 4.53125 12.859375 Z M 26.257812 12.335938 C 26.167969 12.335938 26.085938 12.28125 26.058594 12.1875 L 26.054688 12.160156 C 26.023438 12.050781 26.085938 11.9375 26.195312 11.90625 C 26.304688 11.875 26.417969 11.9375 26.449219 12.046875 L 26.453125 12.070312 C 26.484375 12.179688 26.421875 12.296875 26.3125 12.328125 C 26.292969 12.335938 26.273438 12.335938 26.257812 12.335938 Z M 4.824219 11.847656 C 4.800781 11.847656 4.78125 11.84375 4.753906 11.835938 C 4.644531 11.800781 4.589844 11.6875 4.625 11.578125 L 4.636719 11.554688 C 4.671875 11.445312 4.792969 11.390625 4.894531 11.425781 C 5.003906 11.460938 5.0625 11.578125 5.027344 11.6875 L 5.015625 11.710938 C 4.988281 11.796875 4.90625 11.847656 4.824219 11.847656 Z M 25.917969 11.34375 C 25.835938 11.34375 25.757812 11.289062 25.726562 11.210938 L 25.714844 11.191406 C 25.671875 11.085938 25.726562 10.96875 25.828125 10.925781 C 25.933594 10.882812 26.054688 10.9375 26.09375 11.039062 L 26.105469 11.066406 C 26.148438 11.171875 26.09375 11.289062 25.992188 11.332031 C 25.964844 11.335938 25.945312 11.34375 25.917969 11.34375 Z M 5.207031 10.867188 C 5.183594 10.867188 5.152344 10.863281 5.125 10.851562 C 5.019531 10.804688 4.972656 10.6875 5.019531 10.582031 L 5.03125 10.554688 C 5.078125 10.453125 5.199219 10.40625 5.300781 10.453125 C 5.40625 10.5 5.453125 10.617188 5.40625 10.722656 L 5.394531 10.742188 C 5.359375 10.820312 5.285156 10.867188 5.207031 10.867188 Z M 25.484375 10.378906 C 25.414062 10.378906 25.339844 10.335938 25.304688 10.265625 L 25.292969 10.242188 C 25.242188 10.144531 25.28125 10.019531 25.382812 9.96875 C 25.480469 9.917969 25.605469 9.957031 25.65625 10.054688 L 25.667969 10.078125 C 25.71875 10.175781 25.679688 10.300781 25.578125 10.351562 C 25.546875 10.375 25.515625 10.378906 25.484375 10.378906 Z M 5.683594 9.925781 C 5.644531 9.925781 5.613281 9.917969 5.582031 9.902344 C 5.484375 9.84375 5.449219 9.71875 5.503906 9.621094 L 5.515625 9.597656 C 5.574219 9.5 5.699219 9.46875 5.796875 9.519531 C 5.894531 9.578125 5.925781 9.703125 5.875 9.800781 L 5.863281 9.824219 C 5.824219 9.890625 5.753906 9.925781 5.683594 9.925781 Z M 24.964844 9.464844 C 24.898438 9.464844 24.828125 9.425781 24.792969 9.371094 L 24.78125 9.347656 C 24.71875 9.253906 24.75 9.125 24.84375 9.066406 C 24.9375 9.003906 25.070312 9.035156 25.125 9.128906 L 25.140625 9.152344 C 25.203125 9.246094 25.171875 9.375 25.078125 9.433594 C 25.039062 9.457031 25 9.464844 24.964844 9.464844 Z M 6.242188 9.035156 C 6.203125 9.035156 6.160156 9.027344 6.128906 9 C 6.035156 8.9375 6.015625 8.808594 6.078125 8.714844 L 6.09375 8.691406 C 6.15625 8.597656 6.285156 8.578125 6.378906 8.640625 C 6.472656 8.707031 6.492188 8.832031 6.429688 8.925781 L 6.414062 8.949219 C 6.375 9.003906 6.304688 9.035156 6.242188 9.035156 Z M 24.359375 8.605469 C 24.296875 8.605469 24.234375 8.578125 24.199219 8.527344 L 24.183594 8.503906 C 24.117188 8.417969 24.132812 8.285156 24.21875 8.21875 C 24.308594 8.152344 24.4375 8.167969 24.507812 8.253906 L 24.523438 8.277344 C 24.589844 8.363281 24.574219 8.496094 24.484375 8.5625 C 24.449219 8.589844 24.40625 8.605469 24.359375 8.605469 Z M 6.882812 8.203125 C 6.835938 8.203125 6.789062 8.1875 6.753906 8.15625 C 6.664062 8.082031 6.65625 7.953125 6.726562 7.871094 L 6.742188 7.847656 C 6.816406 7.761719 6.945312 7.753906 7.035156 7.828125 C 7.125 7.902344 7.128906 8.03125 7.054688 8.121094 L 7.039062 8.140625 C 7.003906 8.175781 6.941406 8.203125 6.882812 8.203125 Z M 23.679688 7.800781 C 23.621094 7.800781 23.570312 7.78125 23.527344 7.734375 L 23.511719 7.71875 C 23.433594 7.636719 23.441406 7.503906 23.523438 7.425781 C 23.605469 7.347656 23.734375 7.355469 23.8125 7.4375 L 23.835938 7.457031 C 23.914062 7.542969 23.90625 7.671875 23.824219 7.75 C 23.78125 7.78125 23.730469 7.800781 23.679688 7.800781 Z M 7.601562 7.433594 C 7.550781 7.433594 7.5 7.410156 7.457031 7.371094 C 7.378906 7.285156 7.378906 7.160156 7.460938 7.078125 L 7.484375 7.058594 C 7.566406 6.980469 7.695312 6.980469 7.773438 7.0625 C 7.851562 7.144531 7.851562 7.277344 7.769531 7.355469 L 7.753906 7.371094 C 7.707031 7.410156 7.65625 7.433594 7.601562 7.433594 Z M 22.929688 7.0625 C 22.882812 7.0625 22.832031 7.046875 22.792969 7.011719 L 22.777344 6.996094 C 22.695312 6.921875 22.683594 6.792969 22.761719 6.703125 C 22.835938 6.621094 22.964844 6.609375 23.054688 6.6875 L 23.074219 6.703125 C 23.160156 6.78125 23.167969 6.90625 23.089844 6.996094 C 23.039062 7.042969 22.988281 7.0625 22.929688 7.0625 Z M 8.390625 6.730469 C 8.332031 6.730469 8.269531 6.703125 8.226562 6.652344 C 8.15625 6.5625 8.171875 6.433594 8.257812 6.367188 L 8.28125 6.351562 C 8.367188 6.277344 8.5 6.292969 8.566406 6.382812 C 8.640625 6.46875 8.625 6.601562 8.535156 6.667969 L 8.515625 6.683594 C 8.476562 6.714844 8.4375 6.730469 8.390625 6.730469 Z M 22.113281 6.402344 C 22.070312 6.402344 22.027344 6.390625 21.992188 6.359375 L 21.972656 6.34375 C 21.878906 6.277344 21.863281 6.152344 21.925781 6.058594 C 21.992188 5.964844 22.121094 5.949219 22.210938 6.011719 L 22.230469 6.027344 C 22.324219 6.09375 22.339844 6.226562 22.273438 6.3125 C 22.238281 6.371094 22.175781 6.402344 22.113281 6.402344 Z M 9.238281 6.105469 C 9.167969 6.105469 9.105469 6.074219 9.066406 6.011719 C 9.003906 5.917969 9.027344 5.789062 9.121094 5.726562 L 9.144531 5.710938 C 9.238281 5.648438 9.367188 5.671875 9.429688 5.765625 C 9.492188 5.859375 9.464844 5.992188 9.371094 6.054688 L 9.351562 6.070312 C 9.316406 6.09375 9.273438 6.105469 9.238281 6.105469 Z M 21.230469 5.820312 C 21.195312 5.820312 21.160156 5.808594 21.128906 5.789062 L 21.105469 5.773438 C 21.007812 5.714844 20.976562 5.589844 21.035156 5.492188 C 21.089844 5.390625 21.214844 5.359375 21.316406 5.417969 L 21.335938 5.433594 C 21.433594 5.492188 21.464844 5.617188 21.410156 5.714844 C 21.371094 5.78125 21.304688 5.820312 21.230469 5.820312 Z M 10.136719 5.5625 C 10.066406 5.5625 9.992188 5.523438 9.957031 5.453125 C 9.902344 5.355469 9.941406 5.230469 10.039062 5.179688 L 10.058594 5.167969 C 10.160156 5.117188 10.285156 5.152344 10.335938 5.25 C 10.386719 5.351562 10.351562 5.476562 10.253906 5.527344 L 10.230469 5.539062 C 10.207031 5.554688 10.167969 5.5625 10.136719 5.5625 Z M 20.304688 5.320312 C 20.273438 5.320312 20.25 5.3125 20.21875 5.296875 L 20.195312 5.289062 C 20.09375 5.242188 20.050781 5.117188 20.097656 5.011719 C 20.144531 4.90625 20.269531 4.867188 20.375 4.914062 L 20.394531 4.921875 C 20.5 4.96875 20.539062 5.09375 20.492188 5.199219 C 20.457031 5.277344 20.382812 5.320312 20.304688 5.320312 Z M 11.085938 5.105469 C 11.007812 5.105469 10.929688 5.058594 10.898438 4.980469 C 10.855469 4.875 10.902344 4.757812 11.007812 4.710938 L 11.035156 4.699219 C 11.136719 4.65625 11.257812 4.703125 11.304688 4.808594 C 11.347656 4.914062 11.300781 5.03125 11.195312 5.078125 L 11.175781 5.089844 C 11.136719 5.101562 11.113281 5.105469 11.085938 5.105469 Z M 19.335938 4.90625 C 19.316406 4.90625 19.289062 4.902344 19.269531 4.898438 L 19.242188 4.886719 C 19.140625 4.851562 19.082031 4.730469 19.125 4.621094 C 19.160156 4.515625 19.28125 4.460938 19.390625 4.5 L 19.414062 4.511719 C 19.519531 4.546875 19.578125 4.667969 19.539062 4.777344 C 19.5 4.855469 19.421875 4.90625 19.335938 4.90625 Z M 12.074219 4.742188 C 11.984375 4.742188 11.90625 4.683594 11.875 4.59375 C 11.839844 4.484375 11.902344 4.371094 12.011719 4.339844 L 12.039062 4.335938 C 12.148438 4.296875 12.261719 4.359375 12.292969 4.46875 C 12.328125 4.578125 12.265625 4.695312 12.15625 4.726562 L 12.132812 4.730469 C 12.117188 4.742188 12.09375 4.742188 12.074219 4.742188 Z M 18.332031 4.59375 C 18.316406 4.59375 18.296875 4.59375 18.28125 4.589844 L 18.253906 4.585938 C 18.144531 4.558594 18.078125 4.445312 18.109375 4.335938 C 18.132812 4.226562 18.25 4.15625 18.359375 4.1875 L 18.382812 4.195312 C 18.492188 4.226562 18.5625 4.335938 18.53125 4.445312 C 18.503906 4.53125 18.421875 4.59375 18.332031 4.59375 Z M 13.089844 4.476562 C 12.996094 4.476562 12.914062 4.40625 12.890625 4.3125 C 12.867188 4.203125 12.9375 4.09375 13.046875 4.070312 L 13.070312 4.066406 C 13.179688 4.039062 13.292969 4.109375 13.3125 4.21875 C 13.339844 4.328125 13.265625 4.4375 13.15625 4.464844 L 13.132812 4.46875 C 13.121094 4.46875 13.105469 4.476562 13.089844 4.476562 Z M 17.300781 4.371094 C 17.292969 4.371094 17.28125 4.371094 17.269531 4.367188 L 17.246094 4.359375 C 17.136719 4.34375 17.058594 4.234375 17.074219 4.125 C 17.09375 4.019531 17.199219 3.941406 17.308594 3.957031 L 17.332031 3.960938 C 17.441406 3.980469 17.519531 4.085938 17.5 4.195312 C 17.488281 4.304688 17.402344 4.371094 17.300781 4.371094 Z M 14.132812 4.304688 C 14.027344 4.304688 13.9375 4.226562 13.929688 4.121094 C 13.914062 4.007812 13.996094 3.910156 14.109375 3.894531 L 14.136719 3.886719 C 14.25 3.871094 14.351562 3.957031 14.367188 4.070312 C 14.382812 4.183594 14.296875 4.28125 14.183594 4.296875 L 14.15625 4.304688 C 14.148438 4.296875 14.136719 4.304688 14.132812 4.304688 Z M 16.253906 4.25 C 16.25 4.25 16.246094 4.25 16.238281 4.25 L 16.214844 4.25 C 16.097656 4.246094 16.015625 4.148438 16.019531 4.035156 C 16.027344 3.917969 16.125 3.835938 16.238281 3.839844 L 16.265625 3.839844 C 16.378906 3.847656 16.464844 3.945312 16.457031 4.058594 C 16.453125 4.167969 16.363281 4.25 16.253906 4.25 Z M 15.175781 4.230469 C 15.066406 4.230469 14.972656 4.140625 14.972656 4.027344 C 14.96875 3.914062 15.0625 3.820312 15.171875 3.816406 L 15.199219 3.816406 C 15.308594 3.808594 15.40625 3.902344 15.40625 4.011719 C 15.410156 4.125 15.316406 4.21875 15.207031 4.226562 L 15.175781 4.230469 C 15.183594 4.230469 15.183594 4.230469 15.175781 4.230469 Z M 15.175781 4.230469 " fill-opacity="1" fill-rule="nonzero"/><g clip-path="url(#id2)"><path fill="#e82204" d="M 27.089844 10.933594 C 29.765625 17.882812 26.585938 24.214844 20.449219 26.699219 C 12.871094 29.765625 6.390625 26.242188 3.945312 19.871094 C 1.5 13.503906 4.644531 5.800781 11.292969 3.246094 C 17.828125 0.734375 24.550781 4.328125 27.089844 10.933594 " fill-opacity="1" fill-rule="nonzero"/></g><path fill="#fa5d41" d="M 12.644531 4.757812 C 11.601562 5.085938 9.867188 4.695312 8.808594 5.535156 C 7.75 6.375 5.980469 8.136719 5.128906 12.175781 C 4.277344 16.214844 5.128906 19.246094 5.722656 20.328125 C 6.316406 21.410156 6.902344 21.589844 7.804688 22.316406 C 8.707031 23.046875 9.109375 23.976562 9.632812 24.722656 C 10.226562 25.5625 11.980469 27.238281 16.925781 26.332031 C 21.875 25.421875 24.363281 22.636719 25.429688 20.199219 C 26.496094 17.761719 27.226562 15.957031 26.453125 14.175781 C 25.679688 12.390625 24.773438 12.304688 24.78125 11.335938 C 24.789062 10.019531 24.972656 8.34375 22.621094 6.511719 C 20.273438 4.679688 17.421875 3.605469 15.914062 3.621094 C 14.40625 3.640625 13.875 4.371094 12.644531 4.757812 " fill-opacity="1" fill-rule="nonzero"/><path fill="#ff896b" d="M 14.257812 13.671875 C 13.757812 13.65625 12.820312 11.582031 12.085938 11.878906 C 11.433594 12.144531 10.882812 13.203125 10.628906 14.265625 C 10.375 15.328125 10.230469 16.332031 11.738281 16.058594 C 13.40625 15.753906 13.335938 16.238281 13.105469 16.582031 C 12.871094 16.929688 12.289062 17.773438 12.679688 18.152344 C 13.070312 18.53125 14.207031 18.035156 14.738281 17.605469 C 15.273438 17.175781 15.671875 17.941406 15.371094 18.707031 C 15.070312 19.472656 14.621094 20.480469 15.421875 20.65625 C 16.222656 20.832031 18.625 20.003906 19.726562 18.769531 C 20.824219 17.539062 20.703125 16.226562 20.34375 16.015625 C 19.984375 15.804688 18.40625 16.375 18.0625 15.941406 C 17.722656 15.507812 19.578125 15.242188 19.390625 14.625 C 19.230469 14.089844 18.144531 14.546875 17.742188 14.199219 C 17.421875 13.921875 17.996094 13.273438 18.90625 13.203125 C 20.207031 13.101562 19.753906 12.390625 19.167969 11.589844 C 18.582031 10.789062 17.214844 10.054688 16.570312 10.277344 C 15.921875 10.503906 16.480469 12.402344 16.105469 12.519531 C 15.730469 12.632812 15.296875 11.0625 14.6875 11.289062 C 14.117188 11.503906 15.074219 13.699219 14.257812 13.671875 " fill-opacity="1" fill-rule="nonzero"/><path fill="#c41a00" d="M 13.105469 16.582031 C 13.335938 16.238281 13.40625 15.753906 11.738281 16.058594 C 10.230469 16.332031 10.375 15.328125 10.628906 14.265625 C 10.882812 13.203125 11.433594 12.144531 12.085938 11.878906 C 12.820312 11.582031 13.757812 13.65625 14.257812 13.671875 C 14.730469 13.6875 14.609375 12.957031 14.535156 12.300781 C 13.925781 10.925781 13.355469 9.566406 12.097656 8.144531 C 10.691406 6.554688 9.550781 7.21875 8.292969 8.984375 C 7.035156 10.746094 6.53125 14.101562 6.570312 15.6875 C 6.613281 17.277344 7.1875 19.960938 8.753906 19.820312 C 10.300781 19.683594 12.761719 17.089844 12.828125 17.019531 C 12.925781 16.84375 13.035156 16.691406 13.105469 16.582031 " fill-opacity="1" fill-rule="nonzero"/><path fill="#c41a00" d="M 22.0625 14.230469 C 20.738281 14.5625 18.503906 15.433594 18.503906 15.433594 C 18.175781 15.597656 17.917969 15.753906 18.0625 15.941406 C 18.40625 16.375 19.984375 15.804688 20.34375 16.015625 C 20.703125 16.226562 20.824219 17.539062 19.726562 18.769531 C 18.628906 20.003906 16.222656 20.832031 15.421875 20.65625 C 14.621094 20.480469 15.070312 19.472656 15.371094 18.707031 C 15.671875 17.941406 15.273438 17.175781 14.738281 17.605469 C 14.417969 17.863281 13.875 18.148438 13.410156 18.25 C 12.207031 19.652344 10.351562 22.65625 11.53125 23.566406 C 12.46875 24.292969 15.65625 24.902344 19.125 23.558594 C 22.59375 22.210938 24.484375 19.582031 24.535156 16.964844 C 24.582031 14.347656 23.386719 13.898438 22.0625 14.230469 " fill-opacity="1" fill-rule="nonzero"/><path fill="#c41a00" d="M 22.507812 8.65625 C 21.242188 7.769531 19.722656 7.636719 18.625 6.792969 C 17.527344 5.953125 16.046875 5.074219 15.105469 5.988281 C 14.164062 6.898438 14.761719 10.285156 15.472656 11.839844 C 15.707031 12.199219 15.914062 12.578125 16.105469 12.519531 C 16.480469 12.402344 15.921875 10.503906 16.570312 10.277344 C 17.214844 10.054688 18.582031 10.789062 19.167969 11.589844 C 19.753906 12.390625 20.207031 13.101562 18.90625 13.203125 C 17.996094 13.273438 17.421875 13.921875 17.742188 14.199219 C 17.929688 14.359375 18.257812 14.347656 18.578125 14.34375 C 23.460938 12.761719 23.753906 9.523438 22.507812 8.65625 " fill-opacity="1" fill-rule="nonzero"/><path fill="#ffa05c" d="M 18.945312 10.1875 C 19.144531 10.332031 20.089844 9.742188 20.242188 9.265625 C 20.390625 8.785156 19.8125 8.332031 19.445312 8.390625 C 18.996094 8.460938 18.671875 9.984375 18.945312 10.1875 " fill-opacity="1" fill-rule="nonzero"/><path fill="#ffa05c" d="M 21.015625 18.710938 C 20.921875 18.921875 21.640625 19.628906 22.089844 19.683594 C 22.539062 19.738281 22.808594 19.179688 22.691406 18.847656 C 22.546875 18.445312 21.144531 18.417969 21.015625 18.710938 " fill-opacity="1" fill-rule="nonzero"/><path fill="#ffa05c" d="M 11.550781 10.742188 C 11.761719 10.617188 11.632812 9.492188 11.273438 9.152344 C 10.914062 8.8125 10.273438 9.164062 10.167969 9.53125 C 10.042969 9.976562 11.257812 10.914062 11.550781 10.742188 " fill-opacity="1" fill-rule="nonzero"/><path fill="#ffa05c" d="M 10.015625 16.375 C 9.851562 16.1875 8.804688 16.539062 8.546875 16.96875 C 8.292969 17.398438 8.753906 17.976562 9.125 18.003906 C 9.578125 18.042969 10.238281 16.636719 10.015625 16.375 " fill-opacity="1" fill-rule="nonzero"/><path fill="#ffa05c" d="M 14.332031 20.96875 C 14.171875 20.78125 13.125 21.128906 12.867188 21.558594 C 12.613281 21.988281 13.074219 22.566406 13.445312 22.597656 C 13.898438 22.632812 14.558594 21.230469 14.332031 20.96875 " fill-opacity="1" fill-rule="nonzero"/><path fill="#ffa05c" d="M 20.175781 11.40625 C 20.222656 11.605469 21.097656 11.695312 21.515625 11.503906 C 21.933594 11.308594 21.792969 10.492188 21.457031 10.308594 C 21.136719 10.128906 20.097656 11.082031 20.175781 11.40625 " fill-opacity="1" fill-rule="nonzero"/><path fill="#ffa05c" d="M 18.988281 20.507812 C 18.8125 20.613281 18.980469 21.5 19.285156 21.851562 C 19.585938 22.207031 20.304688 21.835938 20.382812 21.453125 C 20.457031 21.082031 19.269531 20.339844 18.988281 20.507812 " fill-opacity="1" fill-rule="nonzero"/><path fill="#ffa05c" d="M 21.464844 16.234375 C 21.453125 16.4375 22.265625 16.78125 22.722656 16.71875 C 23.175781 16.65625 23.269531 15.835938 23 15.558594 C 22.742188 15.292969 21.480469 15.898438 21.464844 16.234375 " fill-opacity="1" fill-rule="nonzero"/><path fill="#ffa05c" d="M 10.207031 11.96875 C 10.304688 11.789062 9.71875 11.117188 9.28125 10.96875 C 8.847656 10.820312 8.410156 11.519531 8.535156 11.890625 C 8.65625 12.242188 10.046875 12.265625 10.207031 11.96875 " fill-opacity="1" fill-rule="nonzero"/><path fill="#ffa05c" d="M 17.3125 9.34375 C 17.503906 9.480469 17.949219 8.253906 17.820312 7.902344 C 17.625 7.394531 16.882812 7.464844 16.609375 7.71875 C 16.1875 8.105469 16.996094 9.117188 17.3125 9.34375 " fill-opacity="1" fill-rule="nonzero"/><path fill="#ffa05c" d="M 9.429688 14.296875 C 9.570312 14.101562 8.375 13.628906 8.035156 13.757812 C 7.53125 13.949219 7.589844 14.714844 7.835938 15 C 8.207031 15.433594 9.207031 14.617188 9.429688 14.296875 " fill-opacity="1" fill-rule="nonzero"/><path fill="#ffa05c" d="M 16.507812 21.421875 C 16.488281 21.402344 15.710938 22.164062 15.910156 22.824219 C 16.070312 23.347656 16.816406 23.328125 17.105469 23.09375 C 17.550781 22.734375 16.808594 21.667969 16.507812 21.421875 " fill-opacity="1" fill-rule="nonzero"/></svg>