<svg xmlns="http://www.w3.org/2000/svg" xmlns:xlink="http://www.w3.org/1999/xlink" width="40" zoomAndPan="magnify" viewBox="0 0 30 30.000001" height="40" preserveAspectRatio="xMidYMid meet" version="1.0"><defs><clipPath id="id1"><path d="M 3 8 L 27 8 L 27 29.03125 L 3 29.03125 Z M 3 8 " clip-rule="nonzero"/></clipPath><clipPath id="id2"><path d="M 2.800781 0 L 27.480469 0 L 27.480469 6 L 2.800781 6 Z M 2.800781 0 " clip-rule="nonzero"/></clipPath></defs><g clip-path="url(#id1)"><path fill="#ed4742" d="M 22.941406 27.375 L 7.34375 27.375 L 5.390625 9.785156 L 24.894531 9.785156 Z M 25.820312 8.144531 L 4.464844 8.144531 C 4.226562 8.144531 4.003906 8.242188 3.84375 8.417969 C 3.6875 8.589844 3.613281 8.824219 3.636719 9.054688 L 5.773438 28.289062 C 5.820312 28.703125 6.175781 29.019531 6.597656 29.019531 L 23.683594 29.019531 C 24.109375 29.019531 24.464844 28.703125 24.511719 28.289062 L 26.648438 9.054688 C 26.671875 8.824219 26.597656 8.589844 26.441406 8.417969 C 26.28125 8.242188 26.058594 8.144531 25.820312 8.144531 " fill-opacity="1" fill-rule="nonzero"/></g><path fill="#ed4742" d="M 9.753906 24.628906 C 9.796875 25.050781 10.160156 25.363281 10.578125 25.363281 C 10.609375 25.363281 10.636719 25.363281 10.664062 25.359375 C 11.121094 25.3125 11.453125 24.910156 11.40625 24.460938 L 10.265625 13.449219 C 10.21875 13 9.8125 12.675781 9.355469 12.714844 C 8.898438 12.761719 8.566406 13.164062 8.613281 13.617188 L 9.753906 24.628906 " fill-opacity="1" fill-rule="nonzero"/><path fill="#ed4742" d="M 15.140625 25.363281 C 15.601562 25.363281 15.972656 24.996094 15.972656 24.542969 L 15.972656 13.53125 C 15.972656 13.078125 15.601562 12.710938 15.140625 12.710938 C 14.683594 12.710938 14.3125 13.078125 14.3125 13.53125 L 14.3125 24.542969 C 14.3125 24.996094 14.683594 25.363281 15.140625 25.363281 " fill-opacity="1" fill-rule="nonzero"/><path fill="#ed4742" d="M 19.617188 25.359375 C 19.648438 25.363281 19.675781 25.363281 19.703125 25.363281 C 20.125 25.363281 20.484375 25.050781 20.527344 24.628906 L 21.667969 13.617188 C 21.714844 13.164062 21.382812 12.761719 20.925781 12.714844 C 20.464844 12.671875 20.0625 12.996094 20.015625 13.449219 L 18.875 24.460938 C 18.828125 24.910156 19.160156 25.3125 19.617188 25.359375 " fill-opacity="1" fill-rule="nonzero"/><g clip-path="url(#id2)"><path fill="#ed4742" d="M 15.140625 1.652344 C 16.484375 1.652344 17.609375 2.546875 17.96875 3.757812 L 12.3125 3.757812 C 12.675781 2.546875 13.800781 1.652344 15.140625 1.652344 Z M 26.648438 3.757812 L 19.6875 3.757812 C 19.292969 1.632812 17.40625 0.0117188 15.140625 0.0117188 C 12.875 0.0117188 10.992188 1.632812 10.597656 3.757812 L 3.632812 3.757812 C 3.175781 3.757812 2.804688 4.125 2.804688 4.582031 C 2.804688 5.035156 3.175781 5.402344 3.632812 5.402344 L 26.648438 5.402344 C 27.109375 5.402344 27.480469 5.035156 27.480469 4.582031 C 27.480469 4.125 27.109375 3.757812 26.648438 3.757812 " fill-opacity="1" fill-rule="nonzero"/></g></svg>