<svg xmlns="http://www.w3.org/2000/svg" xmlns:xlink="http://www.w3.org/1999/xlink" width="40" zoomAndPan="magnify" viewBox="0 0 30 30.000001" height="40" preserveAspectRatio="xMidYMid meet" version="1.0"><defs><clipPath id="id1"><path d="M 0.484375 0 L 29.515625 0 L 29.515625 29.03125 L 0.484375 29.03125 Z M 0.484375 0 " clip-rule="nonzero"/></clipPath></defs><g clip-path="url(#id1)"><path fill="#e86a0d" d="M 15 29.03125 C 13.042969 29.03125 11.140625 28.648438 9.347656 27.890625 C 7.621094 27.160156 6.066406 26.113281 4.734375 24.78125 C 3.402344 23.449219 2.355469 21.894531 1.625 20.167969 C 0.867188 18.375 0.484375 16.476562 0.484375 14.515625 C 0.484375 12.558594 0.867188 10.65625 1.625 8.867188 C 2.355469 7.136719 3.402344 5.585938 4.734375 4.25 C 6.066406 2.917969 7.621094 1.871094 9.347656 1.140625 C 11.140625 0.382812 13.042969 0 15 0 C 16.957031 0 18.859375 0.382812 20.652344 1.140625 C 22.378906 1.871094 23.933594 2.917969 25.265625 4.25 C 26.597656 5.585938 27.644531 7.136719 28.375 8.867188 C 29.132812 10.65625 29.515625 12.558594 29.515625 14.515625 C 29.515625 16.476562 29.132812 18.375 28.375 20.167969 C 27.644531 21.894531 26.597656 23.449219 25.265625 24.78125 C 23.933594 26.113281 22.378906 27.160156 20.652344 27.890625 C 18.859375 28.648438 16.957031 29.03125 15 29.03125 Z M 15 29.03125 " fill-opacity="1" fill-rule="nonzero"/></g><path fill="#ca5312" d="M 16.003906 27.90625 C 15.65625 27.90625 15.304688 27.882812 14.964844 27.839844 C 14.699219 27.835938 14.492188 27.828125 14.300781 27.820312 C 14.070312 27.808594 13.835938 27.789062 13.609375 27.765625 L 13.589844 27.765625 L 13.570312 27.761719 C 13.300781 27.714844 12.996094 27.695312 12.617188 27.695312 C 12.410156 27.695312 12.207031 27.699219 11.992188 27.707031 C 11.777344 27.710938 11.558594 27.71875 11.335938 27.71875 L 11.320312 27.71875 C 10.328125 27.695312 9.410156 27.296875 8.734375 26.601562 L 8.730469 26.59375 L 8.726562 26.589844 C 8.257812 26.078125 7.882812 25.691406 7.453125 25.347656 C 7.320312 25.242188 7.140625 25.105469 6.960938 24.960938 C 6.210938 24.371094 5.484375 23.738281 4.78125 23.128906 C 4.550781 22.929688 4.3125 22.722656 4.082031 22.523438 L 4.050781 22.496094 L 4.023438 22.464844 C 3.882812 22.304688 3.746094 22.128906 3.617188 21.949219 C 2.808594 20.792969 2.203125 19.324219 1.871094 17.699219 C 1.558594 16.148438 1.515625 14.53125 1.753906 13.140625 C 1.78125 12.960938 1.828125 12.722656 1.902344 12.472656 C 1.945312 12.335938 1.984375 12.199219 2.027344 12.0625 C 3 8.792969 4.011719 5.414062 7.375 3.519531 C 7.535156 3.429688 7.699219 3.339844 7.867188 3.257812 C 8.515625 2.785156 9.171875 2.386719 9.804688 2.078125 C 9.980469 1.992188 10.15625 1.910156 10.328125 1.839844 C 10.488281 1.765625 10.664062 1.703125 10.847656 1.648438 C 11.023438 1.59375 11.199219 1.550781 11.359375 1.511719 C 11.613281 1.453125 11.875 1.382812 12.148438 1.3125 C 12.820312 1.132812 13.519531 0.945312 14.226562 0.871094 C 14.441406 0.847656 14.667969 0.835938 14.902344 0.835938 C 16.351562 0.835938 17.910156 1.289062 19.105469 1.683594 C 20.621094 2.179688 22.105469 3.066406 23.644531 4.390625 C 23.902344 4.613281 24.179688 4.832031 24.46875 5.058594 C 25.460938 5.835938 26.484375 6.640625 27.046875 7.867188 C 27.800781 9.503906 28.242188 11.585938 28.261719 13.578125 C 28.265625 13.808594 28.25 14.019531 28.222656 14.21875 C 28.207031 14.339844 28.191406 14.464844 28.171875 14.601562 C 28.140625 14.84375 28.101562 15.085938 28.066406 15.316406 C 27.921875 16.300781 27.785156 17.226562 27.785156 18.222656 C 27.785156 18.539062 27.765625 18.917969 27.621094 19.296875 C 27.558594 19.496094 27.488281 19.699219 27.414062 19.894531 C 26.917969 21.171875 26.160156 22.253906 25.167969 23.109375 C 25.105469 23.164062 25.039062 23.234375 24.96875 23.308594 C 24.917969 23.363281 24.863281 23.421875 24.800781 23.484375 L 24.785156 23.5 L 24.765625 23.515625 C 24.398438 23.824219 24.019531 24.074219 23.648438 24.316406 C 23.3125 24.535156 22.996094 24.742188 22.691406 24.988281 C 22.59375 25.074219 22.496094 25.160156 22.402344 25.242188 C 21.753906 25.808594 21.144531 26.34375 20.375 26.765625 L 20.367188 26.769531 C 20.183594 26.867188 19.996094 26.960938 19.8125 27.046875 C 18.574219 27.617188 17.292969 27.90625 16.003906 27.90625 Z M 16.003906 27.90625 " fill-opacity="1" fill-rule="nonzero"/><path fill="#f8ae28" d="M 27.582031 14.519531 C 27.40625 15.761719 27.1875 16.933594 27.1875 18.21875 C 27.1875 18.519531 27.167969 18.816406 27.054688 19.101562 C 26.996094 19.296875 26.929688 19.488281 26.855469 19.675781 C 26.414062 20.8125 25.730469 21.835938 24.769531 22.660156 C 24.636719 22.78125 24.519531 22.917969 24.378906 23.058594 C 23.722656 23.617188 22.984375 23.972656 22.308594 24.53125 C 21.570312 25.167969 20.914062 25.785156 20.085938 26.242188 C 19.914062 26.335938 19.738281 26.421875 19.5625 26.503906 C 18.144531 27.15625 16.578125 27.449219 15.007812 27.246094 C 14.777344 27.238281 14.554688 27.234375 14.332031 27.222656 C 14.109375 27.210938 13.890625 27.195312 13.671875 27.171875 C 12.890625 27.039062 12.113281 27.121094 11.335938 27.121094 C 10.519531 27.101562 9.742188 26.78125 9.167969 26.183594 C 8.730469 25.707031 8.308594 25.269531 7.828125 24.875 C 7.660156 24.75 7.496094 24.621094 7.332031 24.492188 C 6.347656 23.71875 5.414062 22.878906 4.472656 22.070312 C 4.339844 21.921875 4.21875 21.765625 4.109375 21.605469 C 2.523438 19.347656 1.886719 15.910156 2.34375 13.242188 C 2.375 13.042969 2.417969 12.84375 2.476562 12.644531 C 3.488281 9.269531 4.382812 5.890625 7.667969 4.039062 C 7.835938 3.945312 8.003906 3.855469 8.175781 3.769531 C 8.777344 3.328125 9.410156 2.933594 10.066406 2.613281 C 10.230469 2.53125 10.398438 2.457031 10.566406 2.386719 C 10.714844 2.320312 10.863281 2.265625 11.019531 2.21875 C 11.175781 2.171875 11.335938 2.132812 11.496094 2.09375 C 12.390625 1.882812 13.351562 1.566406 14.289062 1.464844 C 15.785156 1.304688 17.503906 1.785156 18.917969 2.25 C 20.527344 2.777344 21.976562 3.746094 23.253906 4.839844 C 24.40625 5.832031 25.847656 6.683594 26.503906 8.113281 C 27.261719 9.765625 27.648438 11.769531 27.664062 13.582031 C 27.664062 13.765625 27.65625 13.949219 27.632812 14.140625 C 27.617188 14.265625 27.597656 14.394531 27.582031 14.519531 Z M 27.582031 14.519531 " fill-opacity="1" fill-rule="nonzero"/><path fill="#f5da24" d="M 16.003906 26.710938 C 15.695312 26.710938 15.386719 26.691406 15.082031 26.652344 L 15.050781 26.648438 L 15.019531 26.648438 C 14.75 26.640625 14.546875 26.636719 14.363281 26.625 C 14.15625 26.617188 13.953125 26.601562 13.75 26.578125 C 13.414062 26.523438 13.054688 26.5 12.617188 26.5 C 12.394531 26.5 12.175781 26.503906 11.960938 26.511719 C 11.746094 26.515625 11.546875 26.523438 11.34375 26.523438 C 10.671875 26.503906 10.050781 26.238281 9.601562 25.777344 C 9.1875 25.324219 8.738281 24.847656 8.203125 24.414062 L 8.191406 24.402344 C 8.054688 24.300781 7.878906 24.164062 7.699219 24.023438 C 6.972656 23.449219 6.257812 22.828125 5.566406 22.226562 C 5.34375 22.035156 5.117188 21.835938 4.894531 21.644531 C 4.789062 21.523438 4.6875 21.398438 4.59375 21.261719 C 3.878906 20.242188 3.34375 18.925781 3.042969 17.460938 C 2.757812 16.050781 2.714844 14.589844 2.929688 13.34375 C 2.964844 13.125 3.003906 12.964844 3.046875 12.816406 C 3.085938 12.679688 3.128906 12.542969 3.167969 12.40625 C 4.121094 9.222656 5.015625 6.214844 7.960938 4.558594 C 8.117188 4.472656 8.277344 4.386719 8.441406 4.308594 L 8.488281 4.285156 L 8.527344 4.253906 C 9.136719 3.808594 9.742188 3.4375 10.328125 3.152344 C 10.484375 3.074219 10.644531 3.003906 10.796875 2.9375 L 10.804688 2.933594 L 10.8125 2.933594 C 10.929688 2.878906 11.054688 2.832031 11.191406 2.792969 L 11.195312 2.789062 C 11.335938 2.746094 11.492188 2.710938 11.636719 2.675781 C 11.90625 2.609375 12.183594 2.535156 12.453125 2.464844 C 13.082031 2.296875 13.734375 2.125 14.351562 2.058594 C 14.527344 2.039062 14.710938 2.03125 14.902344 2.03125 C 16.179688 2.03125 17.621094 2.453125 18.730469 2.816406 C 20.09375 3.265625 21.445312 4.078125 22.863281 5.296875 C 23.144531 5.539062 23.441406 5.773438 23.730469 6 C 24.652344 6.71875 25.519531 7.398438 25.960938 8.363281 C 26.648438 9.855469 27.050781 11.757812 27.066406 13.589844 C 27.066406 13.761719 27.058594 13.917969 27.039062 14.0625 L 27.039062 14.066406 C 27.023438 14.183594 27.007812 14.304688 26.988281 14.4375 C 26.957031 14.671875 26.921875 14.910156 26.886719 15.140625 C 26.738281 16.125 26.589844 17.140625 26.589844 18.222656 C 26.589844 18.445312 26.578125 18.683594 26.496094 18.882812 L 26.480469 18.929688 C 26.429688 19.105469 26.367188 19.285156 26.296875 19.460938 C 25.871094 20.558594 25.226562 21.480469 24.378906 22.207031 L 24.367188 22.21875 C 24.269531 22.308594 24.183594 22.398438 24.097656 22.488281 C 24.054688 22.535156 24.015625 22.578125 23.972656 22.621094 C 23.667969 22.875 23.34375 23.089844 22.996094 23.3125 C 22.644531 23.542969 22.28125 23.777344 21.925781 24.070312 L 21.921875 24.074219 L 21.917969 24.082031 C 21.816406 24.167969 21.714844 24.257812 21.613281 24.34375 C 21.019531 24.863281 20.457031 25.355469 19.800781 25.71875 C 19.636719 25.804688 19.472656 25.886719 19.308594 25.960938 C 18.230469 26.457031 17.117188 26.710938 16.003906 26.710938 Z M 16.003906 26.710938 " fill-opacity="1" fill-rule="nonzero"/><path fill="#f8ae28" d="M 15.167969 8.558594 C 15.214844 8.710938 15.355469 8.828125 15.507812 8.867188 C 15.636719 8.898438 15.769531 8.882812 15.867188 8.792969 C 16.417969 8.28125 14.992188 7.917969 15.167969 8.558594 Z M 15.167969 8.558594 " fill-opacity="1" fill-rule="nonzero"/><path fill="#f8ae28" d="M 22.398438 14.53125 C 22.441406 14.6875 22.582031 14.800781 22.738281 14.84375 C 22.863281 14.875 22.996094 14.855469 23.09375 14.765625 C 23.644531 14.253906 22.21875 13.890625 22.398438 14.53125 Z M 22.398438 14.53125 " fill-opacity="1" fill-rule="nonzero"/><path fill="#f8ae28" d="M 14.949219 19.6875 C 14.996094 19.84375 15.136719 19.960938 15.289062 20 C 15.414062 20.03125 15.550781 20.011719 15.648438 19.921875 C 16.199219 19.410156 14.773438 19.046875 14.949219 19.6875 Z M 14.949219 19.6875 " fill-opacity="1" fill-rule="nonzero"/><path fill="#f8ae28" d="M 13.855469 22.964844 C 13.867188 23.050781 13.878906 23.136719 13.925781 23.210938 C 13.96875 23.285156 14.054688 23.339844 14.136719 23.320312 C 14.25 23.292969 14.296875 23.148438 14.269531 23.035156 C 14.242188 22.921875 14.167969 22.824219 14.125 22.714844 C 14.066406 22.566406 14.109375 21.617188 13.871094 21.707031 C 13.585938 21.816406 13.832031 22.777344 13.855469 22.964844 Z M 13.855469 22.964844 " fill-opacity="1" fill-rule="nonzero"/><path fill="#f8ae28" d="M 20.78125 22.339844 C 20.839844 22.277344 20.902344 22.210938 20.929688 22.128906 C 20.957031 22.050781 20.945312 21.949219 20.875 21.898438 C 20.78125 21.824219 20.640625 21.882812 20.570312 21.976562 C 20.5 22.070312 20.472656 22.1875 20.417969 22.289062 C 20.339844 22.429688 19.582031 23.003906 19.804688 23.128906 C 20.070312 23.28125 20.652344 22.476562 20.78125 22.339844 Z M 20.78125 22.339844 " fill-opacity="1" fill-rule="nonzero"/><path fill="#f8ae28" d="M 9.578125 12.160156 C 9.746094 12.109375 9.835938 11.917969 9.84375 11.738281 C 9.871094 11.289062 9.058594 10.148438 8.585938 10.652344 C 8.195312 11.070312 9.117188 12.300781 9.578125 12.160156 Z M 9.578125 12.160156 " fill-opacity="1" fill-rule="nonzero"/><path fill="#f8ae28" d="M 3.882812 15.84375 C 4.050781 15.792969 4.140625 15.601562 4.152344 15.421875 C 4.175781 14.972656 3.363281 13.832031 2.890625 14.335938 C 2.503906 14.753906 3.421875 15.984375 3.882812 15.84375 Z M 3.882812 15.84375 " fill-opacity="1" fill-rule="nonzero"/><path fill="#f8ae28" d="M 17.046875 15.835938 C 16.996094 15.980469 16.992188 16.191406 17.140625 16.234375 C 17.28125 16.277344 17.394531 16.113281 17.445312 15.976562 C 17.515625 15.804688 17.785156 15.332031 17.519531 15.265625 C 17.273438 15.203125 17.097656 15.683594 17.046875 15.835938 Z M 17.046875 15.835938 " fill-opacity="1" fill-rule="nonzero"/><path fill="#f8ae28" d="M 11.769531 7.335938 C 11.71875 7.480469 11.714844 7.691406 11.863281 7.734375 C 12.007812 7.773438 12.117188 7.613281 12.171875 7.476562 C 12.238281 7.304688 12.507812 6.828125 12.242188 6.761719 C 11.996094 6.699219 11.824219 7.179688 11.769531 7.335938 Z M 11.769531 7.335938 " fill-opacity="1" fill-rule="nonzero"/><path fill="#f8ae28" d="M 4.976562 11.039062 C 4.925781 11.183594 4.925781 11.394531 5.074219 11.4375 C 5.214844 11.476562 5.324219 11.316406 5.378906 11.179688 C 5.445312 11.007812 5.71875 10.53125 5.453125 10.464844 C 5.203125 10.40625 5.03125 10.882812 4.976562 11.039062 Z M 4.976562 11.039062 " fill-opacity="1" fill-rule="nonzero"/><path fill="#f8ae28" d="M 17.363281 25.675781 C 17.3125 25.820312 17.3125 26.03125 17.460938 26.074219 C 17.601562 26.113281 17.710938 25.949219 17.765625 25.8125 C 17.832031 25.640625 18.105469 25.167969 17.839844 25.101562 C 17.589844 25.039062 17.417969 25.519531 17.363281 25.675781 Z M 17.363281 25.675781 " fill-opacity="1" fill-rule="nonzero"/><path fill="#f8ae28" d="M 7.167969 17.339844 C 7.261719 17.292969 7.367188 17.242188 7.441406 17.171875 C 7.253906 17.160156 7.070312 17.214844 6.886719 17.226562 C 6.773438 17.234375 6.65625 17.25 6.550781 17.289062 C 6.507812 17.304688 6.285156 17.488281 6.277344 17.488281 C 6.578125 17.546875 6.890625 17.476562 7.167969 17.339844 Z M 7.167969 17.339844 " fill-opacity="1" fill-rule="nonzero"/><path fill="#f8ae28" d="M 20.53125 9.542969 C 20.714844 9.667969 20.988281 9.527344 21.078125 9.324219 C 21.214844 9.023438 21.1875 8.058594 20.660156 8.339844 C 20.324219 8.515625 20.203125 9.316406 20.53125 9.542969 Z M 20.53125 9.542969 " fill-opacity="1" fill-rule="nonzero"/><path fill="#f8ae28" d="M 24.753906 21.488281 C 24.9375 21.617188 25.207031 21.476562 25.300781 21.273438 C 25.433594 20.972656 25.410156 20.003906 24.882812 20.285156 C 24.546875 20.464844 24.421875 21.261719 24.753906 21.488281 Z M 24.753906 21.488281 " fill-opacity="1" fill-rule="nonzero"/><path fill="#f8ae28" d="M 12.351562 16.191406 C 12.445312 16.320312 12.582031 16.179688 12.628906 15.976562 C 12.695312 15.675781 12.683594 14.707031 12.414062 14.988281 C 12.246094 15.167969 12.183594 15.964844 12.351562 16.191406 Z M 12.351562 16.191406 " fill-opacity="1" fill-rule="nonzero"/><path fill="#f8ae28" d="M 16.753906 4.242188 C 17.058594 4.585938 17.683594 4.378906 17.90625 3.972656 C 18.933594 2.082031 15.820312 3.195312 16.753906 4.242188 Z M 16.753906 4.242188 " fill-opacity="1" fill-rule="nonzero"/><path fill="#f8ae28" d="M 7.515625 22.023438 C 7.5625 22.175781 7.566406 22.34375 7.613281 22.496094 C 7.667969 22.6875 7.800781 22.871094 7.996094 22.921875 C 8.1875 22.972656 8.425781 22.839844 8.433594 22.640625 C 8.449219 22.367188 8.082031 22.21875 8.019531 21.953125 C 7.992188 21.832031 8.027344 21.691406 7.957031 21.585938 C 7.871094 21.457031 7.671875 21.460938 7.558594 21.351562 C 7.441406 21.242188 7.132812 20.683594 7.03125 21.199219 C 6.976562 21.46875 7.433594 21.757812 7.515625 22.023438 Z M 7.515625 22.023438 " fill-opacity="1" fill-rule="nonzero"/><path fill="#f8ae28" d="M 25.527344 11.234375 C 25.601562 11.070312 25.875 9.6875 25.578125 9.71875 C 25.101562 9.765625 25.480469 10.96875 25.527344 11.234375 Z M 25.527344 11.234375 " fill-opacity="1" fill-rule="nonzero"/><path fill="#f8ae28" d="M 20.96875 18.730469 C 20.964844 18.808594 20.960938 18.886719 20.992188 18.957031 C 21.0625 19.125 21.3125 19.160156 21.464844 19.050781 C 21.613281 18.945312 21.679688 18.75 21.691406 18.566406 C 21.703125 18.382812 21.671875 18.199219 21.6875 18.011719 C 21.699219 17.808594 22.308594 15.476562 21.339844 16.199219 C 20.855469 16.554688 21 18.234375 20.96875 18.730469 Z M 20.96875 18.730469 " fill-opacity="1" fill-rule="nonzero"/><path fill="#f8ae28" d="M 7.96875 6.308594 C 7.964844 6.449219 8.027344 6.640625 8.164062 6.613281 C 8.25 6.59375 8.285156 6.492188 8.300781 6.40625 C 8.460938 5.652344 8.632812 4.746094 8.503906 3.984375 C 7.992188 4.195312 7.984375 5.800781 7.96875 6.308594 Z M 7.96875 6.308594 " fill-opacity="1" fill-rule="nonzero"/><path fill="#f8ae28" d="M 11.265625 25.640625 C 11.164062 25.617188 11.054688 25.605469 10.953125 25.578125 C 10.824219 25.546875 10.710938 25.5 10.636719 25.398438 C 10.515625 25.226562 10.585938 24.992188 10.632812 24.785156 C 10.683594 24.582031 10.683594 24.316406 10.496094 24.21875 C 9.878906 23.886719 9.796875 24.761719 9.921875 25.105469 C 10.089844 25.566406 10.667969 26.316406 11.199219 26.351562 C 11.457031 26.371094 11.722656 26.101562 11.617188 25.867188 C 11.554688 25.726562 11.417969 25.675781 11.265625 25.640625 Z M 11.265625 25.640625 " fill-opacity="1" fill-rule="nonzero"/><path fill="#f8ae28" d="M 12.757812 3.835938 C 12.65625 3.8125 12.546875 3.800781 12.445312 3.773438 C 12.320312 3.742188 12.203125 3.695312 12.132812 3.59375 C 12.011719 3.421875 12.078125 3.1875 12.128906 2.984375 C 12.175781 2.777344 12.175781 2.515625 11.992188 2.414062 C 11.371094 2.082031 11.289062 2.957031 11.414062 3.300781 C 11.582031 3.761719 12.160156 4.511719 12.691406 4.546875 C 12.949219 4.566406 13.214844 4.296875 13.109375 4.0625 C 13.046875 3.921875 12.914062 3.871094 12.757812 3.835938 Z M 12.757812 3.835938 " fill-opacity="1" fill-rule="nonzero"/><path fill="#f8ae28" d="M 12.671875 7.804688 C 12.671875 8.195312 12.597656 8.570312 12.449219 8.929688 C 12.300781 9.289062 12.085938 9.609375 11.8125 9.882812 C 11.535156 10.160156 11.21875 10.371094 10.859375 10.519531 C 10.496094 10.667969 10.121094 10.746094 9.734375 10.746094 C 9.34375 10.746094 8.96875 10.667969 8.609375 10.519531 C 8.246094 10.371094 7.929688 10.160156 7.652344 9.882812 C 7.378906 9.609375 7.167969 9.289062 7.015625 8.929688 C 6.867188 8.570312 6.792969 8.195312 6.792969 7.804688 C 6.792969 7.414062 6.867188 7.039062 7.015625 6.679688 C 7.167969 6.320312 7.378906 6 7.652344 5.726562 C 7.929688 5.449219 8.246094 5.238281 8.609375 5.089844 C 8.96875 4.941406 9.34375 4.863281 9.734375 4.863281 C 10.121094 4.863281 10.496094 4.941406 10.859375 5.089844 C 11.21875 5.238281 11.535156 5.449219 11.8125 5.726562 C 12.085938 6 12.300781 6.320312 12.449219 6.679688 C 12.597656 7.039062 12.671875 7.414062 12.671875 7.804688 Z M 12.671875 7.804688 " fill-opacity="1" fill-rule="nonzero"/><path fill="#a82640" d="M 12.738281 7.660156 C 12.738281 8.039062 12.667969 8.40625 12.519531 8.753906 C 12.375 9.105469 12.167969 9.414062 11.902344 9.683594 C 11.632812 9.953125 11.324219 10.160156 10.972656 10.304688 C 10.621094 10.449219 10.257812 10.523438 9.878906 10.523438 C 9.496094 10.523438 9.132812 10.449219 8.78125 10.304688 C 8.429688 10.160156 8.121094 9.953125 7.851562 9.683594 C 7.585938 9.414062 7.378906 9.105469 7.234375 8.753906 C 7.085938 8.40625 7.015625 8.039062 7.015625 7.660156 C 7.015625 7.28125 7.085938 6.914062 7.234375 6.566406 C 7.378906 6.214844 7.585938 5.90625 7.851562 5.636719 C 8.121094 5.367188 8.429688 5.160156 8.78125 5.015625 C 9.132812 4.871094 9.496094 4.796875 9.878906 4.796875 C 10.257812 4.796875 10.621094 4.871094 10.972656 5.015625 C 11.324219 5.160156 11.632812 5.367188 11.902344 5.636719 C 12.167969 5.90625 12.375 6.214844 12.519531 6.566406 C 12.667969 6.914062 12.738281 7.28125 12.738281 7.660156 Z M 12.738281 7.660156 " fill-opacity="1" fill-rule="nonzero"/><path fill="#961c36" d="M 10.210938 10.167969 C 8.628906 10.167969 7.347656 8.886719 7.347656 7.304688 C 7.347656 6.636719 7.578125 6.019531 7.960938 5.53125 C 7.382812 6.058594 7.015625 6.816406 7.015625 7.660156 C 7.015625 9.242188 8.296875 10.523438 9.878906 10.523438 C 10.789062 10.523438 11.601562 10.097656 12.125 9.433594 C 11.617188 9.890625 10.945312 10.167969 10.210938 10.167969 Z M 10.210938 10.167969 " fill-opacity="1" fill-rule="nonzero"/><path fill="#961c36" d="M 9.964844 5.652344 C 9.964844 5.734375 9.925781 5.773438 9.84375 5.773438 C 9.761719 5.773438 9.722656 5.734375 9.722656 5.652344 C 9.722656 5.570312 9.761719 5.53125 9.84375 5.53125 C 9.925781 5.53125 9.964844 5.570312 9.964844 5.652344 Z M 9.964844 5.652344 " fill-opacity="1" fill-rule="nonzero"/><path fill="#961c36" d="M 8.191406 7.070312 C 8.191406 7.152344 8.148438 7.195312 8.070312 7.195312 C 7.988281 7.195312 7.945312 7.152344 7.945312 7.070312 C 7.945312 6.992188 7.988281 6.949219 8.070312 6.949219 C 8.148438 6.949219 8.191406 6.992188 8.191406 7.070312 Z M 8.191406 7.070312 " fill-opacity="1" fill-rule="nonzero"/><path fill="#961c36" d="M 8.921875 8.613281 C 8.921875 8.703125 8.894531 8.746094 8.835938 8.746094 C 8.773438 8.746094 8.746094 8.703125 8.746094 8.613281 C 8.746094 8.527344 8.773438 8.480469 8.835938 8.480469 C 8.894531 8.480469 8.921875 8.527344 8.921875 8.613281 Z M 8.921875 8.613281 " fill-opacity="1" fill-rule="nonzero"/><path fill="#961c36" d="M 9.210938 9.480469 C 9.210938 9.570312 9.183594 9.613281 9.121094 9.613281 C 9.0625 9.613281 9.035156 9.570312 9.035156 9.480469 C 9.035156 9.390625 9.0625 9.347656 9.121094 9.347656 C 9.183594 9.347656 9.210938 9.390625 9.210938 9.480469 Z M 9.210938 9.480469 " fill-opacity="1" fill-rule="nonzero"/><path fill="#961c36" d="M 11.386719 9.046875 C 11.386719 9.097656 11.359375 9.125 11.308594 9.125 C 11.257812 9.125 11.230469 9.097656 11.230469 9.046875 C 11.230469 8.996094 11.257812 8.96875 11.308594 8.96875 C 11.359375 8.96875 11.386719 8.996094 11.386719 9.046875 Z M 11.386719 9.046875 " fill-opacity="1" fill-rule="nonzero"/><path fill="#961c36" d="M 10.941406 7.539062 C 10.941406 7.589844 10.917969 7.617188 10.863281 7.617188 C 10.8125 7.617188 10.785156 7.589844 10.785156 7.539062 C 10.785156 7.488281 10.8125 7.460938 10.863281 7.460938 C 10.917969 7.460938 10.941406 7.488281 10.941406 7.539062 Z M 10.941406 7.539062 " fill-opacity="1" fill-rule="nonzero"/><path fill="#961c36" d="M 7.945312 8.226562 C 7.945312 8.277344 7.921875 8.304688 7.867188 8.304688 C 7.816406 8.304688 7.792969 8.277344 7.792969 8.226562 C 7.792969 8.175781 7.816406 8.148438 7.867188 8.148438 C 7.921875 8.148438 7.945312 8.175781 7.945312 8.226562 Z M 7.945312 8.226562 " fill-opacity="1" fill-rule="nonzero"/><path fill="#961c36" d="M 9.679688 7.359375 C 9.679688 7.425781 9.644531 7.460938 9.578125 7.460938 C 9.511719 7.460938 9.476562 7.425781 9.476562 7.359375 C 9.476562 7.292969 9.511719 7.261719 9.578125 7.261719 C 9.644531 7.261719 9.679688 7.292969 9.679688 7.359375 Z M 9.679688 7.359375 " fill-opacity="1" fill-rule="nonzero"/><path fill="#961c36" d="M 11.984375 6.550781 C 11.984375 6.625 11.949219 6.660156 11.875 6.660156 C 11.800781 6.660156 11.761719 6.625 11.761719 6.550781 C 11.761719 6.476562 11.800781 6.441406 11.875 6.441406 C 11.949219 6.441406 11.984375 6.476562 11.984375 6.550781 Z M 11.984375 6.550781 " fill-opacity="1" fill-rule="nonzero"/><path fill="#961c36" d="M 11.320312 5.652344 C 11.320312 5.734375 11.277344 5.773438 11.199219 5.773438 C 11.117188 5.773438 11.074219 5.734375 11.074219 5.652344 C 11.074219 5.570312 11.117188 5.53125 11.199219 5.53125 C 11.277344 5.53125 11.320312 5.570312 11.320312 5.652344 Z M 11.320312 5.652344 " fill-opacity="1" fill-rule="nonzero"/><path fill="#961c36" d="M 12.050781 8.171875 C 12.050781 8.257812 12.023438 8.304688 11.964844 8.304688 C 11.902344 8.304688 11.875 8.257812 11.875 8.171875 C 11.875 8.082031 11.902344 8.039062 11.964844 8.039062 C 12.023438 8.039062 12.050781 8.082031 12.050781 8.171875 Z M 12.050781 8.171875 " fill-opacity="1" fill-rule="nonzero"/><path fill="#961c36" d="M 10.03125 9.691406 C 10.03125 9.742188 10.007812 9.769531 9.953125 9.769531 C 9.902344 9.769531 9.878906 9.742188 9.878906 9.691406 C 9.878906 9.640625 9.902344 9.613281 9.953125 9.613281 C 10.007812 9.613281 10.03125 9.640625 10.03125 9.691406 Z M 10.03125 9.691406 " fill-opacity="1" fill-rule="nonzero"/><path fill="#961c36" d="M 8.5 5.6875 C 8.5 5.746094 8.472656 5.773438 8.414062 5.773438 C 8.355469 5.773438 8.324219 5.746094 8.324219 5.6875 C 8.324219 5.625 8.355469 5.597656 8.414062 5.597656 C 8.472656 5.597656 8.5 5.625 8.5 5.6875 Z M 8.5 5.6875 " fill-opacity="1" fill-rule="nonzero"/><path fill="#e78994" d="M 8.972656 6.09375 C 9.027344 6.136719 9.050781 6.199219 9.042969 6.285156 C 9.039062 6.375 9.003906 6.460938 8.941406 6.542969 C 8.878906 6.625 8.804688 6.683594 8.722656 6.710938 C 8.640625 6.742188 8.574219 6.738281 8.519531 6.695312 C 8.464844 6.65625 8.441406 6.589844 8.449219 6.503906 C 8.453125 6.417969 8.488281 6.332031 8.550781 6.25 C 8.613281 6.164062 8.6875 6.109375 8.769531 6.078125 C 8.851562 6.046875 8.917969 6.054688 8.972656 6.09375 Z M 8.972656 6.09375 " fill-opacity="1" fill-rule="nonzero"/><path fill="#e78994" d="M 11.613281 7.492188 C 11.667969 7.53125 11.691406 7.597656 11.683594 7.683594 C 11.679688 7.773438 11.644531 7.855469 11.582031 7.941406 C 11.519531 8.023438 11.445312 8.078125 11.363281 8.109375 C 11.28125 8.140625 11.210938 8.132812 11.160156 8.09375 C 11.105469 8.054688 11.082031 7.988281 11.085938 7.902344 C 11.09375 7.8125 11.128906 7.730469 11.191406 7.644531 C 11.253906 7.5625 11.328125 7.507812 11.410156 7.476562 C 11.492188 7.445312 11.558594 7.453125 11.613281 7.492188 Z M 11.613281 7.492188 " fill-opacity="1" fill-rule="nonzero"/><path fill="#e78994" d="M 10.195312 8.644531 C 10.246094 8.6875 10.269531 8.75 10.265625 8.839844 C 10.257812 8.925781 10.222656 9.011719 10.160156 9.09375 C 10.097656 9.175781 10.027344 9.234375 9.941406 9.261719 C 9.859375 9.292969 9.792969 9.289062 9.738281 9.246094 C 9.683594 9.207031 9.660156 9.144531 9.667969 9.054688 C 9.675781 8.96875 9.707031 8.882812 9.769531 8.800781 C 9.835938 8.714844 9.90625 8.660156 9.988281 8.628906 C 10.070312 8.601562 10.140625 8.605469 10.195312 8.644531 Z M 10.195312 8.644531 " fill-opacity="1" fill-rule="nonzero"/><path fill="#e78994" d="M 8.730469 7.691406 C 8.78125 7.734375 8.804688 7.796875 8.800781 7.882812 C 8.792969 7.972656 8.757812 8.058594 8.695312 8.140625 C 8.632812 8.222656 8.5625 8.28125 8.480469 8.308594 C 8.394531 8.339844 8.328125 8.335938 8.273438 8.292969 C 8.21875 8.253906 8.195312 8.1875 8.203125 8.101562 C 8.210938 8.015625 8.246094 7.929688 8.308594 7.847656 C 8.371094 7.761719 8.441406 7.707031 8.523438 7.675781 C 8.605469 7.644531 8.675781 7.652344 8.730469 7.691406 Z M 8.730469 7.691406 " fill-opacity="1" fill-rule="nonzero"/><path fill="#e78994" d="M 10.96875 5.984375 C 11.023438 6.023438 11.046875 6.089844 11.042969 6.175781 C 11.035156 6.261719 11 6.347656 10.9375 6.433594 C 10.875 6.515625 10.800781 6.570312 10.71875 6.601562 C 10.636719 6.632812 10.570312 6.625 10.515625 6.585938 C 10.460938 6.542969 10.4375 6.480469 10.445312 6.394531 C 10.449219 6.304688 10.484375 6.21875 10.546875 6.136719 C 10.609375 6.054688 10.683594 5.996094 10.765625 5.96875 C 10.847656 5.9375 10.917969 5.941406 10.96875 5.984375 Z M 10.96875 5.984375 " fill-opacity="1" fill-rule="nonzero"/><path fill="#f8ae28" d="M 19.917969 10.699219 C 18.972656 10.699219 18.082031 10.234375 17.539062 9.449219 C 16.628906 8.128906 16.953125 6.308594 18.261719 5.386719 C 18.75 5.046875 19.320312 4.863281 19.914062 4.863281 C 20.863281 4.863281 21.753906 5.332031 22.292969 6.117188 C 23.207031 7.4375 22.882812 9.257812 21.570312 10.175781 C 21.082031 10.519531 20.511719 10.699219 19.917969 10.699219 Z M 19.917969 10.699219 " fill-opacity="1" fill-rule="nonzero"/><path fill="#a82640" d="M 20.507812 4.78125 C 20.886719 4.835938 21.234375 4.957031 21.5625 5.152344 C 21.890625 5.34375 22.167969 5.59375 22.394531 5.898438 C 22.621094 6.199219 22.78125 6.535156 22.878906 6.90625 C 22.972656 7.273438 22.992188 7.644531 22.9375 8.019531 C 22.882812 8.394531 22.761719 8.746094 22.566406 9.074219 C 22.375 9.398438 22.125 9.675781 21.824219 9.90625 C 21.519531 10.132812 21.183594 10.292969 20.816406 10.386719 C 20.449219 10.480469 20.078125 10.503906 19.699219 10.449219 C 19.324219 10.394531 18.972656 10.269531 18.648438 10.078125 C 18.320312 9.882812 18.042969 9.636719 17.816406 9.332031 C 17.585938 9.027344 17.425781 8.695312 17.332031 8.324219 C 17.238281 7.957031 17.21875 7.585938 17.273438 7.210938 C 17.324219 6.835938 17.449219 6.484375 17.640625 6.15625 C 17.835938 5.832031 18.082031 5.554688 18.386719 5.324219 C 18.691406 5.097656 19.027344 4.9375 19.394531 4.84375 C 19.761719 4.75 20.132812 4.726562 20.507812 4.78125 Z M 20.507812 4.78125 " fill-opacity="1" fill-rule="nonzero"/><path fill="#961c36" d="M 21.8125 9.484375 C 20.515625 10.386719 18.730469 10.066406 17.828125 8.769531 C 17.445312 8.21875 17.28125 7.582031 17.320312 6.964844 C 17.140625 7.726562 17.273438 8.558594 17.757812 9.25 C 18.660156 10.546875 20.445312 10.867188 21.742188 9.964844 C 22.488281 9.445312 22.910156 8.632812 22.964844 7.785156 C 22.808594 8.453125 22.414062 9.0625 21.8125 9.484375 Z M 21.8125 9.484375 " fill-opacity="1" fill-rule="nonzero"/><path fill="#961c36" d="M 19.03125 5.917969 C 19.070312 5.972656 19.054688 6.046875 19 6.085938 C 18.945312 6.125 18.871094 6.113281 18.832031 6.054688 C 18.792969 6 18.804688 5.925781 18.863281 5.886719 C 18.917969 5.847656 18.992188 5.863281 19.03125 5.917969 Z M 19.03125 5.917969 " fill-opacity="1" fill-rule="nonzero"/><path fill="#961c36" d="M 18.386719 8.097656 C 18.425781 8.152344 18.410156 8.226562 18.355469 8.265625 C 18.300781 8.304688 18.222656 8.292969 18.1875 8.238281 C 18.148438 8.179688 18.160156 8.105469 18.214844 8.066406 C 18.269531 8.027344 18.347656 8.042969 18.386719 8.097656 Z M 18.386719 8.097656 " fill-opacity="1" fill-rule="nonzero"/><path fill="#961c36" d="M 19.867188 8.945312 C 19.910156 9.003906 19.910156 9.074219 19.871094 9.105469 C 19.832031 9.132812 19.765625 9.105469 19.722656 9.046875 C 19.679688 8.984375 19.679688 8.914062 19.71875 8.886719 C 19.757812 8.859375 19.824219 8.882812 19.867188 8.945312 Z M 19.867188 8.945312 " fill-opacity="1" fill-rule="nonzero"/><path fill="#961c36" d="M 20.597656 9.488281 C 20.640625 9.550781 20.640625 9.621094 20.601562 9.648438 C 20.5625 9.675781 20.496094 9.652344 20.453125 9.589844 C 20.410156 9.53125 20.410156 9.460938 20.449219 9.429688 C 20.488281 9.402344 20.554688 9.429688 20.597656 9.488281 Z M 20.597656 9.488281 " fill-opacity="1" fill-rule="nonzero"/><path fill="#961c36" d="M 22.007812 7.980469 C 22.03125 8.015625 22.082031 8.023438 22.117188 8 C 22.152344 7.976562 22.160156 7.925781 22.136719 7.890625 C 22.113281 7.855469 22.0625 7.847656 22.027344 7.871094 C 21.992188 7.898438 21.984375 7.945312 22.007812 7.980469 Z M 22.007812 7.980469 " fill-opacity="1" fill-rule="nonzero"/><path fill="#961c36" d="M 20.78125 6.996094 C 20.808594 7.03125 20.855469 7.039062 20.890625 7.015625 C 20.925781 6.992188 20.933594 6.941406 20.910156 6.90625 C 20.886719 6.871094 20.835938 6.863281 20.800781 6.886719 C 20.765625 6.914062 20.757812 6.960938 20.78125 6.996094 Z M 20.78125 6.996094 " fill-opacity="1" fill-rule="nonzero"/><path fill="#961c36" d="M 18.71875 9.273438 C 18.742188 9.308594 18.789062 9.316406 18.824219 9.292969 C 18.859375 9.265625 18.867188 9.21875 18.84375 9.183594 C 18.820312 9.148438 18.773438 9.140625 18.734375 9.164062 C 18.703125 9.1875 18.691406 9.238281 18.71875 9.273438 Z M 18.71875 9.273438 " fill-opacity="1" fill-rule="nonzero"/><path fill="#961c36" d="M 19.769531 7.484375 C 19.800781 7.53125 19.792969 7.589844 19.746094 7.625 C 19.699219 7.652344 19.636719 7.644531 19.605469 7.597656 C 19.574219 7.554688 19.585938 7.492188 19.632812 7.460938 C 19.675781 7.429688 19.738281 7.4375 19.769531 7.484375 Z M 19.769531 7.484375 " fill-opacity="1" fill-rule="nonzero"/><path fill="#961c36" d="M 21.203125 5.5 C 21.238281 5.550781 21.222656 5.621094 21.175781 5.65625 C 21.125 5.691406 21.054688 5.679688 21.019531 5.628906 C 20.984375 5.578125 20.996094 5.507812 21.046875 5.472656 C 21.097656 5.4375 21.167969 5.453125 21.203125 5.5 Z M 21.203125 5.5 " fill-opacity="1" fill-rule="nonzero"/><path fill="#961c36" d="M 20.144531 5.144531 C 20.179688 5.199219 20.167969 5.273438 20.113281 5.3125 C 20.058594 5.351562 19.980469 5.339844 19.941406 5.285156 C 19.902344 5.230469 19.917969 5.152344 19.972656 5.113281 C 20.027344 5.074219 20.105469 5.089844 20.144531 5.144531 Z M 20.144531 5.144531 " fill-opacity="1" fill-rule="nonzero"/><path fill="#961c36" d="M 22.183594 6.792969 C 22.222656 6.851562 22.226562 6.925781 22.183594 6.953125 C 22.144531 6.980469 22.078125 6.953125 22.035156 6.894531 C 21.992188 6.832031 21.992188 6.761719 22.03125 6.734375 C 22.074219 6.707031 22.140625 6.734375 22.183594 6.792969 Z M 22.183594 6.792969 " fill-opacity="1" fill-rule="nonzero"/><path fill="#961c36" d="M 21.394531 9.195312 C 21.417969 9.230469 21.410156 9.277344 21.375 9.300781 C 21.339844 9.328125 21.289062 9.316406 21.265625 9.28125 C 21.242188 9.246094 21.25 9.199219 21.285156 9.175781 C 21.320312 9.148438 21.367188 9.160156 21.394531 9.195312 Z M 21.394531 9.195312 " fill-opacity="1" fill-rule="nonzero"/><path fill="#961c36" d="M 17.847656 6.78125 C 17.875 6.820312 17.867188 6.875 17.824219 6.90625 C 17.785156 6.933594 17.730469 6.921875 17.703125 6.882812 C 17.675781 6.84375 17.683594 6.785156 17.726562 6.757812 C 17.765625 6.730469 17.820312 6.742188 17.847656 6.78125 Z M 17.847656 6.78125 " fill-opacity="1" fill-rule="nonzero"/><path fill="#e78994" d="M 18.46875 6.847656 C 18.539062 6.851562 18.59375 6.890625 18.636719 6.964844 C 18.683594 7.039062 18.703125 7.128906 18.699219 7.234375 C 18.695312 7.339844 18.667969 7.425781 18.617188 7.5 C 18.566406 7.570312 18.507812 7.605469 18.441406 7.601562 C 18.371094 7.597656 18.316406 7.558594 18.273438 7.484375 C 18.226562 7.410156 18.207031 7.320312 18.210938 7.214844 C 18.214844 7.109375 18.242188 7.023438 18.292969 6.953125 C 18.34375 6.878906 18.402344 6.84375 18.46875 6.847656 Z M 18.46875 6.847656 " fill-opacity="1" fill-rule="nonzero"/><path fill="#e78994" d="M 21.433594 6.488281 C 21.503906 6.488281 21.558594 6.527344 21.605469 6.605469 C 21.648438 6.679688 21.667969 6.769531 21.664062 6.875 C 21.660156 6.976562 21.632812 7.066406 21.582031 7.136719 C 21.53125 7.207031 21.472656 7.242188 21.40625 7.242188 C 21.339844 7.238281 21.28125 7.199219 21.238281 7.125 C 21.191406 7.046875 21.171875 6.957031 21.175781 6.855469 C 21.179688 6.75 21.207031 6.664062 21.257812 6.589844 C 21.308594 6.519531 21.367188 6.484375 21.433594 6.488281 Z M 21.433594 6.488281 " fill-opacity="1" fill-rule="nonzero"/><path fill="#e78994" d="M 20.671875 8.613281 C 20.660156 8.820312 20.765625 8.992188 20.898438 9 C 21.035156 9.003906 21.148438 8.839844 21.15625 8.632812 C 21.167969 8.421875 21.0625 8.25 20.929688 8.246094 C 20.792969 8.238281 20.679688 8.402344 20.671875 8.613281 Z M 20.671875 8.613281 " fill-opacity="1" fill-rule="nonzero"/><path fill="#e78994" d="M 19.183594 8.300781 C 19.25 8.300781 19.304688 8.339844 19.351562 8.417969 C 19.394531 8.492188 19.414062 8.582031 19.410156 8.683594 C 19.40625 8.789062 19.378906 8.878906 19.328125 8.949219 C 19.277344 9.019531 19.21875 9.054688 19.152344 9.050781 C 19.085938 9.050781 19.027344 9.011719 18.984375 8.933594 C 18.9375 8.859375 18.917969 8.769531 18.921875 8.664062 C 18.925781 8.5625 18.953125 8.472656 19.003906 8.402344 C 19.054688 8.332031 19.113281 8.296875 19.183594 8.300781 Z M 19.183594 8.300781 " fill-opacity="1" fill-rule="nonzero"/><path fill="#e78994" d="M 20.046875 5.617188 C 20.113281 5.621094 20.167969 5.660156 20.214844 5.734375 C 20.257812 5.808594 20.277344 5.898438 20.273438 6.003906 C 20.269531 6.105469 20.242188 6.195312 20.191406 6.265625 C 20.140625 6.339844 20.082031 6.371094 20.015625 6.371094 C 19.949219 6.367188 19.894531 6.328125 19.847656 6.253906 C 19.804688 6.175781 19.78125 6.085938 19.785156 5.984375 C 19.792969 5.878906 19.820312 5.792969 19.867188 5.71875 C 19.917969 5.648438 19.976562 5.613281 20.046875 5.617188 Z M 20.046875 5.617188 " fill-opacity="1" fill-rule="nonzero"/><path fill="#f8ae28" d="M 15.554688 25.65625 C 14.863281 25.65625 14.1875 25.421875 13.65625 25.003906 C 13.046875 24.523438 12.667969 23.84375 12.597656 23.09375 C 12.523438 22.347656 12.761719 21.613281 13.269531 21.035156 C 13.835938 20.390625 14.671875 20.019531 15.558594 20.019531 C 16.25 20.019531 16.925781 20.25 17.457031 20.671875 C 18.066406 21.152344 18.445312 21.828125 18.519531 22.578125 C 18.589844 23.328125 18.351562 24.058594 17.84375 24.636719 C 17.277344 25.285156 16.441406 25.65625 15.554688 25.65625 Z M 15.554688 25.65625 " fill-opacity="1" fill-rule="nonzero"/><path fill="#a82640" d="M 17.691406 20.546875 C 17.960938 20.816406 18.167969 21.125 18.3125 21.476562 C 18.457031 21.824219 18.53125 22.191406 18.53125 22.570312 C 18.53125 22.949219 18.457031 23.316406 18.3125 23.664062 C 18.167969 24.015625 17.960938 24.324219 17.691406 24.59375 C 17.421875 24.863281 17.113281 25.070312 16.761719 25.214844 C 16.414062 25.359375 16.046875 25.433594 15.667969 25.433594 C 15.289062 25.433594 14.921875 25.359375 14.574219 25.214844 C 14.222656 25.070312 13.914062 24.863281 13.644531 24.59375 C 13.375 24.324219 13.167969 24.015625 13.023438 23.664062 C 12.878906 23.316406 12.804688 22.949219 12.804688 22.570312 C 12.804688 22.191406 12.878906 21.824219 13.023438 21.476562 C 13.167969 21.125 13.375 20.816406 13.644531 20.546875 C 13.914062 20.277344 14.222656 20.070312 14.574219 19.925781 C 14.921875 19.78125 15.289062 19.707031 15.667969 19.707031 C 16.046875 19.707031 16.414062 19.78125 16.761719 19.925781 C 17.113281 20.070312 17.421875 20.277344 17.691406 20.546875 Z M 17.691406 20.546875 " fill-opacity="1" fill-rule="nonzero"/><path fill="#961c36" d="M 17.808594 23.917969 C 16.796875 25.132812 14.992188 25.300781 13.777344 24.289062 C 13.265625 23.859375 12.9375 23.289062 12.808594 22.683594 C 12.839844 23.464844 13.1875 24.230469 13.839844 24.769531 C 15.054688 25.78125 16.859375 25.617188 17.867188 24.398438 C 18.453125 23.699219 18.644531 22.800781 18.46875 21.976562 C 18.496094 22.65625 18.28125 23.351562 17.808594 23.917969 Z M 17.808594 23.917969 " fill-opacity="1" fill-rule="nonzero"/><path fill="#961c36" d="M 14.164062 21.207031 C 14.234375 21.25 14.25 21.304688 14.207031 21.375 C 14.164062 21.445312 14.109375 21.457031 14.039062 21.414062 C 13.96875 21.375 13.957031 21.320312 13.996094 21.25 C 14.039062 21.179688 14.09375 21.164062 14.164062 21.207031 Z M 14.164062 21.207031 " fill-opacity="1" fill-rule="nonzero"/><path fill="#961c36" d="M 14.136719 23.492188 C 14.191406 23.535156 14.195312 23.613281 14.152344 23.664062 C 14.109375 23.714844 14.035156 23.722656 13.980469 23.679688 C 13.929688 23.636719 13.921875 23.558594 13.964844 23.507812 C 14.007812 23.457031 14.085938 23.449219 14.136719 23.492188 Z M 14.136719 23.492188 " fill-opacity="1" fill-rule="nonzero"/><path fill="#961c36" d="M 15.792969 23.914062 C 15.859375 23.96875 15.875 24.019531 15.839844 24.066406 C 15.800781 24.113281 15.746094 24.105469 15.679688 24.050781 C 15.609375 23.992188 15.59375 23.941406 15.632812 23.894531 C 15.671875 23.851562 15.722656 23.855469 15.792969 23.914062 Z M 15.792969 23.914062 " fill-opacity="1" fill-rule="nonzero"/><path fill="#961c36" d="M 16.640625 24.246094 C 16.699219 24.292969 16.71875 24.359375 16.6875 24.398438 C 16.65625 24.4375 16.585938 24.429688 16.527344 24.382812 C 16.472656 24.335938 16.449219 24.265625 16.480469 24.230469 C 16.515625 24.191406 16.585938 24.199219 16.640625 24.246094 Z M 16.640625 24.246094 " fill-opacity="1" fill-rule="nonzero"/><path fill="#961c36" d="M 17.601562 22.417969 C 17.632812 22.445312 17.679688 22.4375 17.710938 22.40625 C 17.738281 22.375 17.730469 22.324219 17.699219 22.296875 C 17.667969 22.269531 17.617188 22.273438 17.589844 22.308594 C 17.5625 22.339844 17.566406 22.390625 17.601562 22.417969 Z M 17.601562 22.417969 " fill-opacity="1" fill-rule="nonzero"/><path fill="#961c36" d="M 16.15625 21.792969 C 16.1875 21.820312 16.238281 21.816406 16.265625 21.78125 C 16.292969 21.75 16.289062 21.703125 16.253906 21.671875 C 16.222656 21.644531 16.171875 21.652344 16.144531 21.683594 C 16.117188 21.714844 16.125 21.765625 16.15625 21.792969 Z M 16.15625 21.792969 " fill-opacity="1" fill-rule="nonzero"/><path fill="#961c36" d="M 14.769531 24.535156 C 14.800781 24.5625 14.851562 24.558594 14.878906 24.527344 C 14.90625 24.492188 14.902344 24.445312 14.871094 24.417969 C 14.835938 24.390625 14.789062 24.394531 14.761719 24.425781 C 14.730469 24.460938 14.738281 24.507812 14.769531 24.535156 Z M 14.769531 24.535156 " fill-opacity="1" fill-rule="nonzero"/><path fill="#961c36" d="M 15.308594 22.53125 C 15.351562 22.566406 15.359375 22.632812 15.324219 22.671875 C 15.289062 22.714844 15.226562 22.722656 15.183594 22.6875 C 15.140625 22.652344 15.132812 22.589844 15.167969 22.546875 C 15.207031 22.503906 15.269531 22.496094 15.308594 22.53125 Z M 15.308594 22.53125 " fill-opacity="1" fill-rule="nonzero"/><path fill="#961c36" d="M 16.164062 20.242188 C 16.210938 20.28125 16.214844 20.351562 16.175781 20.398438 C 16.136719 20.445312 16.066406 20.449219 16.019531 20.410156 C 15.972656 20.371094 15.96875 20.300781 16.007812 20.253906 C 16.046875 20.207031 16.117188 20.203125 16.164062 20.242188 Z M 16.164062 20.242188 " fill-opacity="1" fill-rule="nonzero"/><path fill="#961c36" d="M 15.046875 20.179688 C 15.097656 20.222656 15.105469 20.296875 15.0625 20.351562 C 15.019531 20.402344 14.941406 20.410156 14.890625 20.367188 C 14.839844 20.320312 14.832031 20.246094 14.875 20.195312 C 14.917969 20.140625 14.996094 20.132812 15.046875 20.179688 Z M 15.046875 20.179688 " fill-opacity="1" fill-rule="nonzero"/><path fill="#961c36" d="M 17.449219 21.222656 C 17.519531 21.28125 17.535156 21.332031 17.496094 21.378906 C 17.460938 21.421875 17.40625 21.417969 17.335938 21.359375 C 17.269531 21.304688 17.253906 21.253906 17.292969 21.207031 C 17.328125 21.160156 17.382812 21.167969 17.449219 21.222656 Z M 17.449219 21.222656 " fill-opacity="1" fill-rule="nonzero"/><path fill="#961c36" d="M 17.328125 23.75 C 17.359375 23.777344 17.367188 23.824219 17.339844 23.859375 C 17.3125 23.890625 17.261719 23.894531 17.230469 23.867188 C 17.195312 23.839844 17.191406 23.792969 17.21875 23.757812 C 17.246094 23.726562 17.296875 23.722656 17.328125 23.75 Z M 17.328125 23.75 " fill-opacity="1" fill-rule="nonzero"/><path fill="#961c36" d="M 13.269531 22.367188 C 13.308594 22.398438 13.3125 22.453125 13.28125 22.492188 C 13.25 22.527344 13.195312 22.535156 13.15625 22.503906 C 13.121094 22.472656 13.113281 22.414062 13.144531 22.378906 C 13.175781 22.339844 13.230469 22.335938 13.269531 22.367188 Z M 13.269531 22.367188 " fill-opacity="1" fill-rule="nonzero"/><path fill="#e78994" d="M 13.734375 22.6875 C 13.78125 22.890625 13.925781 23.03125 14.058594 23 C 14.1875 22.96875 14.257812 22.78125 14.210938 22.578125 C 14.164062 22.375 14.015625 22.234375 13.886719 22.265625 C 13.753906 22.296875 13.6875 22.484375 13.734375 22.6875 Z M 13.734375 22.6875 " fill-opacity="1" fill-rule="nonzero"/><path fill="#e78994" d="M 16.496094 21.550781 C 16.542969 21.753906 16.691406 21.894531 16.820312 21.863281 C 16.953125 21.832031 17.019531 21.640625 16.972656 21.441406 C 16.925781 21.238281 16.78125 21.097656 16.648438 21.128906 C 16.519531 21.160156 16.449219 21.347656 16.496094 21.550781 Z M 16.496094 21.550781 " fill-opacity="1" fill-rule="nonzero"/><path fill="#e78994" d="M 16.953125 23.269531 C 16.976562 23.371094 16.972656 23.464844 16.941406 23.546875 C 16.914062 23.628906 16.863281 23.675781 16.800781 23.691406 C 16.734375 23.707031 16.667969 23.683594 16.605469 23.625 C 16.542969 23.5625 16.5 23.484375 16.476562 23.382812 C 16.453125 23.28125 16.453125 23.1875 16.484375 23.105469 C 16.515625 23.023438 16.5625 22.972656 16.628906 22.957031 C 16.691406 22.941406 16.757812 22.964844 16.820312 23.027344 C 16.882812 23.085938 16.925781 23.167969 16.953125 23.269531 Z M 16.953125 23.269531 " fill-opacity="1" fill-rule="nonzero"/><path fill="#e78994" d="M 15.28125 23.785156 C 15.304688 23.886719 15.300781 23.980469 15.273438 24.0625 C 15.242188 24.144531 15.195312 24.195312 15.128906 24.207031 C 15.0625 24.222656 15 24.203125 14.9375 24.140625 C 14.875 24.078125 14.828125 24 14.804688 23.898438 C 14.78125 23.796875 14.785156 23.703125 14.816406 23.621094 C 14.84375 23.539062 14.890625 23.488281 14.957031 23.476562 C 15.023438 23.460938 15.089844 23.480469 15.152344 23.542969 C 15.214844 23.605469 15.257812 23.683594 15.28125 23.785156 Z M 15.28125 23.785156 " fill-opacity="1" fill-rule="nonzero"/><path fill="#e78994" d="M 15.398438 20.96875 C 15.425781 21.070312 15.421875 21.164062 15.390625 21.246094 C 15.363281 21.328125 15.3125 21.378906 15.25 21.394531 C 15.183594 21.410156 15.117188 21.386719 15.054688 21.324219 C 14.992188 21.265625 14.949219 21.183594 14.925781 21.082031 C 14.902344 20.980469 14.902344 20.886719 14.933594 20.804688 C 14.964844 20.722656 15.011719 20.675781 15.078125 20.660156 C 15.140625 20.644531 15.207031 20.667969 15.269531 20.726562 C 15.332031 20.789062 15.375 20.871094 15.398438 20.96875 Z M 15.398438 20.96875 " fill-opacity="1" fill-rule="nonzero"/><path fill="#f8ae28" d="M 14.890625 17.535156 C 14.171875 17.535156 13.472656 17.296875 12.921875 16.871094 C 12.285156 16.378906 11.894531 15.6875 11.820312 14.925781 C 11.746094 14.160156 11.992188 13.414062 12.519531 12.824219 C 13.109375 12.164062 13.972656 11.789062 14.894531 11.789062 C 15.609375 11.789062 16.308594 12.023438 16.863281 12.453125 C 17.496094 12.941406 17.886719 13.632812 17.964844 14.398438 C 18.039062 15.160156 17.789062 15.90625 17.261719 16.496094 C 16.675781 17.15625 15.8125 17.535156 14.890625 17.535156 Z M 14.890625 17.535156 " fill-opacity="1" fill-rule="nonzero"/><path fill="#a82640" d="M 16.914062 12.425781 C 17.183594 12.695312 17.390625 13.003906 17.535156 13.355469 C 17.679688 13.707031 17.753906 14.070312 17.753906 14.449219 C 17.753906 14.828125 17.679688 15.195312 17.535156 15.546875 C 17.390625 15.894531 17.183594 16.207031 16.914062 16.472656 C 16.648438 16.742188 16.335938 16.949219 15.988281 17.09375 C 15.636719 17.238281 15.269531 17.3125 14.890625 17.3125 C 14.511719 17.3125 14.148438 17.238281 13.796875 17.09375 C 13.445312 16.949219 13.136719 16.742188 12.867188 16.472656 C 12.597656 16.207031 12.394531 15.894531 12.246094 15.546875 C 12.101562 15.195312 12.03125 14.828125 12.03125 14.449219 C 12.03125 14.070312 12.101562 13.707031 12.246094 13.355469 C 12.394531 13.003906 12.597656 12.695312 12.867188 12.425781 C 13.136719 12.15625 13.445312 11.949219 13.796875 11.804688 C 14.148438 11.660156 14.511719 11.585938 14.890625 11.585938 C 15.269531 11.585938 15.636719 11.660156 15.988281 11.804688 C 16.335938 11.949219 16.648438 12.15625 16.914062 12.425781 Z M 16.914062 12.425781 " fill-opacity="1" fill-rule="nonzero"/><path fill="#961c36" d="M 17.03125 15.796875 C 16.023438 17.011719 14.21875 17.179688 13 16.167969 C 12.488281 15.738281 12.160156 15.171875 12.03125 14.5625 C 12.0625 15.34375 12.414062 16.113281 13.0625 16.652344 C 14.277344 17.660156 16.082031 17.496094 17.09375 16.28125 C 17.675781 15.578125 17.867188 14.683594 17.691406 13.855469 C 17.71875 14.535156 17.503906 15.230469 17.03125 15.796875 Z M 17.03125 15.796875 " fill-opacity="1" fill-rule="nonzero"/><path fill="#961c36" d="M 13.386719 13.085938 C 13.457031 13.128906 13.472656 13.183594 13.429688 13.253906 C 13.386719 13.324219 13.332031 13.335938 13.261719 13.296875 C 13.191406 13.253906 13.179688 13.199219 13.222656 13.128906 C 13.261719 13.058594 13.316406 13.046875 13.386719 13.085938 Z M 13.386719 13.085938 " fill-opacity="1" fill-rule="nonzero"/><path fill="#961c36" d="M 13.363281 15.371094 C 13.414062 15.414062 13.421875 15.492188 13.378906 15.542969 C 13.332031 15.59375 13.257812 15.601562 13.207031 15.558594 C 13.152344 15.515625 13.144531 15.4375 13.191406 15.386719 C 13.234375 15.335938 13.308594 15.328125 13.363281 15.371094 Z M 13.363281 15.371094 " fill-opacity="1" fill-rule="nonzero"/><path fill="#961c36" d="M 15.015625 15.792969 C 15.082031 15.847656 15.097656 15.902344 15.0625 15.945312 C 15.023438 15.992188 14.96875 15.984375 14.902344 15.929688 C 14.835938 15.871094 14.820312 15.820312 14.855469 15.777344 C 14.894531 15.730469 14.945312 15.734375 15.015625 15.792969 Z M 15.015625 15.792969 " fill-opacity="1" fill-rule="nonzero"/><path fill="#961c36" d="M 15.867188 16.125 C 15.921875 16.171875 15.941406 16.242188 15.910156 16.277344 C 15.878906 16.316406 15.808594 16.308594 15.75 16.261719 C 15.695312 16.214844 15.675781 16.144531 15.707031 16.109375 C 15.738281 16.070312 15.808594 16.078125 15.867188 16.125 Z M 15.867188 16.125 " fill-opacity="1" fill-rule="nonzero"/><path fill="#961c36" d="M 16.824219 14.296875 C 16.855469 14.324219 16.90625 14.316406 16.933594 14.285156 C 16.960938 14.253906 16.957031 14.203125 16.921875 14.175781 C 16.890625 14.148438 16.839844 14.152344 16.8125 14.1875 C 16.785156 14.21875 16.789062 14.269531 16.824219 14.296875 Z M 16.824219 14.296875 " fill-opacity="1" fill-rule="nonzero"/><path fill="#961c36" d="M 15.378906 13.671875 C 15.414062 13.699219 15.460938 13.695312 15.488281 13.664062 C 15.515625 13.628906 15.511719 13.582031 15.480469 13.554688 C 15.445312 13.523438 15.398438 13.53125 15.371094 13.5625 C 15.34375 13.597656 15.347656 13.644531 15.378906 13.671875 Z M 15.378906 13.671875 " fill-opacity="1" fill-rule="nonzero"/><path fill="#961c36" d="M 13.992188 16.414062 C 14.027344 16.441406 14.074219 16.4375 14.101562 16.40625 C 14.128906 16.371094 14.125 16.324219 14.09375 16.296875 C 14.058594 16.269531 14.011719 16.273438 13.984375 16.304688 C 13.957031 16.339844 13.960938 16.386719 13.992188 16.414062 Z M 13.992188 16.414062 " fill-opacity="1" fill-rule="nonzero"/><path fill="#961c36" d="M 14.535156 14.410156 C 14.574219 14.449219 14.582031 14.511719 14.546875 14.550781 C 14.511719 14.59375 14.449219 14.601562 14.40625 14.566406 C 14.363281 14.53125 14.359375 14.46875 14.394531 14.425781 C 14.429688 14.382812 14.492188 14.375 14.535156 14.410156 Z M 14.535156 14.410156 " fill-opacity="1" fill-rule="nonzero"/><path fill="#961c36" d="M 15.386719 12.121094 C 15.433594 12.160156 15.4375 12.230469 15.402344 12.277344 C 15.363281 12.324219 15.292969 12.328125 15.246094 12.289062 C 15.199219 12.25 15.191406 12.179688 15.230469 12.132812 C 15.269531 12.085938 15.339844 12.082031 15.386719 12.121094 Z M 15.386719 12.121094 " fill-opacity="1" fill-rule="nonzero"/><path fill="#961c36" d="M 14.269531 12.058594 C 14.320312 12.101562 14.328125 12.175781 14.285156 12.230469 C 14.242188 12.28125 14.164062 12.289062 14.113281 12.246094 C 14.0625 12.203125 14.054688 12.125 14.097656 12.074219 C 14.140625 12.019531 14.21875 12.015625 14.269531 12.058594 Z M 14.269531 12.058594 " fill-opacity="1" fill-rule="nonzero"/><path fill="#961c36" d="M 16.675781 13.105469 C 16.742188 13.160156 16.757812 13.210938 16.71875 13.257812 C 16.683594 13.300781 16.628906 13.296875 16.5625 13.238281 C 16.492188 13.183594 16.476562 13.132812 16.515625 13.085938 C 16.550781 13.042969 16.605469 13.046875 16.675781 13.105469 Z M 16.675781 13.105469 " fill-opacity="1" fill-rule="nonzero"/><path fill="#961c36" d="M 16.550781 15.628906 C 16.585938 15.65625 16.589844 15.703125 16.5625 15.738281 C 16.535156 15.769531 16.484375 15.773438 16.453125 15.746094 C 16.417969 15.71875 16.414062 15.671875 16.441406 15.636719 C 16.46875 15.605469 16.519531 15.601562 16.550781 15.628906 Z M 16.550781 15.628906 " fill-opacity="1" fill-rule="nonzero"/><path fill="#961c36" d="M 12.492188 14.246094 C 12.53125 14.277344 12.535156 14.332031 12.503906 14.371094 C 12.472656 14.40625 12.417969 14.414062 12.378906 14.382812 C 12.34375 14.351562 12.335938 14.292969 12.367188 14.257812 C 12.398438 14.21875 12.457031 14.214844 12.492188 14.246094 Z M 12.492188 14.246094 " fill-opacity="1" fill-rule="nonzero"/><path fill="#e78994" d="M 12.957031 14.566406 C 13.003906 14.769531 13.148438 14.910156 13.28125 14.878906 C 13.414062 14.847656 13.480469 14.660156 13.433594 14.457031 C 13.386719 14.253906 13.242188 14.113281 13.109375 14.144531 C 12.980469 14.175781 12.910156 14.363281 12.957031 14.566406 Z M 12.957031 14.566406 " fill-opacity="1" fill-rule="nonzero"/><path fill="#e78994" d="M 15.722656 13.429688 C 15.769531 13.632812 15.914062 13.773438 16.042969 13.742188 C 16.175781 13.710938 16.242188 13.523438 16.195312 13.320312 C 16.148438 13.117188 16.003906 12.976562 15.871094 13.007812 C 15.742188 13.039062 15.671875 13.226562 15.722656 13.429688 Z M 15.722656 13.429688 " fill-opacity="1" fill-rule="nonzero"/><path fill="#e78994" d="M 16.175781 15.148438 C 16.199219 15.25 16.195312 15.34375 16.164062 15.425781 C 16.136719 15.507812 16.089844 15.558594 16.023438 15.574219 C 15.957031 15.585938 15.894531 15.566406 15.828125 15.503906 C 15.765625 15.441406 15.722656 15.363281 15.699219 15.261719 C 15.675781 15.160156 15.679688 15.066406 15.707031 14.984375 C 15.738281 14.902344 15.785156 14.855469 15.851562 14.839844 C 15.917969 14.824219 15.980469 14.84375 16.042969 14.90625 C 16.109375 14.96875 16.152344 15.046875 16.175781 15.148438 Z M 16.175781 15.148438 " fill-opacity="1" fill-rule="nonzero"/><path fill="#e78994" d="M 14.503906 15.664062 C 14.527344 15.765625 14.527344 15.859375 14.496094 15.941406 C 14.464844 16.023438 14.417969 16.074219 14.351562 16.089844 C 14.289062 16.101562 14.222656 16.082031 14.160156 16.019531 C 14.097656 15.960938 14.054688 15.878906 14.03125 15.777344 C 14.003906 15.675781 14.007812 15.582031 14.039062 15.5 C 14.066406 15.417969 14.117188 15.371094 14.179688 15.355469 C 14.246094 15.339844 14.3125 15.363281 14.375 15.421875 C 14.4375 15.484375 14.480469 15.5625 14.503906 15.664062 Z M 14.503906 15.664062 " fill-opacity="1" fill-rule="nonzero"/><path fill="#e78994" d="M 14.625 12.851562 C 14.648438 12.953125 14.644531 13.042969 14.617188 13.125 C 14.585938 13.207031 14.539062 13.257812 14.472656 13.273438 C 14.40625 13.289062 14.34375 13.265625 14.277344 13.203125 C 14.214844 13.144531 14.171875 13.0625 14.148438 12.960938 C 14.125 12.859375 14.128906 12.769531 14.15625 12.6875 C 14.1875 12.601562 14.234375 12.554688 14.300781 12.539062 C 14.367188 12.523438 14.429688 12.546875 14.492188 12.605469 C 14.558594 12.667969 14.601562 12.75 14.625 12.851562 Z M 14.625 12.851562 " fill-opacity="1" fill-rule="nonzero"/><path fill="#f8ae28" d="M 22.46875 18.6875 C 21.789062 18.6875 21.125 18.453125 20.605469 18.027344 C 20.003906 17.542969 19.636719 16.855469 19.5625 16.097656 C 19.492188 15.339844 19.726562 14.597656 20.226562 14.015625 C 20.78125 13.359375 21.601562 12.984375 22.46875 12.984375 C 23.148438 12.984375 23.8125 13.21875 24.332031 13.644531 C 24.933594 14.128906 25.300781 14.816406 25.375 15.574219 C 25.445312 16.332031 25.210938 17.074219 24.710938 17.660156 C 24.15625 18.3125 23.339844 18.6875 22.46875 18.6875 Z M 22.46875 18.6875 " fill-opacity="1" fill-rule="nonzero"/><path fill="#a82640" d="M 24.660156 13.578125 C 24.925781 13.847656 25.132812 14.15625 25.277344 14.507812 C 25.425781 14.859375 25.496094 15.222656 25.496094 15.605469 C 25.496094 15.984375 25.425781 16.347656 25.277344 16.699219 C 25.132812 17.050781 24.925781 17.359375 24.660156 17.628906 C 24.390625 17.894531 24.082031 18.101562 23.730469 18.246094 C 23.378906 18.394531 23.015625 18.464844 22.636719 18.464844 C 22.253906 18.464844 21.890625 18.394531 21.539062 18.25 C 21.1875 18.101562 20.878906 17.894531 20.609375 17.628906 C 20.34375 17.359375 20.136719 17.050781 19.992188 16.699219 C 19.84375 16.347656 19.773438 15.984375 19.773438 15.605469 C 19.773438 15.222656 19.84375 14.859375 19.992188 14.507812 C 20.136719 14.15625 20.34375 13.847656 20.609375 13.578125 C 20.878906 13.3125 21.1875 13.105469 21.539062 12.960938 C 21.890625 12.8125 22.253906 12.742188 22.636719 12.742188 C 23.015625 12.742188 23.378906 12.8125 23.730469 12.960938 C 24.082031 13.105469 24.390625 13.3125 24.660156 13.578125 Z M 24.660156 13.578125 " fill-opacity="1" fill-rule="nonzero"/><path fill="#961c36" d="M 24.777344 16.949219 C 23.765625 18.164062 21.960938 18.332031 20.746094 17.320312 C 20.230469 16.894531 19.902344 16.324219 19.773438 15.714844 C 19.804688 16.496094 20.15625 17.265625 20.804688 17.804688 C 22.019531 18.816406 23.824219 18.648438 24.835938 17.433594 C 25.417969 16.730469 25.609375 15.835938 25.433594 15.007812 C 25.460938 15.691406 25.246094 16.382812 24.777344 16.949219 Z M 24.777344 16.949219 " fill-opacity="1" fill-rule="nonzero"/><path fill="#961c36" d="M 21.132812 14.238281 C 21.199219 14.28125 21.214844 14.335938 21.171875 14.40625 C 21.132812 14.476562 21.074219 14.492188 21.007812 14.449219 C 20.9375 14.40625 20.921875 14.351562 20.964844 14.28125 C 21.007812 14.210938 21.0625 14.199219 21.132812 14.238281 Z M 21.132812 14.238281 " fill-opacity="1" fill-rule="nonzero"/><path fill="#961c36" d="M 21.105469 16.523438 C 21.15625 16.566406 21.164062 16.644531 21.121094 16.695312 C 21.078125 16.75 21 16.753906 20.949219 16.710938 C 20.898438 16.667969 20.890625 16.589844 20.933594 16.539062 C 20.976562 16.488281 21.054688 16.480469 21.105469 16.523438 Z M 21.105469 16.523438 " fill-opacity="1" fill-rule="nonzero"/><path fill="#961c36" d="M 22.757812 16.945312 C 22.828125 17.003906 22.84375 17.054688 22.804688 17.097656 C 22.765625 17.144531 22.714844 17.140625 22.644531 17.082031 C 22.578125 17.027344 22.5625 16.972656 22.601562 16.929688 C 22.636719 16.882812 22.691406 16.890625 22.757812 16.945312 Z M 22.757812 16.945312 " fill-opacity="1" fill-rule="nonzero"/><path fill="#961c36" d="M 23.609375 17.277344 C 23.664062 17.324219 23.6875 17.394531 23.65625 17.433594 C 23.625 17.46875 23.550781 17.460938 23.496094 17.414062 C 23.4375 17.367188 23.417969 17.300781 23.449219 17.261719 C 23.480469 17.222656 23.550781 17.230469 23.609375 17.277344 Z M 23.609375 17.277344 " fill-opacity="1" fill-rule="nonzero"/><path fill="#961c36" d="M 24.566406 15.449219 C 24.597656 15.476562 24.648438 15.472656 24.675781 15.4375 C 24.703125 15.40625 24.699219 15.359375 24.667969 15.328125 C 24.632812 15.300781 24.585938 15.308594 24.558594 15.339844 C 24.527344 15.375 24.535156 15.421875 24.566406 15.449219 Z M 24.566406 15.449219 " fill-opacity="1" fill-rule="nonzero"/><path fill="#961c36" d="M 23.121094 14.824219 C 23.15625 14.855469 23.203125 14.847656 23.230469 14.816406 C 23.261719 14.785156 23.253906 14.734375 23.222656 14.707031 C 23.191406 14.679688 23.140625 14.683594 23.113281 14.714844 C 23.085938 14.75 23.089844 14.800781 23.121094 14.824219 Z M 23.121094 14.824219 " fill-opacity="1" fill-rule="nonzero"/><path fill="#961c36" d="M 21.738281 17.570312 C 21.769531 17.597656 21.820312 17.59375 21.847656 17.558594 C 21.875 17.527344 21.867188 17.476562 21.835938 17.449219 C 21.804688 17.421875 21.753906 17.425781 21.726562 17.460938 C 21.699219 17.492188 21.703125 17.542969 21.738281 17.570312 Z M 21.738281 17.570312 " fill-opacity="1" fill-rule="nonzero"/><path fill="#961c36" d="M 22.277344 15.566406 C 22.320312 15.601562 22.324219 15.664062 22.289062 15.707031 C 22.253906 15.75 22.191406 15.753906 22.148438 15.71875 C 22.109375 15.683594 22.101562 15.621094 22.136719 15.578125 C 22.171875 15.535156 22.234375 15.53125 22.277344 15.566406 Z M 22.277344 15.566406 " fill-opacity="1" fill-rule="nonzero"/><path fill="#961c36" d="M 23.128906 13.273438 C 23.175781 13.3125 23.183594 13.382812 23.144531 13.429688 C 23.105469 13.476562 23.035156 13.484375 22.988281 13.445312 C 22.941406 13.40625 22.933594 13.335938 22.972656 13.289062 C 23.011719 13.242188 23.082031 13.234375 23.128906 13.273438 Z M 23.128906 13.273438 " fill-opacity="1" fill-rule="nonzero"/><path fill="#961c36" d="M 22.011719 13.210938 C 22.066406 13.253906 22.070312 13.332031 22.027344 13.382812 C 21.984375 13.433594 21.90625 13.441406 21.855469 13.398438 C 21.804688 13.355469 21.796875 13.277344 21.839844 13.226562 C 21.882812 13.175781 21.960938 13.167969 22.011719 13.210938 Z M 22.011719 13.210938 " fill-opacity="1" fill-rule="nonzero"/><path fill="#961c36" d="M 24.417969 14.257812 C 24.484375 14.3125 24.5 14.363281 24.464844 14.410156 C 24.425781 14.457031 24.371094 14.449219 24.304688 14.394531 C 24.234375 14.335938 24.222656 14.285156 24.257812 14.238281 C 24.296875 14.195312 24.347656 14.199219 24.417969 14.257812 Z M 24.417969 14.257812 " fill-opacity="1" fill-rule="nonzero"/><path fill="#961c36" d="M 24.296875 16.78125 C 24.328125 16.808594 24.332031 16.859375 24.304688 16.890625 C 24.277344 16.925781 24.230469 16.929688 24.195312 16.902344 C 24.164062 16.875 24.160156 16.824219 24.1875 16.792969 C 24.214844 16.757812 24.261719 16.753906 24.296875 16.78125 Z M 24.296875 16.78125 " fill-opacity="1" fill-rule="nonzero"/><path fill="#961c36" d="M 20.238281 15.398438 C 20.273438 15.429688 20.28125 15.488281 20.25 15.523438 C 20.21875 15.5625 20.160156 15.566406 20.125 15.535156 C 20.085938 15.503906 20.082031 15.449219 20.113281 15.410156 C 20.144531 15.371094 20.199219 15.367188 20.238281 15.398438 Z M 20.238281 15.398438 " fill-opacity="1" fill-rule="nonzero"/><path fill="#e78994" d="M 20.703125 15.722656 C 20.75 15.925781 20.894531 16.0625 21.023438 16.03125 C 21.15625 16.003906 21.222656 15.8125 21.175781 15.609375 C 21.128906 15.40625 20.984375 15.265625 20.851562 15.296875 C 20.722656 15.328125 20.652344 15.519531 20.703125 15.722656 Z M 20.703125 15.722656 " fill-opacity="1" fill-rule="nonzero"/><path fill="#e78994" d="M 23.464844 14.585938 C 23.511719 14.789062 23.65625 14.925781 23.789062 14.894531 C 23.917969 14.867188 23.988281 14.675781 23.9375 14.472656 C 23.890625 14.269531 23.746094 14.128906 23.617188 14.160156 C 23.484375 14.191406 23.417969 14.382812 23.464844 14.585938 Z M 23.464844 14.585938 " fill-opacity="1" fill-rule="nonzero"/><path fill="#e78994" d="M 23.917969 16.304688 C 23.941406 16.40625 23.9375 16.496094 23.910156 16.578125 C 23.878906 16.660156 23.832031 16.710938 23.765625 16.726562 C 23.699219 16.742188 23.636719 16.71875 23.574219 16.660156 C 23.511719 16.597656 23.46875 16.515625 23.441406 16.414062 C 23.417969 16.3125 23.421875 16.222656 23.453125 16.140625 C 23.480469 16.054688 23.53125 16.007812 23.59375 15.992188 C 23.660156 15.976562 23.726562 16 23.789062 16.058594 C 23.851562 16.121094 23.894531 16.203125 23.917969 16.304688 Z M 23.917969 16.304688 " fill-opacity="1" fill-rule="nonzero"/><path fill="#e78994" d="M 22.25 16.820312 C 22.273438 16.921875 22.269531 17.011719 22.238281 17.09375 C 22.210938 17.179688 22.164062 17.226562 22.097656 17.242188 C 22.03125 17.257812 21.96875 17.234375 21.902344 17.175781 C 21.839844 17.113281 21.796875 17.03125 21.773438 16.929688 C 21.75 16.828125 21.753906 16.738281 21.78125 16.65625 C 21.8125 16.574219 21.859375 16.523438 21.925781 16.507812 C 21.992188 16.492188 22.054688 16.515625 22.117188 16.578125 C 22.183594 16.636719 22.226562 16.71875 22.25 16.820312 Z M 22.25 16.820312 " fill-opacity="1" fill-rule="nonzero"/><path fill="#e78994" d="M 22.367188 14.003906 C 22.390625 14.105469 22.386719 14.199219 22.359375 14.28125 C 22.328125 14.363281 22.28125 14.410156 22.214844 14.425781 C 22.148438 14.441406 22.085938 14.417969 22.023438 14.359375 C 21.960938 14.296875 21.914062 14.21875 21.890625 14.117188 C 21.867188 14.015625 21.871094 13.921875 21.902344 13.839844 C 21.929688 13.757812 21.976562 13.707031 22.042969 13.691406 C 22.109375 13.675781 22.175781 13.699219 22.238281 13.761719 C 22.300781 13.820312 22.34375 13.902344 22.367188 14.003906 Z M 22.367188 14.003906 " fill-opacity="1" fill-rule="nonzero"/><path fill="#f8ae28" d="M 6.828125 20.265625 C 5.539062 20.265625 4.382812 19.496094 3.953125 18.351562 C 3.679688 17.628906 3.722656 16.847656 4.070312 16.15625 C 4.421875 15.460938 5.039062 14.9375 5.804688 14.683594 C 6.136719 14.574219 6.480469 14.515625 6.828125 14.515625 C 8.113281 14.515625 9.269531 15.285156 9.703125 16.429688 C 10.265625 17.921875 9.433594 19.566406 7.847656 20.097656 C 7.515625 20.207031 7.175781 20.265625 6.828125 20.265625 Z M 6.828125 20.265625 " fill-opacity="1" fill-rule="nonzero"/><path fill="#a82640" d="M 9.546875 16.199219 C 9.679688 16.554688 9.734375 16.921875 9.71875 17.300781 C 9.703125 17.683594 9.613281 18.042969 9.453125 18.386719 C 9.292969 18.730469 9.074219 19.03125 8.792969 19.289062 C 8.515625 19.546875 8.195312 19.738281 7.839844 19.867188 C 7.484375 20 7.117188 20.054688 6.738281 20.039062 C 6.355469 20.023438 5.996094 19.933594 5.652344 19.773438 C 5.308594 19.613281 5.007812 19.394531 4.75 19.113281 C 4.492188 18.835938 4.300781 18.515625 4.171875 18.160156 C 4.039062 17.804688 3.984375 17.433594 4 17.054688 C 4.015625 16.675781 4.105469 16.316406 4.265625 15.972656 C 4.425781 15.628906 4.644531 15.328125 4.925781 15.070312 C 5.203125 14.8125 5.523438 14.621094 5.878906 14.492188 C 6.234375 14.359375 6.605469 14.304688 6.984375 14.320312 C 7.363281 14.335938 7.722656 14.425781 8.066406 14.585938 C 8.410156 14.746094 8.710938 14.964844 8.96875 15.246094 C 9.226562 15.523438 9.417969 15.84375 9.546875 16.199219 Z M 9.546875 16.199219 " fill-opacity="1" fill-rule="nonzero"/><path fill="#961c36" d="M 8.011719 19.429688 C 6.523438 19.960938 4.886719 19.179688 4.359375 17.691406 C 4.132812 17.0625 4.144531 16.402344 4.34375 15.816406 C 3.972656 16.503906 3.878906 17.339844 4.164062 18.136719 C 4.691406 19.628906 6.328125 20.40625 7.816406 19.875 C 8.675781 19.570312 9.300781 18.898438 9.570312 18.097656 C 9.246094 18.695312 8.707031 19.183594 8.011719 19.429688 Z M 8.011719 19.429688 " fill-opacity="1" fill-rule="nonzero"/><path fill="#961c36" d="M 6.277344 15.296875 C 6.277344 15.378906 6.238281 15.421875 6.15625 15.421875 C 6.074219 15.421875 6.035156 15.378906 6.035156 15.296875 C 6.035156 15.21875 6.074219 15.175781 6.15625 15.175781 C 6.238281 15.175781 6.277344 15.21875 6.277344 15.296875 Z M 6.277344 15.296875 " fill-opacity="1" fill-rule="nonzero"/><path fill="#961c36" d="M 5.074219 17.1875 C 5.097656 17.253906 5.0625 17.324219 5 17.34375 C 4.9375 17.367188 4.867188 17.335938 4.84375 17.269531 C 4.820312 17.207031 4.855469 17.136719 4.917969 17.117188 C 4.980469 17.09375 5.050781 17.125 5.074219 17.1875 Z M 5.074219 17.1875 " fill-opacity="1" fill-rule="nonzero"/><path fill="#961c36" d="M 6.28125 18.398438 C 6.304688 18.464844 6.289062 18.535156 6.242188 18.550781 C 6.195312 18.570312 6.136719 18.527344 6.113281 18.457031 C 6.089844 18.386719 6.105469 18.316406 6.152344 18.300781 C 6.199219 18.285156 6.253906 18.328125 6.28125 18.398438 Z M 6.28125 18.398438 " fill-opacity="1" fill-rule="nonzero"/><path fill="#961c36" d="M 6.839844 19.117188 C 6.867188 19.183594 6.847656 19.253906 6.800781 19.269531 C 6.757812 19.289062 6.699219 19.246094 6.675781 19.175781 C 6.648438 19.105469 6.667969 19.035156 6.714844 19.019531 C 6.757812 19.003906 6.816406 19.046875 6.839844 19.117188 Z M 6.839844 19.117188 " fill-opacity="1" fill-rule="nonzero"/><path fill="#961c36" d="M 8.597656 18.03125 C 8.613281 18.074219 8.660156 18.09375 8.699219 18.082031 C 8.738281 18.066406 8.761719 18.019531 8.746094 17.980469 C 8.730469 17.941406 8.6875 17.917969 8.648438 17.933594 C 8.605469 17.949219 8.585938 17.992188 8.597656 18.03125 Z M 8.597656 18.03125 " fill-opacity="1" fill-rule="nonzero"/><path fill="#961c36" d="M 7.675781 16.757812 C 7.691406 16.800781 7.734375 16.820312 7.773438 16.804688 C 7.816406 16.792969 7.835938 16.746094 7.820312 16.707031 C 7.808594 16.667969 7.761719 16.644531 7.722656 16.660156 C 7.683594 16.675781 7.660156 16.71875 7.675781 16.757812 Z M 7.675781 16.757812 " fill-opacity="1" fill-rule="nonzero"/><path fill="#961c36" d="M 5.082031 18.410156 C 5.097656 18.449219 5.144531 18.472656 5.183594 18.457031 C 5.222656 18.441406 5.246094 18.398438 5.230469 18.359375 C 5.214844 18.316406 5.171875 18.296875 5.132812 18.3125 C 5.089844 18.324219 5.070312 18.371094 5.082031 18.410156 Z M 5.082031 18.410156 " fill-opacity="1" fill-rule="nonzero"/><path fill="#961c36" d="M 6.570312 16.964844 C 6.589844 17.015625 6.5625 17.070312 6.511719 17.089844 C 6.460938 17.109375 6.402344 17.082031 6.382812 17.03125 C 6.367188 16.976562 6.390625 16.921875 6.445312 16.902344 C 6.496094 16.882812 6.554688 16.910156 6.570312 16.964844 Z M 6.570312 16.964844 " fill-opacity="1" fill-rule="nonzero"/><path fill="#961c36" d="M 8.472656 15.429688 C 8.496094 15.484375 8.464844 15.550781 8.40625 15.570312 C 8.347656 15.589844 8.285156 15.558594 8.265625 15.503906 C 8.246094 15.445312 8.277344 15.382812 8.332031 15.359375 C 8.390625 15.339844 8.453125 15.371094 8.472656 15.429688 Z M 8.472656 15.429688 " fill-opacity="1" fill-rule="nonzero"/><path fill="#961c36" d="M 7.546875 14.804688 C 7.570312 14.867188 7.535156 14.9375 7.472656 14.960938 C 7.410156 14.980469 7.339844 14.949219 7.316406 14.886719 C 7.292969 14.824219 7.328125 14.753906 7.390625 14.730469 C 7.453125 14.707031 7.523438 14.742188 7.546875 14.804688 Z M 7.546875 14.804688 " fill-opacity="1" fill-rule="nonzero"/><path fill="#961c36" d="M 9.078125 16.929688 C 9.105469 17 9.085938 17.070312 9.039062 17.085938 C 8.992188 17.101562 8.9375 17.058594 8.914062 16.992188 C 8.886719 16.921875 8.90625 16.851562 8.953125 16.835938 C 8.996094 16.820312 9.054688 16.863281 9.078125 16.929688 Z M 9.078125 16.929688 " fill-opacity="1" fill-rule="nonzero"/><path fill="#961c36" d="M 7.6875 19.039062 C 7.699219 19.082031 7.679688 19.125 7.636719 19.136719 C 7.597656 19.152344 7.554688 19.132812 7.539062 19.089844 C 7.523438 19.050781 7.546875 19.007812 7.585938 18.992188 C 7.625 18.976562 7.671875 19 7.6875 19.039062 Z M 7.6875 19.039062 " fill-opacity="1" fill-rule="nonzero"/><path fill="#961c36" d="M 4.902344 15.777344 C 4.917969 15.824219 4.894531 15.875 4.847656 15.890625 C 4.800781 15.910156 4.75 15.882812 4.734375 15.839844 C 4.71875 15.792969 4.742188 15.742188 4.789062 15.722656 C 4.835938 15.707031 4.886719 15.730469 4.902344 15.777344 Z M 4.902344 15.777344 " fill-opacity="1" fill-rule="nonzero"/><path fill="#e78994" d="M 5.484375 16.003906 C 5.546875 16.027344 5.59375 16.078125 5.617188 16.164062 C 5.636719 16.246094 5.632812 16.339844 5.601562 16.4375 C 5.570312 16.539062 5.523438 16.617188 5.453125 16.671875 C 5.386719 16.726562 5.320312 16.746094 5.257812 16.726562 C 5.191406 16.703125 5.148438 16.652344 5.125 16.566406 C 5.101562 16.484375 5.105469 16.390625 5.136719 16.292969 C 5.167969 16.191406 5.21875 16.113281 5.285156 16.058594 C 5.355469 16.003906 5.417969 15.984375 5.484375 16.003906 Z M 5.484375 16.003906 " fill-opacity="1" fill-rule="nonzero"/><path fill="#e78994" d="M 8.441406 16.4375 C 8.503906 16.457031 8.546875 16.511719 8.570312 16.597656 C 8.59375 16.679688 8.589844 16.773438 8.558594 16.871094 C 8.527344 16.972656 8.476562 17.046875 8.410156 17.105469 C 8.34375 17.160156 8.277344 17.179688 8.210938 17.15625 C 8.148438 17.136719 8.105469 17.085938 8.082031 17 C 8.058594 16.914062 8.0625 16.824219 8.09375 16.722656 C 8.125 16.625 8.175781 16.546875 8.242188 16.492188 C 8.308594 16.4375 8.375 16.417969 8.441406 16.4375 Z M 8.441406 16.4375 " fill-opacity="1" fill-rule="nonzero"/><path fill="#e78994" d="M 7.140625 18.289062 C 7.078125 18.488281 7.132812 18.679688 7.261719 18.722656 C 7.390625 18.761719 7.542969 18.632812 7.605469 18.433594 C 7.671875 18.234375 7.617188 18.042969 7.488281 18.003906 C 7.359375 17.960938 7.203125 18.089844 7.140625 18.289062 Z M 7.140625 18.289062 " fill-opacity="1" fill-rule="nonzero"/><path fill="#e78994" d="M 5.789062 17.59375 C 5.851562 17.613281 5.898438 17.664062 5.921875 17.75 C 5.945312 17.835938 5.941406 17.925781 5.910156 18.027344 C 5.875 18.125 5.828125 18.203125 5.757812 18.257812 C 5.691406 18.3125 5.625 18.332031 5.5625 18.3125 C 5.496094 18.292969 5.453125 18.238281 5.429688 18.152344 C 5.40625 18.070312 5.410156 17.976562 5.441406 17.878906 C 5.472656 17.777344 5.523438 17.703125 5.589844 17.644531 C 5.660156 17.589844 5.722656 17.574219 5.789062 17.59375 Z M 5.789062 17.59375 " fill-opacity="1" fill-rule="nonzero"/><path fill="#e78994" d="M 7.328125 15.234375 C 7.394531 15.253906 7.4375 15.304688 7.460938 15.390625 C 7.484375 15.472656 7.480469 15.566406 7.449219 15.664062 C 7.417969 15.765625 7.367188 15.84375 7.300781 15.898438 C 7.230469 15.953125 7.164062 15.972656 7.101562 15.953125 C 7.035156 15.929688 6.992188 15.878906 6.96875 15.792969 C 6.945312 15.710938 6.949219 15.617188 6.980469 15.519531 C 7.011719 15.417969 7.0625 15.339844 7.128906 15.285156 C 7.199219 15.230469 7.265625 15.210938 7.328125 15.234375 Z M 7.328125 15.234375 " fill-opacity="1" fill-rule="nonzero"/><path fill="#f8ae28" d="M 20.046875 20.335938 C 20.039062 20.335938 20.035156 20.332031 20.027344 20.332031 C 19.53125 20.308594 19.035156 20.191406 18.632812 19.996094 C 18.175781 19.777344 17.808594 19.402344 17.59375 18.9375 C 17.460938 18.644531 17.164062 17.792969 17.414062 17.402344 L 17.472656 17.3125 L 17.574219 17.351562 C 17.6875 17.394531 17.796875 17.457031 17.898438 17.515625 C 17.949219 17.542969 18 17.570312 18.050781 17.597656 C 18.265625 17.707031 18.519531 17.757812 18.757812 17.796875 C 18.785156 17.800781 18.8125 17.804688 18.84375 17.808594 C 19.308594 17.886719 19.832031 17.96875 20.117188 18.445312 C 20.4375 18.980469 20.363281 19.632812 20.261719 20.140625 C 20.257812 20.160156 20.253906 20.1875 20.238281 20.214844 C 20.222656 20.253906 20.191406 20.285156 20.15625 20.308594 C 20.125 20.324219 20.089844 20.335938 20.046875 20.335938 Z M 20.046875 20.335938 " fill-opacity="1" fill-rule="nonzero"/><path fill="#a5cc15" d="M 20.226562 20.15625 C 20.21875 20.171875 20.210938 20.183594 20.195312 20.191406 C 20.175781 20.203125 20.152344 20.203125 20.132812 20.199219 C 19.660156 20.179688 19.160156 20.066406 18.738281 19.859375 C 18.285156 19.640625 17.933594 19.265625 17.726562 18.808594 C 17.574219 18.472656 17.320312 17.65625 17.53125 17.316406 C 17.699219 17.386719 17.855469 17.488281 18.015625 17.574219 C 18.253906 17.699219 18.523438 17.75 18.789062 17.796875 C 19.285156 17.878906 19.824219 17.941406 20.105469 18.414062 C 20.40625 18.921875 20.347656 19.550781 20.242188 20.105469 C 20.238281 20.121094 20.234375 20.140625 20.226562 20.15625 Z M 20.226562 20.15625 " fill-opacity="1" fill-rule="nonzero"/><path fill="#9bbf02" d="M 20.105469 18.414062 C 19.824219 17.9375 19.285156 17.878906 18.789062 17.792969 C 18.523438 17.75 18.253906 17.699219 18.015625 17.574219 C 17.855469 17.488281 17.699219 17.382812 17.53125 17.316406 C 17.488281 17.386719 17.464844 17.480469 17.453125 17.585938 C 17.585938 17.648438 17.710938 17.726562 17.839844 17.792969 C 18.078125 17.917969 18.347656 17.972656 18.609375 18.015625 C 19.109375 18.101562 19.648438 18.160156 19.929688 18.636719 C 20.203125 19.105469 20.175781 19.675781 20.085938 20.199219 C 20.101562 20.199219 20.117188 20.199219 20.128906 20.203125 C 20.152344 20.203125 20.175781 20.203125 20.195312 20.191406 C 20.207031 20.183594 20.21875 20.171875 20.226562 20.15625 C 20.230469 20.140625 20.234375 20.121094 20.238281 20.105469 C 20.347656 19.550781 20.40625 18.921875 20.105469 18.414062 Z M 20.105469 18.414062 " fill-opacity="1" fill-rule="nonzero"/><path fill="#96ba00" d="M 20.160156 20.175781 C 20.15625 20.175781 20.148438 20.171875 20.144531 20.167969 C 18.539062 19.117188 17.9375 18.722656 17.535156 17.421875 C 17.527344 17.402344 17.539062 17.386719 17.554688 17.378906 C 17.574219 17.375 17.59375 17.382812 17.597656 17.402344 C 17.992188 18.679688 18.589844 19.070312 20.179688 20.113281 C 20.195312 20.125 20.199219 20.144531 20.1875 20.160156 C 20.183594 20.167969 20.171875 20.175781 20.160156 20.175781 Z M 20.160156 20.175781 " fill-opacity="1" fill-rule="nonzero"/><path fill="#96ba00" d="M 18.144531 18.605469 C 18.144531 18.605469 18.140625 18.605469 18.140625 18.605469 C 18.121094 18.601562 18.109375 18.582031 18.113281 18.566406 C 18.15625 18.316406 18.023438 17.824219 18.019531 17.820312 C 18.015625 17.800781 18.027344 17.785156 18.042969 17.777344 C 18.0625 17.773438 18.082031 17.785156 18.085938 17.800781 C 18.089844 17.824219 18.226562 18.3125 18.179688 18.578125 C 18.175781 18.59375 18.160156 18.605469 18.144531 18.605469 Z M 18.144531 18.605469 " fill-opacity="1" fill-rule="nonzero"/><path fill="#96ba00" d="M 18.628906 19.09375 C 18.625 19.09375 18.625 19.09375 18.621094 19.09375 C 18.257812 19.035156 17.867188 18.648438 17.851562 18.632812 C 17.839844 18.621094 17.839844 18.601562 17.851562 18.585938 C 17.863281 18.574219 17.886719 18.574219 17.898438 18.585938 C 17.902344 18.589844 18.289062 18.972656 18.632812 19.027344 C 18.652344 19.03125 18.664062 19.050781 18.660156 19.066406 C 18.65625 19.082031 18.644531 19.09375 18.628906 19.09375 Z M 18.628906 19.09375 " fill-opacity="1" fill-rule="nonzero"/><path fill="#96ba00" d="M 19.234375 19.554688 C 19.230469 19.554688 19.226562 19.554688 19.21875 19.550781 C 19.203125 19.542969 19.195312 19.523438 19.203125 19.507812 C 19.214844 19.472656 19.277344 18.929688 19.023438 18.449219 C 19.015625 18.433594 19.019531 18.410156 19.035156 18.402344 C 19.054688 18.394531 19.074219 18.402344 19.082031 18.417969 C 19.34375 18.910156 19.289062 19.46875 19.265625 19.535156 C 19.257812 19.546875 19.246094 19.554688 19.234375 19.554688 Z M 19.234375 19.554688 " fill-opacity="1" fill-rule="nonzero"/><path fill="#96ba00" d="M 19.507812 20 C 19.152344 20 18.863281 19.832031 18.847656 19.820312 C 18.832031 19.8125 18.824219 19.792969 18.835938 19.777344 C 18.84375 19.761719 18.863281 19.753906 18.878906 19.765625 C 18.882812 19.765625 19.351562 20.035156 19.808594 19.886719 C 19.828125 19.878906 19.847656 19.890625 19.851562 19.90625 C 19.859375 19.925781 19.847656 19.941406 19.832031 19.949219 C 19.722656 19.984375 19.613281 20 19.507812 20 Z M 19.507812 20 " fill-opacity="1" fill-rule="nonzero"/><path fill="#f8ae28" d="M 4.824219 12.46875 C 4.832031 12.460938 4.835938 12.457031 4.839844 12.449219 C 5.175781 12.085938 5.582031 11.78125 5.992188 11.59375 C 6.449219 11.382812 6.972656 11.339844 7.46875 11.472656 C 7.78125 11.558594 8.625 11.875 8.765625 12.320312 L 8.796875 12.417969 L 8.703125 12.46875 C 8.59375 12.53125 8.480469 12.574219 8.367188 12.617188 C 8.3125 12.636719 8.257812 12.65625 8.207031 12.679688 C 7.984375 12.773438 7.785156 12.9375 7.601562 13.097656 C 7.578125 13.113281 7.558594 13.132812 7.535156 13.152344 C 7.179688 13.460938 6.78125 13.8125 6.230469 13.726562 C 5.617188 13.632812 5.164062 13.160156 4.835938 12.757812 C 4.824219 12.738281 4.804688 12.71875 4.792969 12.691406 C 4.773438 12.648438 4.769531 12.609375 4.777344 12.566406 C 4.78125 12.53125 4.796875 12.5 4.824219 12.46875 Z M 4.824219 12.46875 " fill-opacity="1" fill-rule="nonzero"/><path fill="#a5cc15" d="M 4.851562 12.71875 C 4.84375 12.703125 4.839844 12.6875 4.84375 12.671875 C 4.84375 12.648438 4.859375 12.632812 4.875 12.617188 C 5.191406 12.269531 5.601562 11.957031 6.027344 11.761719 C 6.488281 11.554688 7 11.523438 7.480469 11.65625 C 7.839844 11.753906 8.628906 12.082031 8.753906 12.460938 C 8.597656 12.546875 8.414062 12.601562 8.25 12.667969 C 8 12.773438 7.785156 12.945312 7.585938 13.121094 C 7.203125 13.449219 6.808594 13.828125 6.265625 13.738281 C 5.683594 13.644531 5.238281 13.199219 4.878906 12.761719 C 4.867188 12.75 4.859375 12.734375 4.851562 12.71875 Z M 4.851562 12.71875 " fill-opacity="1" fill-rule="nonzero"/><path fill="#9bbf02" d="M 6.265625 13.738281 C 6.808594 13.828125 7.203125 13.453125 7.585938 13.121094 C 7.785156 12.945312 8 12.773438 8.25 12.667969 C 8.414062 12.601562 8.597656 12.546875 8.753906 12.460938 C 8.726562 12.382812 8.671875 12.304688 8.597656 12.230469 C 8.464844 12.289062 8.324219 12.335938 8.191406 12.390625 C 7.941406 12.496094 7.730469 12.667969 7.527344 12.84375 C 7.144531 13.171875 6.753906 13.546875 6.207031 13.460938 C 5.671875 13.375 5.25 12.988281 4.90625 12.582031 C 4.894531 12.59375 4.886719 12.605469 4.875 12.617188 C 4.859375 12.632812 4.84375 12.648438 4.839844 12.671875 C 4.839844 12.6875 4.84375 12.703125 4.851562 12.71875 C 4.855469 12.734375 4.867188 12.75 4.878906 12.761719 C 5.234375 13.199219 5.683594 13.644531 6.265625 13.738281 Z M 6.265625 13.738281 " fill-opacity="1" fill-rule="nonzero"/><path fill="#96ba00" d="M 4.875 12.65625 C 4.878906 12.652344 4.886719 12.648438 4.890625 12.644531 C 6.726562 12.085938 7.414062 11.875 8.671875 12.394531 C 8.691406 12.402344 8.699219 12.421875 8.691406 12.4375 C 8.683594 12.457031 8.664062 12.464844 8.648438 12.457031 C 7.410156 11.945312 6.730469 12.152344 4.910156 12.710938 C 4.894531 12.714844 4.875 12.707031 4.871094 12.6875 C 4.867188 12.675781 4.871094 12.664062 4.875 12.65625 Z M 4.875 12.65625 " fill-opacity="1" fill-rule="nonzero"/><path fill="#96ba00" d="M 7.371094 12.109375 C 7.375 12.109375 7.375 12.105469 7.375 12.105469 C 7.390625 12.09375 7.410156 12.09375 7.421875 12.109375 C 7.585938 12.304688 8.050781 12.515625 8.054688 12.515625 C 8.070312 12.523438 8.078125 12.542969 8.070312 12.558594 C 8.0625 12.578125 8.042969 12.585938 8.027344 12.578125 C 8.007812 12.566406 7.546875 12.359375 7.371094 12.152344 C 7.363281 12.140625 7.363281 12.121094 7.371094 12.109375 Z M 7.371094 12.109375 " fill-opacity="1" fill-rule="nonzero"/><path fill="#96ba00" d="M 6.6875 12.167969 C 6.6875 12.164062 6.6875 12.164062 6.691406 12.164062 C 6.96875 11.921875 7.515625 11.867188 7.535156 11.867188 C 7.554688 11.863281 7.570312 11.878906 7.574219 11.894531 C 7.574219 11.914062 7.5625 11.929688 7.542969 11.933594 C 7.539062 11.933594 6.996094 11.984375 6.734375 12.214844 C 6.71875 12.226562 6.699219 12.222656 6.6875 12.210938 C 6.675781 12.199219 6.675781 12.179688 6.6875 12.167969 Z M 6.6875 12.167969 " fill-opacity="1" fill-rule="nonzero"/><path fill="#96ba00" d="M 5.945312 12.339844 C 5.949219 12.335938 5.953125 12.332031 5.957031 12.332031 C 5.972656 12.320312 5.992188 12.328125 6 12.34375 C 6.019531 12.378906 6.398438 12.773438 6.929688 12.882812 C 6.949219 12.886719 6.960938 12.90625 6.957031 12.921875 C 6.953125 12.941406 6.933594 12.953125 6.917969 12.949219 C 6.371094 12.835938 5.976562 12.4375 5.941406 12.375 C 5.9375 12.363281 5.9375 12.347656 5.945312 12.339844 Z M 5.945312 12.339844 " fill-opacity="1" fill-rule="nonzero"/><path fill="#96ba00" d="M 5.429688 12.265625 C 5.65625 11.992188 5.972656 11.875 5.988281 11.871094 C 6.003906 11.863281 6.023438 11.875 6.03125 11.890625 C 6.039062 11.90625 6.027344 11.925781 6.011719 11.933594 C 6.003906 11.933594 5.5 12.121094 5.324219 12.570312 C 5.316406 12.589844 5.296875 12.597656 5.277344 12.589844 C 5.261719 12.582031 5.253906 12.5625 5.261719 12.546875 C 5.304688 12.441406 5.363281 12.347656 5.429688 12.265625 Z M 5.429688 12.265625 " fill-opacity="1" fill-rule="nonzero"/><path fill="#f8ae28" d="M 14.808594 3.765625 C 14.8125 3.769531 14.820312 3.773438 14.828125 3.777344 C 15.257812 4.015625 15.648438 4.347656 15.921875 4.699219 C 16.234375 5.101562 16.394531 5.601562 16.378906 6.109375 C 16.367188 6.433594 16.25 7.328125 15.851562 7.566406 L 15.757812 7.621094 L 15.6875 7.539062 C 15.605469 7.449219 15.535156 7.347656 15.46875 7.246094 C 15.433594 7.199219 15.402344 7.148438 15.371094 7.105469 C 15.226562 6.910156 15.023438 6.753906 14.828125 6.613281 C 14.804688 6.59375 14.78125 6.578125 14.753906 6.558594 C 14.375 6.285156 13.941406 5.972656 13.898438 5.421875 C 13.851562 4.800781 14.210938 4.25 14.527344 3.84375 C 14.542969 3.824219 14.558594 3.804688 14.582031 3.785156 C 14.617188 3.757812 14.65625 3.742188 14.699219 3.738281 C 14.734375 3.738281 14.769531 3.746094 14.808594 3.765625 Z M 14.808594 3.765625 " fill-opacity="1" fill-rule="nonzero"/><path fill="#a5cc15" d="M 14.570312 3.847656 C 14.582031 3.835938 14.597656 3.828125 14.613281 3.828125 C 14.632812 3.828125 14.65625 3.835938 14.675781 3.847656 C 15.082031 4.078125 15.480469 4.402344 15.765625 4.777344 C 16.074219 5.175781 16.222656 5.667969 16.203125 6.167969 C 16.1875 6.535156 16.050781 7.382812 15.707031 7.589844 C 15.589844 7.453125 15.496094 7.292969 15.390625 7.144531 C 15.234375 6.925781 15.015625 6.757812 14.800781 6.601562 C 14.390625 6.300781 13.9375 6.007812 13.898438 5.457031 C 13.855469 4.871094 14.1875 4.332031 14.535156 3.886719 C 14.542969 3.871094 14.554688 3.855469 14.570312 3.847656 Z M 14.570312 3.847656 " fill-opacity="1" fill-rule="nonzero"/><path fill="#9bbf02" d="M 13.898438 5.457031 C 13.933594 6.007812 14.390625 6.300781 14.800781 6.601562 C 15.015625 6.757812 15.234375 6.925781 15.390625 7.144531 C 15.496094 7.289062 15.589844 7.453125 15.707031 7.589844 C 15.78125 7.546875 15.84375 7.472656 15.898438 7.382812 C 15.808594 7.269531 15.730469 7.140625 15.648438 7.023438 C 15.488281 6.808594 15.273438 6.636719 15.058594 6.480469 C 14.648438 6.183594 14.191406 5.886719 14.15625 5.335938 C 14.117188 4.792969 14.398438 4.296875 14.710938 3.871094 C 14.699219 3.863281 14.6875 3.855469 14.671875 3.847656 C 14.65625 3.835938 14.632812 3.824219 14.613281 3.828125 C 14.59375 3.828125 14.582031 3.835938 14.566406 3.84375 C 14.554688 3.855469 14.542969 3.871094 14.53125 3.882812 C 14.1875 4.332031 13.855469 4.867188 13.898438 5.457031 Z M 13.898438 5.457031 " fill-opacity="1" fill-rule="nonzero"/><path fill="#96ba00" d="M 14.636719 3.859375 C 14.640625 3.859375 14.644531 3.863281 14.648438 3.871094 C 15.613281 5.53125 15.976562 6.152344 15.753906 7.496094 C 15.75 7.511719 15.734375 7.523438 15.714844 7.523438 C 15.699219 7.519531 15.6875 7.503906 15.6875 7.484375 C 15.90625 6.164062 15.546875 5.550781 14.59375 3.90625 C 14.582031 3.886719 14.589844 3.867188 14.605469 3.859375 C 14.613281 3.851562 14.625 3.851562 14.636719 3.859375 Z M 14.636719 3.859375 " fill-opacity="1" fill-rule="nonzero"/><path fill="#96ba00" d="M 15.738281 6.164062 C 15.738281 6.164062 15.742188 6.164062 15.742188 6.164062 C 15.757812 6.175781 15.757812 6.199219 15.75 6.210938 C 15.597656 6.414062 15.496094 6.914062 15.496094 6.917969 C 15.492188 6.9375 15.476562 6.949219 15.457031 6.945312 C 15.4375 6.941406 15.425781 6.925781 15.429688 6.90625 C 15.433594 6.886719 15.535156 6.386719 15.695312 6.171875 C 15.703125 6.160156 15.722656 6.15625 15.738281 6.164062 Z M 15.738281 6.164062 " fill-opacity="1" fill-rule="nonzero"/><path fill="#96ba00" d="M 15.523438 5.507812 C 15.523438 5.507812 15.527344 5.511719 15.527344 5.511719 C 15.828125 5.726562 16.003906 6.246094 16.011719 6.269531 C 16.015625 6.285156 16.007812 6.304688 15.988281 6.308594 C 15.972656 6.316406 15.953125 6.304688 15.949219 6.289062 C 15.945312 6.285156 15.769531 5.769531 15.488281 5.566406 C 15.472656 5.554688 15.472656 5.535156 15.480469 5.519531 C 15.492188 5.503906 15.507812 5.5 15.523438 5.507812 Z M 15.523438 5.507812 " fill-opacity="1" fill-rule="nonzero"/><path fill="#96ba00" d="M 15.1875 4.828125 C 15.191406 4.828125 15.195312 4.832031 15.199219 4.835938 C 15.210938 4.847656 15.210938 4.871094 15.195312 4.882812 C 15.167969 4.910156 14.867188 5.363281 14.882812 5.910156 C 14.882812 5.929688 14.867188 5.945312 14.847656 5.945312 C 14.832031 5.945312 14.816406 5.929688 14.816406 5.914062 C 14.800781 5.355469 15.097656 4.878906 15.152344 4.832031 C 15.160156 4.824219 15.175781 4.820312 15.1875 4.828125 Z M 15.1875 4.828125 " fill-opacity="1" fill-rule="nonzero"/><path fill="#96ba00" d="M 15.140625 4.304688 C 15.460938 4.464844 15.644531 4.746094 15.652344 4.761719 C 15.664062 4.777344 15.660156 4.796875 15.644531 4.808594 C 15.628906 4.816406 15.605469 4.8125 15.597656 4.796875 C 15.59375 4.792969 15.296875 4.34375 14.820312 4.273438 C 14.800781 4.269531 14.789062 4.253906 14.792969 4.234375 C 14.792969 4.214844 14.8125 4.203125 14.828125 4.207031 C 14.941406 4.222656 15.046875 4.261719 15.140625 4.304688 Z M 15.140625 4.304688 " fill-opacity="1" fill-rule="nonzero"/><path fill="#f8ae28" d="M 11.753906 18.058594 C 11.757812 18.0625 11.761719 18.066406 11.765625 18.074219 C 12.089844 18.449219 12.34375 18.890625 12.484375 19.316406 C 12.636719 19.796875 12.617188 20.324219 12.429688 20.796875 C 12.308594 21.097656 11.894531 21.898438 11.4375 21.984375 L 11.332031 22.003906 L 11.292969 21.90625 C 11.246094 21.792969 11.21875 21.671875 11.1875 21.558594 C 11.171875 21.5 11.160156 21.441406 11.144531 21.390625 C 11.074219 21.15625 10.9375 20.941406 10.800781 20.742188 C 10.785156 20.714844 10.769531 20.691406 10.75 20.667969 C 10.488281 20.28125 10.1875 19.839844 10.335938 19.304688 C 10.503906 18.707031 11.027344 18.3125 11.464844 18.035156 C 11.484375 18.023438 11.507812 18.007812 11.535156 18 C 11.578125 17.984375 11.621094 17.984375 11.660156 17.996094 C 11.691406 18.007812 11.722656 18.027344 11.753906 18.058594 Z M 11.753906 18.058594 " fill-opacity="1" fill-rule="nonzero"/><path fill="#a5cc15" d="M 11.5 18.050781 C 11.515625 18.046875 11.53125 18.042969 11.546875 18.050781 C 11.566406 18.054688 11.582031 18.074219 11.597656 18.089844 C 11.90625 18.445312 12.167969 18.886719 12.308594 19.335938 C 12.460938 19.8125 12.433594 20.328125 12.242188 20.789062 C 12.105469 21.132812 11.6875 21.882812 11.296875 21.960938 C 11.230469 21.792969 11.195312 21.605469 11.148438 21.433594 C 11.074219 21.171875 10.925781 20.941406 10.777344 20.71875 C 10.496094 20.300781 10.167969 19.867188 10.320312 19.335938 C 10.480469 18.769531 10.976562 18.378906 11.453125 18.074219 C 11.46875 18.066406 11.484375 18.058594 11.5 18.050781 Z M 11.5 18.050781 " fill-opacity="1" fill-rule="nonzero"/><path fill="#9bbf02" d="M 10.320312 19.335938 C 10.167969 19.867188 10.496094 20.300781 10.777344 20.71875 C 10.925781 20.941406 11.074219 21.171875 11.148438 21.429688 C 11.195312 21.605469 11.230469 21.792969 11.296875 21.957031 C 11.378906 21.941406 11.460938 21.894531 11.542969 21.832031 C 11.5 21.691406 11.46875 21.546875 11.429688 21.40625 C 11.355469 21.148438 11.210938 20.917969 11.0625 20.695312 C 10.777344 20.277344 10.449219 19.84375 10.601562 19.3125 C 10.75 18.789062 11.1875 18.414062 11.625 18.121094 C 11.617188 18.109375 11.605469 18.101562 11.597656 18.089844 C 11.582031 18.070312 11.566406 18.054688 11.546875 18.046875 C 11.53125 18.042969 11.515625 18.046875 11.5 18.050781 C 11.484375 18.058594 11.464844 18.066406 11.453125 18.074219 C 10.976562 18.378906 10.480469 18.769531 10.320312 19.335938 Z M 10.320312 19.335938 " fill-opacity="1" fill-rule="nonzero"/><path fill="#96ba00" d="M 11.558594 18.085938 C 11.5625 18.089844 11.566406 18.09375 11.566406 18.101562 C 11.910156 19.992188 12.035156 20.699219 11.371094 21.886719 C 11.363281 21.902344 11.339844 21.90625 11.324219 21.898438 C 11.308594 21.890625 11.304688 21.871094 11.3125 21.851562 C 11.964844 20.6875 11.839844 19.984375 11.5 18.113281 C 11.496094 18.09375 11.511719 18.078125 11.527344 18.074219 C 11.539062 18.074219 11.550781 18.078125 11.558594 18.085938 Z M 11.558594 18.085938 " fill-opacity="1" fill-rule="nonzero"/><path fill="#96ba00" d="M 11.808594 20.628906 C 11.808594 20.628906 11.8125 20.628906 11.8125 20.632812 C 11.820312 20.648438 11.816406 20.667969 11.800781 20.679688 C 11.589844 20.816406 11.328125 21.253906 11.324219 21.257812 C 11.316406 21.273438 11.292969 21.277344 11.277344 21.269531 C 11.261719 21.261719 11.257812 21.238281 11.265625 21.222656 C 11.277344 21.207031 11.542969 20.769531 11.765625 20.621094 C 11.78125 20.613281 11.796875 20.617188 11.808594 20.628906 Z M 11.808594 20.628906 " fill-opacity="1" fill-rule="nonzero"/><path fill="#96ba00" d="M 11.832031 19.941406 C 11.832031 19.941406 11.832031 19.941406 11.835938 19.945312 C 12.042969 20.25 12.03125 20.796875 12.03125 20.820312 C 12.03125 20.839844 12.015625 20.851562 11.996094 20.851562 C 11.980469 20.851562 11.964844 20.835938 11.964844 20.816406 C 11.964844 20.8125 11.976562 20.269531 11.78125 19.980469 C 11.769531 19.964844 11.773438 19.945312 11.789062 19.933594 C 11.800781 19.925781 11.820312 19.929688 11.832031 19.941406 Z M 11.832031 19.941406 " fill-opacity="1" fill-rule="nonzero"/><path fill="#96ba00" d="M 11.746094 19.183594 C 11.75 19.1875 11.753906 19.191406 11.753906 19.195312 C 11.761719 19.214844 11.753906 19.230469 11.734375 19.238281 C 11.699219 19.253906 11.265625 19.582031 11.089844 20.097656 C 11.085938 20.117188 11.066406 20.125 11.046875 20.121094 C 11.03125 20.113281 11.019531 20.09375 11.027344 20.078125 C 11.207031 19.546875 11.644531 19.203125 11.710938 19.175781 C 11.722656 19.171875 11.738281 19.175781 11.746094 19.183594 Z M 11.746094 19.183594 " fill-opacity="1" fill-rule="nonzero"/><path fill="#96ba00" d="M 11.878906 18.679688 C 12.125 18.9375 12.203125 19.265625 12.207031 19.28125 C 12.210938 19.300781 12.199219 19.316406 12.183594 19.320312 C 12.164062 19.324219 12.148438 19.3125 12.144531 19.296875 C 12.140625 19.292969 12.015625 18.769531 11.589844 18.539062 C 11.574219 18.527344 11.566406 18.507812 11.578125 18.492188 C 11.585938 18.476562 11.605469 18.46875 11.621094 18.480469 C 11.722656 18.535156 11.808594 18.601562 11.878906 18.679688 Z M 11.878906 18.679688 " fill-opacity="1" fill-rule="nonzero"/></svg>