<svg xmlns="http://www.w3.org/2000/svg" xmlns:xlink="http://www.w3.org/1999/xlink" width="40" zoomAndPan="magnify" viewBox="0 0 30 30.000001" height="40" preserveAspectRatio="xMidYMid meet" version="1.0"><defs><clipPath id="id1"><path d="M 3.386719 0 L 27.339844 0 L 27.339844 6 L 3.386719 6 Z M 3.386719 0 " clip-rule="nonzero"/></clipPath><clipPath id="id2"><path d="M 5 2 L 26 2 L 26 29.03125 L 5 29.03125 Z M 5 2 " clip-rule="nonzero"/></clipPath></defs><g clip-path="url(#id1)"><path fill="#ed9740" d="M 15.363281 3.238281 C 21.15625 3.238281 25.742188 6.460938 27.097656 4.847656 C 27.253906 4.589844 27.339844 4.320312 27.339844 4.042969 C 27.339844 2.433594 21.976562 0.015625 15.363281 0.015625 C 8.75 0.015625 3.386719 2.433594 3.386719 4.042969 C 3.386719 4.320312 3.46875 4.589844 3.628906 4.847656 C 4.984375 6.460938 9.570312 3.238281 15.363281 3.238281 Z M 15.363281 3.238281 " fill-opacity="1" fill-rule="nonzero"/></g><g clip-path="url(#id2)"><path fill="#fddf7a" d="M 15.363281 2.433594 C 10.402344 2.433594 6.886719 3.890625 5.5625 4.542969 C 5.183594 4.730469 5.132812 5.21875 5.234375 5.570312 C 5.332031 5.925781 13.765625 27.40625 13.765625 27.40625 C 13.765625 27.40625 14.480469 29.015625 15.363281 29.015625 C 16.246094 29.015625 16.960938 27.40625 16.960938 27.40625 L 25.503906 5.476562 C 25.503906 5.476562 25.675781 4.796875 25.050781 4.488281 C 23.660156 3.792969 20.191406 2.433594 15.363281 2.433594 Z M 15.363281 2.433594 " fill-opacity="1" fill-rule="nonzero"/></g><path fill="#ed4642" d="M 15.363281 24.988281 C 15.363281 23.210938 13.933594 21.765625 12.167969 21.765625 C 11.964844 21.765625 11.769531 21.789062 11.578125 21.828125 L 13.765625 27.40625 C 13.765625 27.40625 13.824219 27.519531 13.917969 27.679688 C 14.789062 27.105469 15.363281 26.117188 15.363281 24.988281 Z M 14.566406 16.128906 C 14.566406 14.347656 13.132812 12.90625 11.371094 12.90625 C 10.234375 12.90625 9.238281 13.511719 8.675781 14.417969 L 10.558594 19.230469 C 10.820312 19.300781 11.089844 19.347656 11.371094 19.347656 C 13.132812 19.347656 14.566406 17.90625 14.566406 16.128906 Z M 14.566406 16.128906 " fill-opacity="1" fill-rule="nonzero"/><path fill="#ed4642" d="M 16.960938 6.460938 C 16.960938 6.886719 16.878906 7.296875 16.714844 7.695312 C 16.554688 8.089844 16.324219 8.4375 16.023438 8.738281 C 15.726562 9.042969 15.378906 9.273438 14.988281 9.4375 C 14.597656 9.601562 14.191406 9.683594 13.765625 9.683594 C 13.34375 9.683594 12.933594 9.601562 12.542969 9.4375 C 12.152344 9.273438 11.808594 9.042969 11.507812 8.738281 C 11.207031 8.4375 10.976562 8.089844 10.816406 7.695312 C 10.652344 7.296875 10.574219 6.886719 10.574219 6.460938 C 10.574219 6.03125 10.652344 5.621094 10.816406 5.226562 C 10.976562 4.832031 11.207031 4.484375 11.507812 4.183594 C 11.808594 3.878906 12.152344 3.648438 12.542969 3.484375 C 12.933594 3.320312 13.34375 3.238281 13.765625 3.238281 C 14.191406 3.238281 14.597656 3.320312 14.988281 3.484375 C 15.378906 3.648438 15.726562 3.878906 16.023438 4.183594 C 16.324219 4.484375 16.554688 4.832031 16.714844 5.226562 C 16.878906 5.621094 16.960938 6.03125 16.960938 6.460938 Z M 16.960938 6.460938 " fill-opacity="1" fill-rule="nonzero"/><path fill="#ed4642" d="M 20.953125 7.265625 C 19.1875 7.265625 17.757812 8.707031 17.757812 10.488281 C 17.757812 12.269531 19.1875 13.710938 20.953125 13.710938 C 21.496094 13.710938 22 13.558594 22.449219 13.316406 L 23.960938 9.445312 C 23.527344 8.179688 22.351562 7.265625 20.953125 7.265625 Z M 16.160156 20.15625 C 16.160156 21.660156 17.191406 22.914062 18.570312 23.269531 L 20.882812 17.339844 C 20.425781 17.089844 19.910156 16.933594 19.355469 16.933594 C 17.59375 16.933594 16.160156 18.375 16.160156 20.15625 Z M 8.976562 9.683594 C 8.976562 7.902344 7.546875 6.460938 5.78125 6.460938 C 5.710938 6.460938 5.648438 6.476562 5.578125 6.480469 C 6.019531 7.617188 6.835938 9.714844 7.792969 12.167969 C 8.507812 11.574219 8.976562 10.6875 8.976562 9.683594 Z M 8.976562 9.683594 " fill-opacity="1" fill-rule="nonzero"/></svg>