<svg xmlns="http://www.w3.org/2000/svg" xmlns:xlink="http://www.w3.org/1999/xlink" width="40" zoomAndPan="magnify" viewBox="0 0 30 30.000001" height="40" preserveAspectRatio="xMidYMid meet" version="1.0"><defs><clipPath id="id1"><path d="M 0.484375 3 L 27 3 L 27 29 L 0.484375 29 Z M 0.484375 3 " clip-rule="nonzero"/></clipPath><clipPath id="id2"><path d="M 0.484375 3 L 17 3 L 17 28 L 0.484375 28 Z M 0.484375 3 " clip-rule="nonzero"/></clipPath><clipPath id="id3"><path d="M 8 0 L 29.515625 0 L 29.515625 21 L 8 21 Z M 8 0 " clip-rule="nonzero"/></clipPath></defs><g clip-path="url(#id1)"><path fill="#f5da24" d="M 26.210938 18.347656 C 26 18.230469 24.691406 19.078125 23.910156 19.585938 C 23.644531 19.761719 23.4375 19.898438 23.363281 19.941406 C 23.027344 20.132812 22.695312 20.324219 22.359375 20.515625 C 22.257812 20.574219 22.15625 20.632812 22.058594 20.691406 C 21.847656 20.371094 21.601562 20.074219 21.320312 19.796875 C 20.78125 19.28125 20.164062 18.902344 19.507812 18.664062 C 19.433594 18.636719 19.359375 18.613281 19.28125 18.589844 C 19.214844 18.566406 19.148438 18.546875 19.082031 18.53125 C 18.714844 18.433594 18.34375 18.378906 17.96875 18.363281 C 17.835938 18.355469 17.703125 18.355469 17.566406 18.363281 C 16.664062 18.398438 15.769531 18.671875 14.984375 19.183594 C 14.921875 19.226562 14.855469 19.273438 14.789062 19.316406 C 14.722656 19.367188 14.660156 19.414062 14.59375 19.464844 C 14.40625 19.617188 14.222656 19.78125 14.050781 19.964844 C 13.175781 20.890625 12.707031 22.058594 12.636719 23.242188 C 11.652344 23.246094 10.667969 23.636719 9.933594 24.414062 C 9.175781 25.214844 8.832031 26.265625 8.902344 27.289062 C 8.699219 27.382812 8.496094 27.472656 8.292969 27.558594 C 7.148438 28.058594 5.988281 28.503906 4.859375 28.765625 C 3.820312 29.011719 2.703125 28.984375 1.8125 28.480469 C 1.554688 28.332031 1.34375 28.167969 1.175781 27.984375 C 0.546875 27.316406 0.484375 26.4375 0.644531 25.519531 C 0.769531 24.804688 1.03125 24.066406 1.269531 23.375 C 2.097656 20.972656 3.203125 18.660156 4.242188 16.332031 C 5.367188 13.804688 6.449219 11.253906 7.765625 8.808594 C 7.882812 8.589844 8.597656 7.457031 9.328125 6.289062 C 10.179688 4.929688 11.046875 3.53125 11.011719 3.492188 C 12.90625 5.34375 14.804688 7.199219 16.699219 9.050781 C 19.871094 12.152344 23.039062 15.25 26.210938 18.347656 Z M 26.210938 18.347656 " fill-opacity="1" fill-rule="nonzero"/></g><g clip-path="url(#id2)"><path fill="#f8ae28" d="M 1.175781 27.984375 C 0.546875 27.316406 0.484375 26.4375 0.644531 25.519531 C 0.769531 24.804688 1.03125 24.066406 1.269531 23.375 C 2.101562 20.972656 3.203125 18.660156 4.242188 16.332031 C 5.367188 13.804688 6.449219 11.253906 7.765625 8.808594 C 8.019531 8.335938 11.082031 3.5625 11.007812 3.492188 C 12.90625 5.347656 14.800781 7.199219 16.699219 9.050781 C 10.570312 8.652344 4.09375 12.445312 1.175781 27.984375 Z M 1.175781 27.984375 " fill-opacity="1" fill-rule="nonzero"/></g><path fill="#f8ae28" d="M 26.210938 18.347656 C 26 18.230469 24.691406 19.078125 23.910156 19.585938 C 23.851562 19.507812 23.792969 19.425781 23.734375 19.339844 C 22.925781 18.191406 22.269531 16.847656 21.253906 15.890625 C 20.003906 14.71875 18.441406 14.792969 17.511719 13.226562 C 16.5 11.527344 15.324219 9.957031 13.667969 8.863281 C 12.488281 8.082031 10.574219 7.359375 9.328125 6.289062 C 10.179688 4.929688 11.046875 3.53125 11.007812 3.492188 C 12.90625 5.347656 14.800781 7.199219 16.699219 9.054688 C 19.871094 12.152344 23.042969 15.25 26.210938 18.347656 Z M 26.210938 18.347656 " fill-opacity="1" fill-rule="nonzero"/><g clip-path="url(#id3)"><path fill="#e86a0d" d="M 24.089844 18.78125 C 23.285156 17.632812 22.628906 16.289062 21.609375 15.332031 C 20.359375 14.160156 18.800781 14.234375 17.867188 12.667969 C 16.855469 10.96875 15.683594 9.398438 14.023438 8.304688 C 11.828125 6.851562 7.078125 5.589844 8.851562 1.941406 C 9.785156 0.0195312 11.660156 0.535156 13.117188 1.503906 C 14.757812 2.59375 16.195312 3.953125 17.789062 5.109375 C 19.378906 6.261719 21.078125 7.273438 22.570312 8.566406 C 24.050781 9.855469 25.097656 11.492188 26.386719 12.960938 C 27.808594 14.582031 30.964844 18.527344 27.652344 20.167969 C 26.398438 20.789062 25.070312 20.097656 24.292969 19.058594 C 24.222656 18.96875 24.15625 18.875 24.089844 18.78125 Z M 24.089844 18.78125 " fill-opacity="1" fill-rule="nonzero"/></g><path fill="#ca5312" d="M 28.257812 19.710938 C 27 20.332031 25.675781 19.640625 24.898438 18.601562 C 24.828125 18.511719 24.761719 18.417969 24.695312 18.324219 C 23.890625 17.175781 23.230469 15.832031 22.210938 14.875 C 20.964844 13.703125 19.402344 13.777344 18.472656 12.210938 C 17.460938 10.511719 16.285156 8.941406 14.628906 7.847656 C 12.433594 6.394531 7.679688 5.132812 9.457031 1.484375 C 9.585938 1.21875 9.730469 1.003906 9.890625 0.828125 C 9.488281 1.019531 9.128906 1.375 8.851562 1.941406 C 7.078125 5.589844 11.828125 6.851562 14.023438 8.304688 C 15.683594 9.398438 16.855469 10.96875 17.867188 12.667969 C 18.800781 14.234375 20.359375 14.160156 21.609375 15.332031 C 22.628906 16.289062 23.285156 17.632812 24.089844 18.78125 C 24.15625 18.875 24.222656 18.96875 24.292969 19.058594 C 25.070312 20.097656 26.394531 20.789062 27.652344 20.167969 C 27.996094 20 28.265625 19.804688 28.480469 19.589844 C 28.410156 19.632812 28.335938 19.671875 28.257812 19.710938 Z M 28.257812 19.710938 " fill-opacity="1" fill-rule="nonzero"/><path fill="#f8ae28" d="M 15.714844 15.261719 C 15.621094 15.441406 15.648438 15.671875 15.753906 15.84375 C 15.839844 15.980469 15.976562 16.082031 16.140625 16.082031 C 17.078125 16.097656 16.105469 14.523438 15.714844 15.261719 Z M 15.714844 15.261719 " fill-opacity="1" fill-rule="nonzero"/><path fill="#f8ae28" d="M 5.921875 25.21875 C 5.828125 25.398438 5.855469 25.625 5.960938 25.796875 C 6.046875 25.9375 6.183594 26.035156 6.347656 26.039062 C 7.285156 26.050781 6.3125 24.480469 5.921875 25.21875 Z M 5.921875 25.21875 " fill-opacity="1" fill-rule="nonzero"/><path fill="#f8ae28" d="M 2.109375 27.253906 C 2.046875 27.339844 1.980469 27.429688 1.957031 27.535156 C 1.9375 27.640625 1.964844 27.765625 2.058594 27.820312 C 2.183594 27.894531 2.351562 27.800781 2.425781 27.675781 C 2.496094 27.546875 2.515625 27.394531 2.570312 27.257812 C 2.644531 27.074219 3.503906 26.242188 3.207031 26.117188 C 2.855469 25.96875 2.25 27.058594 2.109375 27.253906 Z M 2.109375 27.253906 " fill-opacity="1" fill-rule="nonzero"/><path fill="#f8ae28" d="M 7.566406 13.675781 C 7.761719 13.777344 8.007812 13.679688 8.171875 13.527344 C 8.582031 13.136719 8.832031 11.390625 7.96875 11.441406 C 7.257812 11.480469 7.027344 13.402344 7.566406 13.675781 Z M 7.566406 13.675781 " fill-opacity="1" fill-rule="nonzero"/><path fill="#f8ae28" d="M 10.960938 14.847656 C 10.789062 14.933594 10.605469 15.125 10.703125 15.292969 C 10.796875 15.453125 11.035156 15.402344 11.203125 15.324219 C 11.410156 15.226562 12.0625 15.03125 11.882812 14.738281 C 11.710938 14.46875 11.140625 14.753906 10.960938 14.847656 Z M 10.960938 14.847656 " fill-opacity="1" fill-rule="nonzero"/><path fill="#f8ae28" d="M 13.703125 11.1875 C 13.53125 11.273438 13.347656 11.464844 13.445312 11.632812 C 13.535156 11.792969 13.777344 11.742188 13.941406 11.664062 C 14.152344 11.566406 14.804688 11.371094 14.621094 11.078125 C 14.453125 10.804688 13.882812 11.09375 13.703125 11.1875 Z M 13.703125 11.1875 " fill-opacity="1" fill-rule="nonzero"/><path fill="#f8ae28" d="M 3.40625 21.886719 C 3.53125 21.929688 3.671875 21.972656 3.800781 21.972656 C 3.640625 21.796875 3.425781 21.6875 3.25 21.539062 C 3.140625 21.445312 3.023438 21.359375 2.894531 21.304688 C 2.839844 21.28125 2.480469 21.253906 2.476562 21.246094 C 2.695312 21.5625 3.039062 21.773438 3.40625 21.886719 Z M 3.40625 21.886719 " fill-opacity="1" fill-rule="nonzero"/><path fill="#f8ae28" d="M 20.820312 17.53125 C 20.875 17.808594 21.242188 17.917969 21.5 17.8125 C 21.878906 17.65625 22.691406 16.75 21.972656 16.546875 C 21.515625 16.417969 20.714844 17.039062 20.820312 17.53125 Z M 20.820312 17.53125 " fill-opacity="1" fill-rule="nonzero"/><path fill="#f8ae28" d="M 6.59375 19.765625 C 6.566406 19.964844 6.808594 19.957031 7.027344 19.808594 C 7.347656 19.59375 8.171875 18.703125 7.6875 18.726562 C 7.382812 18.742188 6.636719 19.414062 6.59375 19.765625 Z M 6.59375 19.765625 " fill-opacity="1" fill-rule="nonzero"/><path fill="#f8ae28" d="M 11.34375 11.058594 C 11.683594 11.117188 12.003906 11.234375 12.296875 11.417969 C 12.589844 11.601562 12.839844 11.835938 13.042969 12.121094 C 13.242188 12.402344 13.382812 12.714844 13.464844 13.054688 C 13.542969 13.398438 13.554688 13.738281 13.5 14.085938 C 13.445312 14.429688 13.324219 14.75 13.144531 15.046875 C 12.960938 15.34375 12.730469 15.597656 12.449219 15.800781 C 12.167969 16.003906 11.859375 16.148438 11.523438 16.226562 C 11.1875 16.308594 10.847656 16.320312 10.507812 16.265625 C 10.164062 16.207031 9.847656 16.089844 9.550781 15.90625 C 9.257812 15.722656 9.011719 15.488281 8.808594 15.203125 C 8.605469 14.921875 8.464844 14.609375 8.386719 14.269531 C 8.304688 13.925781 8.292969 13.585938 8.347656 13.238281 C 8.402344 12.894531 8.523438 12.574219 8.703125 12.277344 C 8.886719 11.976562 9.117188 11.726562 9.398438 11.523438 C 9.679688 11.320312 9.988281 11.175781 10.324219 11.097656 C 10.660156 11.015625 11 11.003906 11.34375 11.058594 Z M 11.34375 11.058594 " fill-opacity="1" fill-rule="nonzero"/><path fill="#a82640" d="M 12.847656 11.71875 C 13.085938 11.957031 13.269531 12.234375 13.398438 12.550781 C 13.527344 12.863281 13.59375 13.191406 13.59375 13.53125 C 13.59375 13.871094 13.527344 14.199219 13.398438 14.515625 C 13.269531 14.828125 13.085938 15.105469 12.847656 15.347656 C 12.609375 15.589844 12.335938 15.773438 12.023438 15.902344 C 11.710938 16.035156 11.386719 16.097656 11.050781 16.097656 C 10.714844 16.101562 10.390625 16.035156 10.078125 15.902344 C 9.769531 15.773438 9.492188 15.589844 9.253906 15.347656 C 9.015625 15.105469 8.832031 14.828125 8.703125 14.515625 C 8.574219 14.199219 8.511719 13.875 8.511719 13.53125 C 8.511719 13.191406 8.574219 12.863281 8.703125 12.550781 C 8.832031 12.234375 9.015625 11.957031 9.253906 11.71875 C 9.492188 11.476562 9.769531 11.292969 10.078125 11.160156 C 10.390625 11.03125 10.714844 10.964844 11.050781 10.964844 C 11.386719 10.964844 11.710938 11.03125 12.023438 11.160156 C 12.335938 11.292969 12.609375 11.476562 12.847656 11.71875 Z M 12.847656 11.71875 " fill-opacity="1" fill-rule="nonzero"/><path fill="#961c36" d="M 11.347656 15.78125 C 9.945312 15.78125 8.808594 14.632812 8.808594 13.214844 C 8.808594 12.613281 9.011719 12.0625 9.351562 11.625 C 8.835938 12.09375 8.511719 12.777344 8.511719 13.53125 C 8.511719 14.949219 9.648438 16.101562 11.050781 16.101562 C 11.859375 16.101562 12.582031 15.71875 13.046875 15.121094 C 12.597656 15.53125 12 15.78125 11.347656 15.78125 Z M 11.347656 15.78125 " fill-opacity="1" fill-rule="nonzero"/><path fill="#961c36" d="M 11.128906 11.730469 C 11.128906 11.792969 11.082031 11.839844 11.023438 11.839844 C 10.960938 11.839844 10.914062 11.792969 10.914062 11.730469 C 10.914062 11.671875 10.960938 11.621094 11.023438 11.621094 C 11.082031 11.621094 11.128906 11.671875 11.128906 11.730469 Z M 11.128906 11.730469 " fill-opacity="1" fill-rule="nonzero"/><path fill="#961c36" d="M 9.554688 13.003906 C 9.554688 13.066406 9.507812 13.113281 9.445312 13.113281 C 9.386719 13.113281 9.339844 13.066406 9.339844 13.003906 C 9.339844 12.945312 9.386719 12.894531 9.445312 12.894531 C 9.507812 12.894531 9.554688 12.945312 9.554688 13.003906 Z M 9.554688 13.003906 " fill-opacity="1" fill-rule="nonzero"/><path fill="#961c36" d="M 10.207031 14.386719 C 10.207031 14.453125 10.171875 14.507812 10.125 14.507812 C 10.082031 14.507812 10.046875 14.453125 10.046875 14.386719 C 10.046875 14.320312 10.082031 14.269531 10.125 14.269531 C 10.171875 14.269531 10.207031 14.320312 10.207031 14.386719 Z M 10.207031 14.386719 " fill-opacity="1" fill-rule="nonzero"/><path fill="#961c36" d="M 10.460938 15.164062 C 10.460938 15.242188 10.433594 15.285156 10.382812 15.285156 C 10.328125 15.285156 10.304688 15.242188 10.304688 15.164062 C 10.304688 15.085938 10.328125 15.046875 10.382812 15.046875 C 10.433594 15.046875 10.460938 15.085938 10.460938 15.164062 Z M 10.460938 15.164062 " fill-opacity="1" fill-rule="nonzero"/><path fill="#961c36" d="M 12.390625 14.777344 C 12.390625 14.824219 12.367188 14.84375 12.320312 14.84375 C 12.277344 14.84375 12.253906 14.824219 12.253906 14.777344 C 12.253906 14.730469 12.277344 14.707031 12.320312 14.707031 C 12.367188 14.707031 12.390625 14.730469 12.390625 14.777344 Z M 12.390625 14.777344 " fill-opacity="1" fill-rule="nonzero"/><path fill="#961c36" d="M 11.996094 13.421875 C 11.996094 13.46875 11.972656 13.492188 11.929688 13.492188 C 11.882812 13.492188 11.859375 13.46875 11.859375 13.421875 C 11.859375 13.375 11.882812 13.355469 11.929688 13.355469 C 11.972656 13.355469 11.996094 13.375 11.996094 13.421875 Z M 11.996094 13.421875 " fill-opacity="1" fill-rule="nonzero"/><path fill="#961c36" d="M 9.199219 14.039062 C 9.199219 14.078125 9.230469 14.109375 9.269531 14.109375 C 9.308594 14.109375 9.339844 14.078125 9.339844 14.039062 C 9.339844 14 9.308594 13.96875 9.269531 13.96875 C 9.230469 13.96875 9.199219 14 9.199219 14.039062 Z M 9.199219 14.039062 " fill-opacity="1" fill-rule="nonzero"/><path fill="#961c36" d="M 10.875 13.265625 C 10.875 13.3125 10.835938 13.355469 10.785156 13.355469 C 10.738281 13.355469 10.695312 13.3125 10.695312 13.265625 C 10.695312 13.214844 10.738281 13.175781 10.785156 13.175781 C 10.835938 13.175781 10.875 13.214844 10.875 13.265625 Z M 10.875 13.265625 " fill-opacity="1" fill-rule="nonzero"/><path fill="#961c36" d="M 12.921875 12.539062 C 12.921875 12.59375 12.878906 12.636719 12.824219 12.636719 C 12.769531 12.636719 12.726562 12.59375 12.726562 12.539062 C 12.726562 12.480469 12.769531 12.4375 12.824219 12.4375 C 12.878906 12.4375 12.921875 12.484375 12.921875 12.539062 Z M 12.921875 12.539062 " fill-opacity="1" fill-rule="nonzero"/><path fill="#961c36" d="M 12.332031 11.730469 C 12.332031 11.792969 12.285156 11.839844 12.222656 11.839844 C 12.164062 11.839844 12.113281 11.792969 12.113281 11.730469 C 12.113281 11.671875 12.164062 11.621094 12.222656 11.621094 C 12.285156 11.621094 12.332031 11.671875 12.332031 11.730469 Z M 12.332031 11.730469 " fill-opacity="1" fill-rule="nonzero"/><path fill="#961c36" d="M 12.980469 13.988281 C 12.980469 14.054688 12.945312 14.109375 12.902344 14.109375 C 12.859375 14.109375 12.824219 14.054688 12.824219 13.988281 C 12.824219 13.925781 12.859375 13.871094 12.902344 13.871094 C 12.945312 13.871094 12.980469 13.925781 12.980469 13.988281 Z M 12.980469 13.988281 " fill-opacity="1" fill-rule="nonzero"/><path fill="#961c36" d="M 11.191406 15.351562 C 11.191406 15.398438 11.167969 15.421875 11.121094 15.421875 C 11.074219 15.421875 11.050781 15.398438 11.050781 15.351562 C 11.050781 15.308594 11.074219 15.285156 11.121094 15.285156 C 11.167969 15.285156 11.191406 15.308594 11.191406 15.351562 Z M 11.191406 15.351562 " fill-opacity="1" fill-rule="nonzero"/><path fill="#961c36" d="M 9.832031 11.761719 C 9.832031 11.804688 9.796875 11.839844 9.753906 11.839844 C 9.710938 11.839844 9.675781 11.804688 9.675781 11.761719 C 9.675781 11.71875 9.710938 11.683594 9.753906 11.683594 C 9.796875 11.683594 9.832031 11.71875 9.832031 11.761719 Z M 9.832031 11.761719 " fill-opacity="1" fill-rule="nonzero"/><path fill="#e78994" d="M 9.875 12.265625 C 9.761719 12.414062 9.75 12.59375 9.847656 12.667969 C 9.941406 12.742188 10.109375 12.679688 10.222656 12.53125 C 10.332031 12.382812 10.34375 12.203125 10.25 12.128906 C 10.152344 12.054688 9.984375 12.117188 9.875 12.265625 Z M 9.875 12.265625 " fill-opacity="1" fill-rule="nonzero"/><path fill="#e78994" d="M 12.21875 13.519531 C 12.105469 13.667969 12.09375 13.847656 12.1875 13.921875 C 12.285156 13.996094 12.453125 13.933594 12.5625 13.785156 C 12.675781 13.636719 12.6875 13.457031 12.59375 13.382812 C 12.496094 13.308594 12.328125 13.371094 12.21875 13.519531 Z M 12.21875 13.519531 " fill-opacity="1" fill-rule="nonzero"/><path fill="#e78994" d="M 10.957031 14.554688 C 10.847656 14.703125 10.832031 14.882812 10.929688 14.957031 C 11.023438 15.03125 11.191406 14.96875 11.304688 14.820312 C 11.414062 14.667969 11.429688 14.488281 11.332031 14.417969 C 11.238281 14.34375 11.070312 14.40625 10.957031 14.554688 Z M 10.957031 14.554688 " fill-opacity="1" fill-rule="nonzero"/><path fill="#e78994" d="M 10.03125 13.5625 C 10.082031 13.597656 10.101562 13.65625 10.097656 13.734375 C 10.089844 13.8125 10.058594 13.886719 10.003906 13.960938 C 9.949219 14.035156 9.882812 14.085938 9.8125 14.113281 C 9.738281 14.140625 9.675781 14.136719 9.628906 14.101562 C 9.582031 14.0625 9.5625 14.007812 9.566406 13.929688 C 9.570312 13.851562 9.601562 13.773438 9.660156 13.699219 C 9.714844 13.625 9.777344 13.574219 9.851562 13.546875 C 9.925781 13.519531 9.984375 13.523438 10.03125 13.5625 Z M 10.03125 13.5625 " fill-opacity="1" fill-rule="nonzero"/><path fill="#e78994" d="M 12.023438 12.027344 C 12.070312 12.066406 12.089844 12.121094 12.085938 12.199219 C 12.078125 12.28125 12.046875 12.355469 11.992188 12.429688 C 11.9375 12.503906 11.871094 12.554688 11.800781 12.582031 C 11.726562 12.609375 11.664062 12.605469 11.617188 12.566406 C 11.570312 12.53125 11.550781 12.472656 11.554688 12.394531 C 11.5625 12.316406 11.589844 12.242188 11.648438 12.167969 C 11.703125 12.09375 11.765625 12.042969 11.839844 12.015625 C 11.914062 11.988281 11.972656 11.992188 12.023438 12.027344 Z M 12.023438 12.027344 " fill-opacity="1" fill-rule="nonzero"/><path fill="#f8ae28" d="M 19.28125 18.589844 C 19.359375 18.613281 19.433594 18.636719 19.507812 18.664062 C 19.585938 18.378906 19.613281 18.078125 19.582031 17.777344 C 19.527344 17.222656 19.289062 16.707031 18.898438 16.296875 C 18.808594 16.203125 18.710938 16.113281 18.605469 16.03125 C 18.117188 15.648438 17.496094 15.4375 16.859375 15.4375 C 16.074219 15.4375 15.332031 15.75 14.8125 16.296875 C 14.792969 16.320312 14.773438 16.34375 14.75 16.367188 C 14.285156 16.894531 14.0625 17.566406 14.132812 18.25 C 14.175781 18.695312 14.335938 19.109375 14.59375 19.464844 C 14.660156 19.414062 14.722656 19.367188 14.789062 19.320312 C 14.855469 19.273438 14.917969 19.226562 14.984375 19.183594 C 15.769531 18.671875 16.664062 18.398438 17.566406 18.363281 C 17.699219 18.359375 17.835938 18.359375 17.96875 18.363281 C 18.339844 18.378906 18.714844 18.433594 19.082031 18.53125 C 19.148438 18.546875 19.214844 18.566406 19.28125 18.589844 Z M 19.28125 18.589844 " fill-opacity="1" fill-rule="nonzero"/><path fill="#a82640" d="M 19.28125 18.589844 C 19.285156 18.585938 19.285156 18.582031 19.285156 18.578125 C 19.398438 18.203125 19.425781 17.808594 19.367188 17.429688 C 19.367188 17.421875 19.363281 17.417969 19.363281 17.414062 C 19.359375 17.394531 19.359375 17.375 19.355469 17.355469 C 19.351562 17.335938 19.347656 17.3125 19.34375 17.292969 C 19.269531 16.9375 19.121094 16.597656 18.898438 16.296875 C 18.78125 16.136719 18.640625 15.984375 18.480469 15.851562 C 17.402344 14.945312 15.800781 15.09375 14.902344 16.183594 C 14.871094 16.222656 14.84375 16.261719 14.8125 16.296875 C 14.457031 16.785156 14.296875 17.359375 14.320312 17.925781 C 14.320312 17.925781 14.320312 17.929688 14.320312 17.929688 C 14.320312 17.949219 14.320312 17.964844 14.320312 17.980469 C 14.320312 17.992188 14.324219 18.003906 14.324219 18.015625 C 14.324219 18.019531 14.324219 18.023438 14.324219 18.023438 C 14.324219 18.039062 14.328125 18.054688 14.328125 18.070312 C 14.328125 18.085938 14.332031 18.101562 14.332031 18.113281 C 14.332031 18.121094 14.335938 18.128906 14.335938 18.136719 C 14.335938 18.152344 14.339844 18.171875 14.339844 18.1875 C 14.34375 18.210938 14.347656 18.230469 14.351562 18.25 C 14.351562 18.253906 14.351562 18.253906 14.351562 18.253906 C 14.355469 18.273438 14.359375 18.296875 14.363281 18.316406 C 14.367188 18.339844 14.371094 18.359375 14.378906 18.382812 C 14.382812 18.402344 14.386719 18.425781 14.390625 18.445312 C 14.398438 18.46875 14.402344 18.488281 14.410156 18.511719 C 14.414062 18.53125 14.421875 18.550781 14.425781 18.574219 C 14.433594 18.59375 14.441406 18.617188 14.445312 18.636719 C 14.460938 18.679688 14.476562 18.71875 14.492188 18.761719 C 14.496094 18.773438 14.5 18.789062 14.507812 18.800781 C 14.507812 18.804688 14.507812 18.804688 14.507812 18.808594 C 14.511719 18.816406 14.515625 18.824219 14.519531 18.832031 C 14.535156 18.871094 14.550781 18.90625 14.566406 18.941406 C 14.570312 18.941406 14.570312 18.945312 14.570312 18.949219 C 14.582031 18.964844 14.589844 18.984375 14.597656 19.003906 C 14.648438 19.101562 14.707031 19.199219 14.773438 19.292969 C 14.777344 19.300781 14.785156 19.3125 14.789062 19.320312 C 14.855469 19.273438 14.917969 19.226562 14.984375 19.183594 C 15.769531 18.675781 16.664062 18.398438 17.566406 18.363281 C 17.699219 18.359375 17.832031 18.359375 17.96875 18.363281 C 18.339844 18.378906 18.714844 18.433594 19.078125 18.53125 C 19.148438 18.546875 19.214844 18.566406 19.28125 18.589844 Z M 19.28125 18.589844 " fill-opacity="1" fill-rule="nonzero"/><path fill="#961c36" d="M 14.320312 17.925781 C 14.414062 18.390625 14.640625 18.828125 14.984375 19.183594 C 14.917969 19.226562 14.855469 19.273438 14.789062 19.316406 C 14.785156 19.308594 14.777344 19.300781 14.773438 19.292969 C 14.707031 19.199219 14.652344 19.101562 14.601562 19.003906 C 14.589844 18.984375 14.582031 18.964844 14.570312 18.945312 C 14.570312 18.945312 14.570312 18.941406 14.570312 18.9375 C 14.550781 18.902344 14.535156 18.867188 14.519531 18.832031 C 14.515625 18.824219 14.515625 18.816406 14.511719 18.808594 C 14.507812 18.804688 14.507812 18.800781 14.507812 18.800781 C 14.503906 18.785156 14.496094 18.773438 14.492188 18.761719 C 14.476562 18.71875 14.460938 18.675781 14.449219 18.636719 C 14.441406 18.613281 14.433594 18.59375 14.429688 18.574219 C 14.429688 18.570312 14.429688 18.570312 14.425781 18.570312 C 14.421875 18.550781 14.414062 18.53125 14.410156 18.507812 C 14.402344 18.488281 14.398438 18.46875 14.394531 18.445312 C 14.386719 18.425781 14.382812 18.402344 14.378906 18.382812 C 14.375 18.359375 14.367188 18.339844 14.363281 18.316406 C 14.359375 18.296875 14.355469 18.273438 14.351562 18.253906 C 14.351562 18.253906 14.351562 18.25 14.351562 18.25 C 14.347656 18.230469 14.34375 18.207031 14.34375 18.1875 C 14.328125 18.101562 14.320312 18.011719 14.320312 17.925781 Z M 14.320312 17.925781 " fill-opacity="1" fill-rule="nonzero"/><path fill="#961c36" d="M 19.285156 18.578125 C 19.285156 18.582031 19.285156 18.585938 19.28125 18.589844 C 19.214844 18.566406 19.148438 18.546875 19.082031 18.53125 C 19.273438 18.140625 19.359375 17.710938 19.34375 17.289062 C 19.347656 17.3125 19.351562 17.335938 19.355469 17.355469 C 19.359375 17.375 19.363281 17.394531 19.363281 17.414062 C 19.363281 17.417969 19.367188 17.421875 19.367188 17.425781 C 19.425781 17.808594 19.398438 18.203125 19.285156 18.578125 Z M 19.285156 18.578125 " fill-opacity="1" fill-rule="nonzero"/><path fill="#961c36" d="M 15.535156 16.613281 C 15.582031 16.652344 15.589844 16.71875 15.550781 16.765625 C 15.511719 16.8125 15.445312 16.820312 15.398438 16.78125 C 15.351562 16.742188 15.34375 16.671875 15.382812 16.625 C 15.421875 16.582031 15.492188 16.574219 15.535156 16.613281 Z M 15.535156 16.613281 " fill-opacity="1" fill-rule="nonzero"/><path fill="#961c36" d="M 15.5 18.652344 C 15.542969 18.691406 15.550781 18.757812 15.511719 18.804688 C 15.472656 18.851562 15.40625 18.859375 15.359375 18.820312 C 15.3125 18.78125 15.308594 18.710938 15.347656 18.664062 C 15.382812 18.617188 15.453125 18.613281 15.5 18.652344 Z M 15.5 18.652344 " fill-opacity="1" fill-rule="nonzero"/><path fill="#961c36" d="M 18.570312 17.6875 C 18.601562 17.710938 18.644531 17.707031 18.667969 17.675781 C 18.691406 17.648438 18.6875 17.605469 18.660156 17.578125 C 18.628906 17.554688 18.585938 17.558594 18.5625 17.589844 C 18.539062 17.617188 18.542969 17.660156 18.570312 17.6875 Z M 18.570312 17.6875 " fill-opacity="1" fill-rule="nonzero"/><path fill="#961c36" d="M 17.289062 17.128906 C 17.320312 17.152344 17.363281 17.148438 17.386719 17.117188 C 17.410156 17.089844 17.40625 17.042969 17.378906 17.019531 C 17.347656 16.996094 17.304688 17 17.28125 17.027344 C 17.257812 17.058594 17.261719 17.101562 17.289062 17.128906 Z M 17.289062 17.128906 " fill-opacity="1" fill-rule="nonzero"/><path fill="#961c36" d="M 16.539062 17.789062 C 16.578125 17.824219 16.582031 17.878906 16.550781 17.917969 C 16.519531 17.953125 16.464844 17.960938 16.425781 17.929688 C 16.386719 17.894531 16.382812 17.839844 16.414062 17.800781 C 16.445312 17.765625 16.5 17.757812 16.539062 17.789062 Z M 16.539062 17.789062 " fill-opacity="1" fill-rule="nonzero"/><path fill="#961c36" d="M 17.296875 15.734375 C 17.335938 15.769531 17.34375 15.832031 17.308594 15.875 C 17.273438 15.917969 17.210938 15.921875 17.171875 15.886719 C 17.128906 15.851562 17.121094 15.789062 17.15625 15.75 C 17.191406 15.707031 17.253906 15.699219 17.296875 15.734375 Z M 17.296875 15.734375 " fill-opacity="1" fill-rule="nonzero"/><path fill="#961c36" d="M 16.304688 15.679688 C 16.351562 15.71875 16.355469 15.785156 16.320312 15.832031 C 16.28125 15.878906 16.210938 15.886719 16.167969 15.847656 C 16.121094 15.808594 16.113281 15.738281 16.152344 15.691406 C 16.191406 15.648438 16.257812 15.640625 16.304688 15.679688 Z M 16.304688 15.679688 " fill-opacity="1" fill-rule="nonzero"/><path fill="#961c36" d="M 18.4375 16.617188 C 18.488281 16.660156 18.507812 16.722656 18.480469 16.753906 C 18.453125 16.789062 18.390625 16.78125 18.339844 16.742188 C 18.289062 16.699219 18.269531 16.636719 18.296875 16.601562 C 18.324219 16.570312 18.390625 16.574219 18.4375 16.617188 Z M 18.4375 16.617188 " fill-opacity="1" fill-rule="nonzero"/><path fill="#961c36" d="M 14.730469 17.640625 C 14.761719 17.667969 14.765625 17.71875 14.738281 17.753906 C 14.710938 17.785156 14.660156 17.792969 14.628906 17.761719 C 14.59375 17.734375 14.589844 17.683594 14.617188 17.652344 C 14.644531 17.617188 14.695312 17.613281 14.730469 17.640625 Z M 14.730469 17.640625 " fill-opacity="1" fill-rule="nonzero"/><path fill="#e78994" d="M 15.140625 17.929688 C 15.183594 18.113281 15.3125 18.238281 15.429688 18.207031 C 15.542969 18.179688 15.605469 18.011719 15.5625 17.828125 C 15.519531 17.648438 15.390625 17.523438 15.277344 17.550781 C 15.160156 17.578125 15.097656 17.75 15.140625 17.929688 Z M 15.140625 17.929688 " fill-opacity="1" fill-rule="nonzero"/><path fill="#e78994" d="M 18.015625 16.8125 C 18.035156 16.902344 18.03125 16.984375 18.007812 17.058594 C 17.980469 17.132812 17.9375 17.175781 17.878906 17.191406 C 17.820312 17.203125 17.765625 17.183594 17.707031 17.128906 C 17.652344 17.074219 17.613281 17.003906 17.59375 16.910156 C 17.570312 16.820312 17.574219 16.738281 17.601562 16.664062 C 17.625 16.589844 17.667969 16.546875 17.726562 16.53125 C 17.785156 16.519531 17.84375 16.539062 17.898438 16.59375 C 17.953125 16.648438 17.992188 16.71875 18.015625 16.8125 Z M 18.015625 16.8125 " fill-opacity="1" fill-rule="nonzero"/><path fill="#e78994" d="M 17.96875 18.363281 C 17.835938 18.355469 17.699219 18.355469 17.566406 18.363281 C 17.582031 18.265625 17.636719 18.1875 17.710938 18.171875 C 17.804688 18.148438 17.910156 18.230469 17.96875 18.363281 Z M 17.96875 18.363281 " fill-opacity="1" fill-rule="nonzero"/><path fill="#e78994" d="M 16.621094 16.390625 C 16.640625 16.480469 16.636719 16.5625 16.613281 16.636719 C 16.585938 16.710938 16.542969 16.753906 16.484375 16.769531 C 16.425781 16.78125 16.371094 16.761719 16.3125 16.707031 C 16.257812 16.652344 16.21875 16.582031 16.199219 16.488281 C 16.175781 16.398438 16.179688 16.316406 16.207031 16.242188 C 16.230469 16.167969 16.273438 16.125 16.332031 16.109375 C 16.390625 16.097656 16.449219 16.117188 16.503906 16.171875 C 16.558594 16.226562 16.597656 16.300781 16.621094 16.390625 Z M 16.621094 16.390625 " fill-opacity="1" fill-rule="nonzero"/><path fill="#f8ae28" d="M 8.089844 24.929688 C 6.949219 24.929688 5.921875 24.242188 5.539062 23.214844 C 5.296875 22.566406 5.335938 21.867188 5.644531 21.246094 C 5.957031 20.625 6.503906 20.15625 7.183594 19.925781 C 7.476562 19.824219 7.78125 19.773438 8.089844 19.773438 C 9.234375 19.773438 10.261719 20.464844 10.644531 21.488281 C 11.140625 22.828125 10.40625 24.304688 8.996094 24.78125 C 8.703125 24.878906 8.398438 24.929688 8.089844 24.929688 Z M 8.089844 24.929688 " fill-opacity="1" fill-rule="nonzero"/><path fill="#a82640" d="M 9.917969 20.347656 C 10.15625 20.589844 10.339844 20.867188 10.46875 21.179688 C 10.597656 21.496094 10.660156 21.824219 10.660156 22.164062 C 10.660156 22.503906 10.597656 22.832031 10.46875 23.144531 C 10.339844 23.460938 10.15625 23.738281 9.917969 23.980469 C 9.679688 24.21875 9.402344 24.40625 9.09375 24.535156 C 8.78125 24.664062 8.457031 24.730469 8.121094 24.730469 C 7.785156 24.730469 7.460938 24.664062 7.148438 24.535156 C 6.835938 24.40625 6.5625 24.21875 6.324219 23.980469 C 6.085938 23.738281 5.902344 23.460938 5.773438 23.144531 C 5.644531 22.832031 5.578125 22.503906 5.578125 22.164062 C 5.578125 21.824219 5.644531 21.496094 5.773438 21.179688 C 5.902344 20.867188 6.085938 20.589844 6.324219 20.347656 C 6.5625 20.109375 6.835938 19.921875 7.148438 19.792969 C 7.460938 19.660156 7.785156 19.597656 8.121094 19.597656 C 8.457031 19.597656 8.78125 19.660156 9.09375 19.792969 C 9.402344 19.921875 9.679688 20.109375 9.917969 20.347656 Z M 9.917969 20.347656 " fill-opacity="1" fill-rule="nonzero"/><path fill="#961c36" d="M 9.144531 24.183594 C 7.820312 24.65625 6.371094 23.957031 5.898438 22.621094 C 5.703125 22.058594 5.710938 21.46875 5.886719 20.941406 C 5.554688 21.558594 5.476562 22.308594 5.726562 23.023438 C 6.195312 24.359375 7.648438 25.058594 8.972656 24.582031 C 9.734375 24.308594 10.285156 23.707031 10.527344 22.988281 C 10.238281 23.523438 9.761719 23.960938 9.144531 24.183594 Z M 9.144531 24.183594 " fill-opacity="1" fill-rule="nonzero"/><path fill="#961c36" d="M 7.597656 20.441406 C 7.617188 20.496094 7.589844 20.558594 7.53125 20.582031 C 7.476562 20.601562 7.414062 20.570312 7.394531 20.515625 C 7.375 20.457031 7.402344 20.394531 7.460938 20.375 C 7.515625 20.351562 7.578125 20.382812 7.597656 20.441406 Z M 7.597656 20.441406 " fill-opacity="1" fill-rule="nonzero"/><path fill="#961c36" d="M 6.535156 22.171875 C 6.554688 22.230469 6.527344 22.292969 6.46875 22.3125 C 6.414062 22.332031 6.351562 22.304688 6.332031 22.246094 C 6.3125 22.191406 6.339844 22.128906 6.398438 22.105469 C 6.453125 22.085938 6.515625 22.117188 6.535156 22.171875 Z M 6.535156 22.171875 " fill-opacity="1" fill-rule="nonzero"/><path fill="#961c36" d="M 7.605469 23.257812 C 7.628906 23.320312 7.613281 23.378906 7.570312 23.394531 C 7.53125 23.410156 7.480469 23.371094 7.457031 23.308594 C 7.433594 23.246094 7.449219 23.1875 7.492188 23.171875 C 7.535156 23.15625 7.585938 23.195312 7.605469 23.257812 Z M 7.605469 23.257812 " fill-opacity="1" fill-rule="nonzero"/><path fill="#961c36" d="M 8.105469 23.902344 C 8.125 23.964844 8.109375 24.023438 8.070312 24.039062 C 8.027344 24.054688 7.976562 24.015625 7.957031 23.953125 C 7.933594 23.890625 7.949219 23.828125 7.992188 23.816406 C 8.03125 23.800781 8.082031 23.839844 8.105469 23.902344 Z M 8.105469 23.902344 " fill-opacity="1" fill-rule="nonzero"/><path fill="#961c36" d="M 9.664062 22.929688 C 9.675781 22.964844 9.71875 22.984375 9.753906 22.972656 C 9.789062 22.957031 9.808594 22.917969 9.792969 22.882812 C 9.78125 22.847656 9.742188 22.828125 9.707031 22.839844 C 9.671875 22.851562 9.652344 22.894531 9.664062 22.929688 Z M 9.664062 22.929688 " fill-opacity="1" fill-rule="nonzero"/><path fill="#961c36" d="M 8.84375 21.785156 C 8.859375 21.824219 8.898438 21.84375 8.933594 21.828125 C 8.96875 21.816406 8.988281 21.777344 8.976562 21.738281 C 8.960938 21.703125 8.921875 21.683594 8.886719 21.699219 C 8.851562 21.710938 8.832031 21.75 8.84375 21.785156 Z M 8.84375 21.785156 " fill-opacity="1" fill-rule="nonzero"/><path fill="#961c36" d="M 6.542969 23.269531 C 6.558594 23.304688 6.597656 23.324219 6.632812 23.308594 C 6.667969 23.296875 6.6875 23.257812 6.675781 23.21875 C 6.660156 23.183594 6.621094 23.164062 6.585938 23.179688 C 6.550781 23.191406 6.53125 23.230469 6.542969 23.269531 Z M 6.542969 23.269531 " fill-opacity="1" fill-rule="nonzero"/><path fill="#961c36" d="M 7.863281 21.96875 C 7.882812 22.015625 7.855469 22.066406 7.8125 22.085938 C 7.765625 22.101562 7.714844 22.078125 7.699219 22.03125 C 7.679688 21.984375 7.703125 21.933594 7.75 21.914062 C 7.796875 21.898438 7.847656 21.921875 7.863281 21.96875 Z M 7.863281 21.96875 " fill-opacity="1" fill-rule="nonzero"/><path fill="#961c36" d="M 9.554688 20.59375 C 9.570312 20.644531 9.546875 20.703125 9.492188 20.71875 C 9.441406 20.738281 9.386719 20.710938 9.367188 20.660156 C 9.351562 20.609375 9.375 20.550781 9.429688 20.53125 C 9.480469 20.515625 9.535156 20.542969 9.554688 20.59375 Z M 9.554688 20.59375 " fill-opacity="1" fill-rule="nonzero"/><path fill="#961c36" d="M 8.730469 20.035156 C 8.75 20.089844 8.71875 20.152344 8.664062 20.171875 C 8.609375 20.195312 8.546875 20.164062 8.527344 20.105469 C 8.503906 20.050781 8.535156 19.988281 8.589844 19.96875 C 8.648438 19.945312 8.710938 19.976562 8.730469 20.035156 Z M 8.730469 20.035156 " fill-opacity="1" fill-rule="nonzero"/><path fill="#961c36" d="M 10.089844 21.941406 C 10.113281 22.003906 10.097656 22.066406 10.054688 22.082031 C 10.015625 22.097656 9.964844 22.058594 9.941406 21.996094 C 9.921875 21.933594 9.9375 21.871094 9.976562 21.855469 C 10.019531 21.839844 10.070312 21.878906 10.089844 21.941406 Z M 10.089844 21.941406 " fill-opacity="1" fill-rule="nonzero"/><path fill="#961c36" d="M 8.855469 23.832031 C 8.867188 23.867188 8.847656 23.910156 8.8125 23.921875 C 8.777344 23.933594 8.738281 23.914062 8.722656 23.878906 C 8.710938 23.84375 8.730469 23.804688 8.765625 23.789062 C 8.800781 23.777344 8.839844 23.796875 8.855469 23.832031 Z M 8.855469 23.832031 " fill-opacity="1" fill-rule="nonzero"/><path fill="#961c36" d="M 6.382812 20.90625 C 6.398438 20.949219 6.375 20.996094 6.335938 21.007812 C 6.292969 21.023438 6.25 21.003906 6.234375 20.960938 C 6.21875 20.917969 6.242188 20.875 6.28125 20.859375 C 6.324219 20.84375 6.367188 20.867188 6.382812 20.90625 Z M 6.382812 20.90625 " fill-opacity="1" fill-rule="nonzero"/><path fill="#e78994" d="M 6.898438 21.109375 C 6.957031 21.128906 6.996094 21.175781 7.015625 21.253906 C 7.035156 21.328125 7.035156 21.410156 7.003906 21.5 C 6.976562 21.589844 6.933594 21.65625 6.875 21.707031 C 6.8125 21.757812 6.753906 21.773438 6.699219 21.757812 C 6.640625 21.738281 6.601562 21.691406 6.582031 21.613281 C 6.5625 21.539062 6.566406 21.457031 6.59375 21.367188 C 6.621094 21.277344 6.664062 21.210938 6.722656 21.160156 C 6.785156 21.109375 6.84375 21.09375 6.898438 21.109375 Z M 6.898438 21.109375 " fill-opacity="1" fill-rule="nonzero"/><path fill="#e78994" d="M 9.523438 21.5 C 9.582031 21.515625 9.621094 21.5625 9.640625 21.640625 C 9.660156 21.714844 9.65625 21.796875 9.628906 21.886719 C 9.601562 21.976562 9.558594 22.046875 9.496094 22.097656 C 9.4375 22.144531 9.378906 22.164062 9.320312 22.144531 C 9.265625 22.125 9.226562 22.078125 9.207031 22.003906 C 9.183594 21.925781 9.1875 21.84375 9.214844 21.753906 C 9.242188 21.667969 9.289062 21.597656 9.347656 21.546875 C 9.40625 21.496094 9.464844 21.480469 9.523438 21.5 Z M 9.523438 21.5 " fill-opacity="1" fill-rule="nonzero"/><path fill="#e78994" d="M 8.371094 23.160156 C 8.316406 23.335938 8.363281 23.511719 8.476562 23.546875 C 8.589844 23.582031 8.726562 23.46875 8.785156 23.289062 C 8.839844 23.113281 8.792969 22.9375 8.679688 22.902344 C 8.5625 22.867188 8.425781 22.980469 8.371094 23.160156 Z M 8.371094 23.160156 " fill-opacity="1" fill-rule="nonzero"/><path fill="#e78994" d="M 6.863281 22.792969 C 6.808594 22.96875 6.855469 23.144531 6.96875 23.179688 C 7.082031 23.214844 7.21875 23.101562 7.277344 22.921875 C 7.332031 22.746094 7.285156 22.570312 7.167969 22.535156 C 7.054688 22.5 6.917969 22.613281 6.863281 22.792969 Z M 6.863281 22.792969 " fill-opacity="1" fill-rule="nonzero"/><path fill="#e78994" d="M 8.535156 20.417969 C 8.59375 20.4375 8.632812 20.484375 8.652344 20.558594 C 8.671875 20.632812 8.671875 20.71875 8.640625 20.804688 C 8.613281 20.894531 8.570312 20.964844 8.511719 21.015625 C 8.449219 21.066406 8.390625 21.082031 8.335938 21.0625 C 8.277344 21.042969 8.238281 20.996094 8.21875 20.921875 C 8.199219 20.847656 8.203125 20.761719 8.230469 20.675781 C 8.257812 20.585938 8.300781 20.515625 8.359375 20.464844 C 8.421875 20.414062 8.480469 20.398438 8.535156 20.417969 Z M 8.535156 20.417969 " fill-opacity="1" fill-rule="nonzero"/><path fill="#f8ae28" d="M 4.796875 18.148438 C 4.800781 18.140625 4.804688 18.136719 4.8125 18.132812 C 5.136719 17.769531 5.539062 17.46875 5.9375 17.285156 C 6.386719 17.074219 6.898438 17.035156 7.382812 17.164062 C 7.6875 17.25 8.515625 17.5625 8.652344 18 L 8.683594 18.101562 L 8.59375 18.152344 C 8.484375 18.210938 8.375 18.253906 8.265625 18.296875 C 8.210938 18.316406 8.15625 18.339844 8.105469 18.359375 C 7.886719 18.453125 7.695312 18.613281 7.515625 18.769531 C 7.492188 18.789062 7.472656 18.808594 7.449219 18.828125 C 7.101562 19.132812 6.710938 19.480469 6.175781 19.394531 C 5.570312 19.300781 5.128906 18.832031 4.808594 18.433594 C 4.796875 18.417969 4.777344 18.394531 4.765625 18.371094 C 4.746094 18.328125 4.742188 18.289062 4.75 18.246094 C 4.753906 18.210938 4.769531 18.179688 4.796875 18.148438 Z M 4.796875 18.148438 " fill-opacity="1" fill-rule="nonzero"/><path fill="#a5cc15" d="M 4.820312 18.398438 C 4.8125 18.382812 4.808594 18.367188 4.8125 18.351562 C 4.816406 18.328125 4.832031 18.3125 4.847656 18.296875 C 5.15625 17.953125 5.554688 17.644531 5.976562 17.453125 C 6.421875 17.246094 6.925781 17.214844 7.398438 17.347656 C 7.746094 17.445312 8.523438 17.765625 8.644531 18.140625 C 8.488281 18.226562 8.3125 18.28125 8.148438 18.347656 C 7.90625 18.453125 7.695312 18.625 7.5 18.796875 C 7.121094 19.121094 6.738281 19.492188 6.207031 19.40625 C 5.636719 19.3125 5.199219 18.871094 4.851562 18.441406 C 4.839844 18.425781 4.828125 18.410156 4.820312 18.398438 Z M 4.820312 18.398438 " fill-opacity="1" fill-rule="nonzero"/><path fill="#9bbf02" d="M 6.207031 19.40625 C 6.738281 19.492188 7.121094 19.121094 7.496094 18.796875 C 7.695312 18.625 7.90625 18.453125 8.148438 18.347656 C 8.3125 18.28125 8.488281 18.226562 8.640625 18.140625 C 8.617188 18.0625 8.5625 17.988281 8.488281 17.914062 C 8.359375 17.972656 8.222656 18.019531 8.089844 18.074219 C 7.847656 18.175781 7.640625 18.347656 7.441406 18.519531 C 7.066406 18.847656 6.683594 19.21875 6.148438 19.132812 C 5.625 19.046875 5.210938 18.664062 4.875 18.265625 C 4.867188 18.273438 4.855469 18.285156 4.847656 18.296875 C 4.832031 18.3125 4.816406 18.328125 4.8125 18.351562 C 4.808594 18.367188 4.8125 18.382812 4.820312 18.398438 C 4.828125 18.414062 4.839844 18.425781 4.847656 18.441406 C 5.199219 18.871094 5.636719 19.3125 6.207031 19.40625 Z M 6.207031 19.40625 " fill-opacity="1" fill-rule="nonzero"/><path fill="#96ba00" d="M 4.847656 18.335938 C 4.851562 18.332031 4.855469 18.328125 4.863281 18.324219 C 6.660156 17.769531 7.332031 17.5625 8.5625 18.078125 C 8.578125 18.085938 8.585938 18.101562 8.582031 18.121094 C 8.574219 18.136719 8.554688 18.144531 8.539062 18.136719 C 7.328125 17.632812 6.660156 17.835938 4.878906 18.386719 C 4.863281 18.394531 4.84375 18.382812 4.839844 18.367188 C 4.835938 18.355469 4.839844 18.34375 4.847656 18.335938 Z M 4.847656 18.335938 " fill-opacity="1" fill-rule="nonzero"/><path fill="#96ba00" d="M 7.289062 17.792969 C 7.289062 17.792969 7.292969 17.792969 7.292969 17.789062 C 7.308594 17.777344 7.328125 17.78125 7.339844 17.792969 C 7.5 17.984375 7.953125 18.195312 7.957031 18.195312 C 7.972656 18.203125 7.980469 18.222656 7.972656 18.238281 C 7.964844 18.257812 7.945312 18.261719 7.929688 18.253906 C 7.910156 18.246094 7.457031 18.039062 7.289062 17.835938 C 7.277344 17.824219 7.28125 17.804688 7.289062 17.792969 Z M 7.289062 17.792969 " fill-opacity="1" fill-rule="nonzero"/><path fill="#96ba00" d="M 6.617188 17.851562 C 6.617188 17.851562 6.621094 17.847656 6.621094 17.847656 C 6.894531 17.609375 7.429688 17.554688 7.449219 17.554688 C 7.46875 17.550781 7.484375 17.566406 7.484375 17.582031 C 7.488281 17.601562 7.472656 17.617188 7.457031 17.617188 C 7.449219 17.621094 6.921875 17.671875 6.664062 17.898438 C 6.652344 17.910156 6.628906 17.90625 6.617188 17.894531 C 6.609375 17.882812 6.609375 17.863281 6.617188 17.851562 Z M 6.617188 17.851562 " fill-opacity="1" fill-rule="nonzero"/><path fill="#96ba00" d="M 5.894531 18.019531 C 5.898438 18.019531 5.898438 18.015625 5.902344 18.011719 C 5.917969 18.003906 5.9375 18.011719 5.949219 18.027344 C 5.96875 18.058594 6.335938 18.449219 6.859375 18.558594 C 6.875 18.5625 6.886719 18.582031 6.882812 18.597656 C 6.878906 18.617188 6.863281 18.628906 6.84375 18.625 C 6.308594 18.511719 5.921875 18.117188 5.890625 18.058594 C 5.882812 18.046875 5.886719 18.03125 5.894531 18.019531 Z M 5.894531 18.019531 " fill-opacity="1" fill-rule="nonzero"/><path fill="#96ba00" d="M 5.386719 17.949219 C 5.609375 17.679688 5.917969 17.5625 5.933594 17.558594 C 5.953125 17.550781 5.96875 17.5625 5.976562 17.578125 C 5.980469 17.597656 5.972656 17.613281 5.957031 17.621094 C 5.953125 17.621094 5.457031 17.804688 5.28125 18.25 C 5.277344 18.269531 5.257812 18.277344 5.242188 18.269531 C 5.222656 18.261719 5.214844 18.242188 5.222656 18.226562 C 5.265625 18.121094 5.320312 18.027344 5.386719 17.949219 Z M 5.386719 17.949219 " fill-opacity="1" fill-rule="nonzero"/><path fill="#f8ae28" d="M 14.566406 9.542969 C 14.574219 9.542969 14.582031 9.546875 14.585938 9.550781 C 15.007812 9.792969 15.390625 10.117188 15.660156 10.46875 C 15.964844 10.859375 16.121094 11.355469 16.105469 11.863281 C 16.09375 12.183594 15.980469 13.066406 15.585938 13.300781 L 15.5 13.355469 L 15.429688 13.273438 C 15.347656 13.183594 15.28125 13.082031 15.214844 12.984375 C 15.183594 12.9375 15.152344 12.890625 15.117188 12.84375 C 14.980469 12.652344 14.78125 12.496094 14.589844 12.355469 C 14.566406 12.339844 14.542969 12.324219 14.519531 12.304688 C 14.144531 12.035156 13.722656 11.726562 13.679688 11.179688 C 13.632812 10.566406 13.984375 10.023438 14.296875 9.617188 C 14.308594 9.601562 14.324219 9.578125 14.347656 9.5625 C 14.382812 9.53125 14.421875 9.519531 14.460938 9.515625 C 14.496094 9.515625 14.53125 9.523438 14.566406 9.542969 Z M 14.566406 9.542969 " fill-opacity="1" fill-rule="nonzero"/><path fill="#a5cc15" d="M 14.332031 9.621094 C 14.347656 9.609375 14.359375 9.605469 14.375 9.601562 C 14.398438 9.601562 14.417969 9.613281 14.4375 9.625 C 14.835938 9.851562 15.226562 10.171875 15.507812 10.542969 C 15.804688 10.9375 15.953125 11.421875 15.933594 11.917969 C 15.917969 12.28125 15.785156 13.121094 15.449219 13.324219 C 15.332031 13.191406 15.242188 13.027344 15.136719 12.882812 C 14.984375 12.667969 14.769531 12.5 14.558594 12.347656 C 14.160156 12.050781 13.714844 11.757812 13.675781 11.214844 C 13.636719 10.632812 13.960938 10.101562 14.296875 9.660156 C 14.308594 9.644531 14.320312 9.632812 14.332031 9.621094 Z M 14.332031 9.621094 " fill-opacity="1" fill-rule="nonzero"/><path fill="#9bbf02" d="M 13.675781 11.214844 C 13.714844 11.757812 14.160156 12.050781 14.558594 12.34375 C 14.769531 12.5 14.984375 12.667969 15.136719 12.882812 C 15.242188 13.027344 15.332031 13.191406 15.449219 13.324219 C 15.519531 13.28125 15.582031 13.210938 15.632812 13.121094 C 15.546875 13.007812 15.472656 12.882812 15.390625 12.765625 C 15.234375 12.550781 15.023438 12.382812 14.8125 12.226562 C 14.410156 11.933594 13.964844 11.640625 13.929688 11.09375 C 13.890625 10.558594 14.164062 10.066406 14.472656 9.644531 C 14.460938 9.636719 14.449219 9.628906 14.4375 9.621094 C 14.417969 9.609375 14.398438 9.601562 14.375 9.601562 C 14.359375 9.601562 14.34375 9.609375 14.332031 9.621094 C 14.320312 9.632812 14.308594 9.644531 14.296875 9.660156 C 13.960938 10.101562 13.636719 10.632812 13.675781 11.214844 Z M 13.675781 11.214844 " fill-opacity="1" fill-rule="nonzero"/><path fill="#96ba00" d="M 14.398438 9.632812 C 14.402344 9.636719 14.410156 9.640625 14.410156 9.644531 C 15.355469 11.289062 15.710938 11.902344 15.492188 13.230469 C 15.492188 13.25 15.472656 13.261719 15.457031 13.257812 C 15.4375 13.253906 15.425781 13.238281 15.429688 13.21875 C 15.640625 11.914062 15.292969 11.304688 14.355469 9.679688 C 14.347656 9.664062 14.351562 9.644531 14.367188 9.632812 C 14.378906 9.628906 14.390625 9.628906 14.398438 9.632812 Z M 14.398438 9.632812 " fill-opacity="1" fill-rule="nonzero"/><path fill="#96ba00" d="M 15.476562 11.914062 C 15.476562 11.914062 15.480469 11.914062 15.480469 11.917969 C 15.496094 11.925781 15.5 11.949219 15.488281 11.960938 C 15.339844 12.164062 15.242188 12.65625 15.242188 12.664062 C 15.238281 12.679688 15.21875 12.691406 15.203125 12.6875 C 15.183594 12.683594 15.171875 12.667969 15.175781 12.648438 C 15.179688 12.628906 15.277344 12.136719 15.433594 11.921875 C 15.445312 11.910156 15.464844 11.90625 15.476562 11.914062 Z M 15.476562 11.914062 " fill-opacity="1" fill-rule="nonzero"/><path fill="#96ba00" d="M 15.269531 11.265625 C 15.269531 11.265625 15.273438 11.265625 15.273438 11.269531 C 15.566406 11.484375 15.738281 11.996094 15.746094 12.015625 C 15.75 12.035156 15.742188 12.050781 15.726562 12.058594 C 15.707031 12.0625 15.691406 12.054688 15.683594 12.039062 C 15.683594 12.03125 15.511719 11.523438 15.234375 11.320312 C 15.222656 11.3125 15.21875 11.289062 15.226562 11.277344 C 15.238281 11.261719 15.253906 11.257812 15.269531 11.265625 Z M 15.269531 11.265625 " fill-opacity="1" fill-rule="nonzero"/><path fill="#96ba00" d="M 14.941406 10.59375 C 14.945312 10.59375 14.945312 10.597656 14.949219 10.601562 C 14.960938 10.613281 14.960938 10.632812 14.945312 10.644531 C 14.917969 10.671875 14.628906 11.125 14.640625 11.664062 C 14.640625 11.683594 14.625 11.695312 14.609375 11.695312 C 14.589844 11.699219 14.574219 11.683594 14.574219 11.664062 C 14.5625 11.113281 14.851562 10.640625 14.90625 10.597656 C 14.914062 10.585938 14.929688 10.585938 14.941406 10.59375 Z M 14.941406 10.59375 " fill-opacity="1" fill-rule="nonzero"/><path fill="#96ba00" d="M 14.890625 10.078125 C 15.207031 10.234375 15.386719 10.511719 15.394531 10.527344 C 15.40625 10.542969 15.402344 10.5625 15.386719 10.570312 C 15.371094 10.582031 15.351562 10.578125 15.339844 10.5625 C 15.339844 10.558594 15.046875 10.113281 14.578125 10.042969 C 14.5625 10.039062 14.550781 10.023438 14.550781 10.003906 C 14.554688 9.988281 14.570312 9.976562 14.589844 9.976562 C 14.699219 9.996094 14.800781 10.03125 14.890625 10.078125 Z M 14.890625 10.078125 " fill-opacity="1" fill-rule="nonzero"/><path fill="#f8ae28" d="M 6.230469 26.660156 C 6.222656 26.660156 6.214844 26.664062 6.207031 26.664062 C 5.734375 26.769531 5.238281 26.78125 4.804688 26.699219 C 4.316406 26.605469 3.875 26.339844 3.558594 25.953125 C 3.355469 25.707031 2.859375 24.96875 3 24.53125 L 3.03125 24.429688 L 3.132812 24.441406 C 3.253906 24.457031 3.371094 24.488281 3.484375 24.515625 C 3.542969 24.53125 3.59375 24.542969 3.648438 24.554688 C 3.882812 24.609375 4.132812 24.589844 4.367188 24.566406 C 4.394531 24.5625 4.425781 24.558594 4.453125 24.558594 C 4.910156 24.511719 5.429688 24.457031 5.820312 24.839844 C 6.257812 25.265625 6.351562 25.910156 6.382812 26.417969 C 6.386719 26.441406 6.386719 26.46875 6.382812 26.496094 C 6.375 26.542969 6.355469 26.578125 6.324219 26.609375 C 6.300781 26.632812 6.269531 26.648438 6.230469 26.660156 Z M 6.230469 26.660156 " fill-opacity="1" fill-rule="nonzero"/><path fill="#a5cc15" d="M 6.351562 26.441406 C 6.351562 26.460938 6.34375 26.472656 6.332031 26.484375 C 6.316406 26.5 6.296875 26.507812 6.273438 26.511719 C 5.824219 26.609375 5.320312 26.628906 4.871094 26.539062 C 4.386719 26.445312 3.960938 26.179688 3.648438 25.796875 C 3.421875 25.511719 2.972656 24.796875 3.089844 24.417969 C 3.261719 24.441406 3.4375 24.5 3.609375 24.539062 C 3.867188 24.597656 4.136719 24.582031 4.394531 24.554688 C 4.886719 24.507812 5.414062 24.429688 5.800781 24.8125 C 6.210938 25.21875 6.316406 25.835938 6.351562 26.390625 C 6.355469 26.40625 6.355469 26.425781 6.351562 26.441406 Z M 6.351562 26.441406 " fill-opacity="1" fill-rule="nonzero"/><path fill="#9bbf02" d="M 5.800781 24.8125 C 5.414062 24.429688 4.886719 24.507812 4.394531 24.554688 C 4.136719 24.578125 3.867188 24.597656 3.609375 24.539062 C 3.4375 24.5 3.261719 24.441406 3.089844 24.417969 C 3.0625 24.496094 3.066406 24.589844 3.082031 24.695312 C 3.222656 24.722656 3.359375 24.765625 3.496094 24.796875 C 3.753906 24.855469 4.023438 24.835938 4.28125 24.8125 C 4.777344 24.765625 5.300781 24.683594 5.6875 25.066406 C 6.066406 25.445312 6.183594 26 6.230469 26.519531 C 6.246094 26.515625 6.257812 26.511719 6.273438 26.511719 C 6.292969 26.507812 6.316406 26.5 6.332031 26.484375 C 6.34375 26.472656 6.347656 26.460938 6.351562 26.441406 C 6.355469 26.425781 6.351562 26.40625 6.351562 26.390625 C 6.316406 25.835938 6.210938 25.21875 5.800781 24.8125 Z M 5.800781 24.8125 " fill-opacity="1" fill-rule="nonzero"/><path fill="#96ba00" d="M 6.296875 26.476562 C 6.289062 26.480469 6.285156 26.480469 6.277344 26.476562 C 4.492188 25.882812 3.824219 25.660156 3.117188 24.519531 C 3.105469 24.503906 3.109375 24.484375 3.125 24.472656 C 3.140625 24.464844 3.160156 24.46875 3.171875 24.484375 C 3.867188 25.601562 4.53125 25.824219 6.296875 26.414062 C 6.316406 26.421875 6.324219 26.4375 6.320312 26.457031 C 6.316406 26.46875 6.304688 26.476562 6.296875 26.476562 Z M 6.296875 26.476562 " fill-opacity="1" fill-rule="nonzero"/><path fill="#96ba00" d="M 3.992188 25.492188 C 3.992188 25.496094 3.988281 25.496094 3.988281 25.496094 C 3.96875 25.496094 3.953125 25.484375 3.953125 25.464844 C 3.929688 25.214844 3.679688 24.78125 3.675781 24.773438 C 3.667969 24.757812 3.671875 24.738281 3.6875 24.730469 C 3.703125 24.722656 3.722656 24.726562 3.734375 24.742188 C 3.742188 24.761719 3.996094 25.195312 4.015625 25.460938 C 4.019531 25.476562 4.007812 25.488281 3.992188 25.492188 Z M 3.992188 25.492188 " fill-opacity="1" fill-rule="nonzero"/><path fill="#96ba00" d="M 4.574219 25.839844 C 4.570312 25.839844 4.570312 25.839844 4.566406 25.839844 C 4.207031 25.875 3.742188 25.605469 3.722656 25.59375 C 3.707031 25.585938 3.703125 25.566406 3.710938 25.550781 C 3.71875 25.535156 3.738281 25.53125 3.753906 25.539062 C 3.761719 25.542969 4.222656 25.808594 4.5625 25.773438 C 4.578125 25.773438 4.59375 25.785156 4.597656 25.804688 C 4.597656 25.820312 4.589844 25.835938 4.574219 25.839844 Z M 4.574219 25.839844 " fill-opacity="1" fill-rule="nonzero"/><path fill="#96ba00" d="M 5.261719 26.121094 C 5.257812 26.125 5.253906 26.125 5.25 26.125 C 5.230469 26.121094 5.21875 26.105469 5.21875 26.085938 C 5.222656 26.046875 5.144531 25.515625 4.78125 25.121094 C 4.769531 25.105469 4.769531 25.085938 4.785156 25.074219 C 4.796875 25.0625 4.816406 25.0625 4.828125 25.074219 C 5.203125 25.480469 5.292969 26.027344 5.285156 26.09375 C 5.285156 26.109375 5.273438 26.121094 5.261719 26.121094 Z M 5.261719 26.121094 " fill-opacity="1" fill-rule="nonzero"/><path fill="#96ba00" d="M 5.636719 26.476562 C 5.296875 26.566406 4.980469 26.480469 4.964844 26.476562 C 4.945312 26.472656 4.9375 26.453125 4.941406 26.4375 C 4.945312 26.417969 4.964844 26.410156 4.980469 26.414062 C 4.988281 26.414062 5.496094 26.554688 5.890625 26.292969 C 5.90625 26.28125 5.925781 26.285156 5.9375 26.300781 C 5.945312 26.316406 5.941406 26.335938 5.925781 26.347656 C 5.832031 26.410156 5.734375 26.449219 5.636719 26.476562 Z M 5.636719 26.476562 " fill-opacity="1" fill-rule="nonzero"/><path fill="#f8ae28" d="M 12.707031 18.125 C 12.710938 18.128906 12.714844 18.136719 12.722656 18.140625 C 13.039062 18.511719 13.285156 18.949219 13.421875 19.371094 C 13.574219 19.847656 13.554688 20.367188 13.367188 20.835938 C 13.25 21.132812 12.84375 21.921875 12.394531 22.007812 L 12.292969 22.027344 L 12.253906 21.929688 C 12.210938 21.820312 12.179688 21.699219 12.152344 21.585938 C 12.136719 21.527344 12.125 21.472656 12.109375 21.417969 C 12.042969 21.1875 11.90625 20.976562 11.773438 20.777344 C 11.757812 20.753906 11.742188 20.730469 11.726562 20.707031 C 11.46875 20.320312 11.171875 19.886719 11.320312 19.359375 C 11.480469 18.765625 11.996094 18.375 12.421875 18.101562 C 12.441406 18.089844 12.464844 18.078125 12.492188 18.066406 C 12.535156 18.050781 12.574219 18.050781 12.613281 18.0625 C 12.648438 18.074219 12.679688 18.09375 12.707031 18.125 Z M 12.707031 18.125 " fill-opacity="1" fill-rule="nonzero"/><path fill="#a5cc15" d="M 12.457031 18.121094 C 12.472656 18.113281 12.488281 18.113281 12.503906 18.117188 C 12.527344 18.121094 12.542969 18.140625 12.554688 18.15625 C 12.855469 18.507812 13.113281 18.945312 13.25 19.386719 C 13.398438 19.863281 13.371094 20.367188 13.1875 20.828125 C 13.050781 21.167969 12.640625 21.90625 12.257812 21.984375 C 12.195312 21.816406 12.160156 21.632812 12.113281 21.460938 C 12.042969 21.207031 11.898438 20.976562 11.753906 20.757812 C 11.476562 20.34375 11.15625 19.914062 11.304688 19.390625 C 11.460938 18.828125 11.945312 18.441406 12.414062 18.140625 C 12.429688 18.132812 12.441406 18.125 12.457031 18.121094 Z M 12.457031 18.121094 " fill-opacity="1" fill-rule="nonzero"/><path fill="#9bbf02" d="M 11.304688 19.390625 C 11.15625 19.914062 11.476562 20.34375 11.753906 20.757812 C 11.898438 20.976562 12.042969 21.207031 12.113281 21.460938 C 12.160156 21.632812 12.195312 21.820312 12.257812 21.984375 C 12.339844 21.96875 12.421875 21.921875 12.5 21.855469 C 12.457031 21.71875 12.429688 21.574219 12.390625 21.4375 C 12.320312 21.183594 12.175781 20.953125 12.03125 20.734375 C 11.753906 20.320312 11.433594 19.890625 11.582031 19.367188 C 11.726562 18.847656 12.152344 18.480469 12.582031 18.191406 C 12.574219 18.179688 12.566406 18.167969 12.554688 18.15625 C 12.542969 18.140625 12.527344 18.125 12.503906 18.117188 C 12.488281 18.113281 12.472656 18.113281 12.457031 18.121094 C 12.441406 18.125 12.425781 18.132812 12.414062 18.144531 C 11.949219 18.441406 11.460938 18.828125 11.304688 19.390625 Z M 11.304688 19.390625 " fill-opacity="1" fill-rule="nonzero"/><path fill="#96ba00" d="M 12.515625 18.152344 C 12.519531 18.15625 12.523438 18.164062 12.523438 18.167969 C 12.859375 20.039062 12.984375 20.738281 12.332031 21.910156 C 12.324219 21.925781 12.304688 21.933594 12.289062 21.921875 C 12.273438 21.914062 12.265625 21.894531 12.277344 21.878906 C 12.917969 20.722656 12.792969 20.03125 12.460938 18.179688 C 12.457031 18.164062 12.46875 18.144531 12.488281 18.140625 C 12.5 18.140625 12.507812 18.144531 12.515625 18.152344 Z M 12.515625 18.152344 " fill-opacity="1" fill-rule="nonzero"/><path fill="#96ba00" d="M 12.761719 20.667969 C 12.761719 20.667969 12.761719 20.671875 12.765625 20.671875 C 12.773438 20.6875 12.769531 20.707031 12.753906 20.71875 C 12.546875 20.855469 12.289062 21.285156 12.285156 21.289062 C 12.277344 21.304688 12.257812 21.3125 12.242188 21.300781 C 12.226562 21.292969 12.222656 21.273438 12.230469 21.257812 C 12.242188 21.238281 12.5 20.808594 12.71875 20.664062 C 12.734375 20.652344 12.75 20.65625 12.761719 20.667969 Z M 12.761719 20.667969 " fill-opacity="1" fill-rule="nonzero"/><path fill="#96ba00" d="M 12.785156 19.988281 C 12.785156 19.988281 12.785156 19.988281 12.785156 19.992188 C 12.988281 20.292969 12.976562 20.835938 12.976562 20.855469 C 12.976562 20.875 12.960938 20.890625 12.945312 20.890625 C 12.925781 20.890625 12.914062 20.875 12.914062 20.855469 C 12.914062 20.851562 12.925781 20.3125 12.734375 20.027344 C 12.722656 20.011719 12.726562 19.992188 12.742188 19.980469 C 12.753906 19.972656 12.773438 19.976562 12.785156 19.988281 Z M 12.785156 19.988281 " fill-opacity="1" fill-rule="nonzero"/><path fill="#96ba00" d="M 12.703125 19.242188 C 12.703125 19.242188 12.707031 19.246094 12.707031 19.25 C 12.714844 19.269531 12.707031 19.289062 12.691406 19.292969 C 12.65625 19.308594 12.226562 19.632812 12.058594 20.144531 C 12.050781 20.164062 12.035156 20.171875 12.015625 20.164062 C 12 20.160156 11.992188 20.140625 11.996094 20.125 C 12.171875 19.601562 12.601562 19.257812 12.667969 19.234375 C 12.679688 19.226562 12.691406 19.230469 12.703125 19.242188 Z M 12.703125 19.242188 " fill-opacity="1" fill-rule="nonzero"/><path fill="#96ba00" d="M 12.832031 18.738281 C 13.070312 18.996094 13.148438 19.320312 13.152344 19.335938 C 13.15625 19.351562 13.144531 19.371094 13.128906 19.375 C 13.109375 19.378906 13.09375 19.367188 13.089844 19.351562 C 13.085938 19.34375 12.964844 18.828125 12.546875 18.601562 C 12.53125 18.589844 12.527344 18.570312 12.535156 18.554688 C 12.542969 18.539062 12.5625 18.53125 12.578125 18.542969 C 12.679688 18.597656 12.761719 18.664062 12.832031 18.738281 Z M 12.832031 18.738281 " fill-opacity="1" fill-rule="nonzero"/><path fill="#f8ae28" d="M 22.359375 20.515625 C 22.257812 20.574219 22.15625 20.632812 22.058594 20.691406 C 21.847656 20.371094 21.601562 20.074219 21.320312 19.796875 C 19.265625 17.816406 16.011719 17.890625 14.050781 19.964844 C 13.175781 20.890625 12.707031 22.058594 12.636719 23.242188 C 11.652344 23.246094 10.667969 23.636719 9.933594 24.414062 C 9.175781 25.214844 8.832031 26.265625 8.902344 27.289062 C 8.699219 27.382812 8.496094 27.472656 8.292969 27.558594 C 8.246094 25.636719 8.765625 22.96875 11.914062 22.546875 C 11.914062 22.546875 15.59375 13.09375 22.257812 20.402344 C 22.292969 20.441406 22.328125 20.480469 22.359375 20.515625 Z M 22.359375 20.515625 " fill-opacity="1" fill-rule="nonzero"/></svg>