<svg xmlns="http://www.w3.org/2000/svg" xmlns:xlink="http://www.w3.org/1999/xlink" width="40" zoomAndPan="magnify" viewBox="0 0 30 30.000001" height="40" preserveAspectRatio="xMidYMid meet" version="1.0"><defs><clipPath id="id1"><path d="M 0.484375 21 L 10 21 L 10 29.03125 L 0.484375 29.03125 Z M 0.484375 21 " clip-rule="nonzero"/></clipPath><clipPath id="id2"><path d="M 20 20 L 29.515625 20 L 29.515625 29.03125 L 20 29.03125 Z M 20 20 " clip-rule="nonzero"/></clipPath><clipPath id="id3"><path d="M 9 18 L 21 18 L 21 29.03125 L 9 29.03125 Z M 9 18 " clip-rule="nonzero"/></clipPath></defs><path fill="#e15c63" d="M 4.875 22.929688 C 5.65625 23 6.167969 23.757812 6.070312 24.535156 C 6.035156 24.796875 5.945312 25.058594 5.738281 25.304688 C 5.945312 25.550781 6.035156 25.8125 6.070312 26.074219 C 6.167969 26.851562 5.65625 27.609375 4.875 27.679688 C 4.074219 27.753906 3.40625 27.128906 3.40625 26.347656 L 4.132812 26.304688 C 4.132812 26.679688 4.472656 26.972656 4.855469 26.90625 C 5.101562 26.863281 5.300781 26.660156 5.347656 26.417969 C 5.414062 26.027344 5.121094 25.695312 4.746094 25.695312 L 4.710938 25.695312 C 4.511719 25.695312 4.351562 25.535156 4.351562 25.335938 L 4.351562 25.273438 C 4.351562 25.074219 4.511719 24.914062 4.710938 24.914062 C 4.878906 24.914062 5.03125 24.855469 5.152344 24.75 C 5.265625 24.644531 5.347656 24.503906 5.355469 24.335938 C 5.375 23.984375 5.09375 23.695312 4.746094 23.695312 C 4.40625 23.695312 4.132812 23.96875 4.132812 24.304688 L 3.40625 24.261719 C 3.40625 23.480469 4.074219 22.855469 4.875 22.929688 Z M 4.875 22.929688 " fill-opacity="1" fill-rule="nonzero"/><path fill="#e15c63" d="M 26.433594 26.113281 L 26.433594 26.871094 L 23.640625 26.871094 L 23.640625 26.398438 C 23.640625 25.5 25.609375 24.574219 25.609375 23.921875 C 25.609375 23.605469 25.355469 23.347656 25.035156 23.347656 C 24.71875 23.347656 24.460938 23.605469 24.460938 23.921875 L 23.640625 23.921875 C 23.640625 23.152344 24.265625 22.523438 25.035156 22.523438 C 25.808594 22.523438 26.433594 23.152344 26.433594 23.921875 C 26.433594 24.941406 25.269531 25.089844 24.835938 26.113281 Z M 26.433594 26.113281 " fill-opacity="1" fill-rule="nonzero"/><path fill="#e15c63" d="M 16.191406 24.738281 L 16.191406 25.539062 L 13.816406 25.539062 L 13.816406 24.738281 L 14.601562 24.738281 L 14.601562 21.839844 L 13.816406 22.316406 L 13.816406 21.339844 L 14.804688 20.773438 L 15.390625 20.773438 L 15.390625 24.738281 Z M 16.191406 24.738281 " fill-opacity="1" fill-rule="nonzero"/><g clip-path="url(#id1)"><path fill="#b8d3cf" d="M 9.410156 21.351562 L 9.410156 29.023438 L 0.519531 29.023438 L 0.519531 21.351562 Z M 6.070312 24.535156 C 6.167969 23.757812 5.65625 23 4.875 22.929688 C 4.074219 22.855469 3.40625 23.480469 3.40625 24.261719 L 4.132812 24.304688 C 4.132812 23.96875 4.40625 23.695312 4.746094 23.695312 C 5.09375 23.695312 5.375 23.984375 5.355469 24.335938 C 5.347656 24.503906 5.265625 24.644531 5.152344 24.75 C 5.03125 24.855469 4.878906 24.914062 4.710938 24.914062 C 4.511719 24.914062 4.351562 25.074219 4.351562 25.273438 L 4.351562 25.335938 C 4.351562 25.535156 4.511719 25.695312 4.710938 25.695312 L 4.746094 25.695312 C 5.121094 25.695312 5.414062 26.027344 5.347656 26.417969 C 5.300781 26.660156 5.101562 26.863281 4.855469 26.90625 C 4.472656 26.972656 4.132812 26.679688 4.132812 26.304688 L 3.40625 26.347656 C 3.40625 27.128906 4.074219 27.753906 4.875 27.679688 C 5.65625 27.609375 6.167969 26.851562 6.070312 26.074219 C 6.035156 25.8125 5.945312 25.550781 5.738281 25.304688 C 5.945312 25.058594 6.035156 24.796875 6.070312 24.535156 Z M 6.070312 24.535156 " fill-opacity="1" fill-rule="nonzero"/></g><g clip-path="url(#id2)"><path fill="#b8d3cf" d="M 29.480469 20.136719 L 29.480469 29.023438 L 20.589844 29.023438 L 20.589844 20.136719 Z M 26.433594 26.871094 L 26.433594 26.113281 L 24.835938 26.113281 C 25.269531 25.089844 26.433594 24.941406 26.433594 23.921875 C 26.433594 23.152344 25.808594 22.523438 25.035156 22.523438 C 24.265625 22.523438 23.640625 23.152344 23.640625 23.921875 L 24.460938 23.921875 C 24.460938 23.605469 24.71875 23.347656 25.035156 23.347656 C 25.355469 23.347656 25.609375 23.605469 25.609375 23.921875 C 25.609375 24.574219 23.640625 25.5 23.640625 26.398438 L 23.640625 26.871094 Z M 26.433594 26.871094 " fill-opacity="1" fill-rule="nonzero"/></g><g clip-path="url(#id3)"><path fill="#d6eae8" d="M 20.589844 20.136719 L 20.589844 29.023438 L 9.410156 29.023438 L 9.410156 18.835938 L 20.589844 18.835938 Z M 16.191406 25.539062 L 16.191406 24.738281 L 15.390625 24.738281 L 15.390625 20.773438 L 14.804688 20.773438 L 13.816406 21.339844 L 13.816406 22.316406 L 14.601562 21.839844 L 14.601562 24.738281 L 13.816406 24.738281 L 13.816406 25.539062 Z M 16.191406 25.539062 " fill-opacity="1" fill-rule="nonzero"/></g><path fill="#ef9d26" d="M 21.617188 5.265625 C 22.433594 5.265625 23.046875 5.996094 22.921875 6.804688 C 22.640625 8.652344 22.015625 9.945312 20.195312 10.496094 L 20.195312 9.507812 C 21.167969 8.960938 21.664062 8.117188 21.933594 7.039062 C 22.042969 6.59375 21.710938 6.160156 21.25 6.160156 L 20.195312 6.160156 L 20.195312 5.265625 Z M 21.617188 5.265625 " fill-opacity="1" fill-rule="nonzero"/><path fill="#f9b132" d="M 21.4375 13.472656 C 21.4375 14.375 21.855469 15.167969 22.558594 15.167969 C 21.863281 15.167969 21.4375 16.074219 21.4375 16.867188 C 21.4375 16.074219 21.015625 15.167969 20.316406 15.167969 C 21.019531 15.167969 21.4375 14.375 21.4375 13.472656 Z M 21.4375 13.472656 " fill-opacity="1" fill-rule="nonzero"/><path fill="#ffc05a" d="M 20.195312 10.496094 L 20.195312 11.300781 C 20.195312 13.144531 17.328125 14.4375 16.578125 16.292969 C 16.363281 16.824219 16.75 17.410156 17.324219 17.410156 L 17.332031 17.410156 C 18.117188 17.410156 18.753906 18.046875 18.753906 18.835938 L 11.253906 18.835938 C 11.253906 18.441406 11.414062 18.085938 11.667969 17.828125 C 11.925781 17.570312 12.28125 17.410156 12.675781 17.410156 C 13.25 17.410156 13.636719 16.824219 13.421875 16.292969 C 12.671875 14.4375 9.804688 13.144531 9.804688 11.300781 L 9.804688 4.144531 L 20.195312 4.144531 Z M 20.195312 10.496094 " fill-opacity="1" fill-rule="nonzero"/><path fill="#f9b132" d="M 12.621094 1.695312 C 11.921875 1.695312 11.496094 2.367188 11.496094 3.164062 C 11.496094 2.367188 11.070312 1.695312 10.375 1.695312 C 11.082031 1.695312 11.496094 0.898438 11.496094 0 C 11.496094 0.898438 11.914062 1.695312 12.621094 1.695312 Z M 12.621094 1.695312 " fill-opacity="1" fill-rule="nonzero"/><path fill="#ef9d26" d="M 9.804688 9.507812 L 9.804688 10.496094 C 7.984375 9.945312 7.359375 8.652344 7.078125 6.804688 C 6.953125 5.996094 7.566406 5.265625 8.382812 5.265625 L 9.804688 5.265625 L 9.804688 6.160156 L 8.75 6.160156 C 8.289062 6.160156 7.957031 6.59375 8.066406 7.039062 C 8.335938 8.117188 8.832031 8.960938 9.804688 9.507812 Z M 9.804688 9.507812 " fill-opacity="1" fill-rule="nonzero"/><path fill="#f9b132" d="M 8.046875 14.980469 C 8.046875 15.878906 8.460938 16.675781 9.167969 16.675781 C 8.472656 16.675781 8.046875 17.582031 8.046875 18.375 C 8.046875 17.582031 7.621094 16.675781 6.921875 16.675781 C 7.632812 16.675781 8.046875 15.878906 8.046875 14.980469 Z M 8.046875 14.980469 " fill-opacity="1" fill-rule="nonzero"/></svg>